%TF.GenerationSoftware,KiCad,Pcbnew,10.0.0*%
%TF.CreationDate,2026-04-24T11:46:31-05:00*%
%TF.ProjectId,BU01,42553031-2e6b-4696-9361-645f70636258,rev?*%
%TF.SameCoordinates,Original*%
%TF.FileFunction,Copper,L1,Top*%
%TF.FilePolarity,Positive*%
%FSLAX46Y46*%
G04 Gerber Fmt 4.6, Leading zero omitted, Abs format (unit mm)*
G04 Created by KiCad (PCBNEW 10.0.0) date 2026-04-24 11:46:31*
%MOMM*%
%LPD*%
G01*
G04 APERTURE LIST*
%TA.AperFunction,Conductor*%
%ADD10C,0.200000*%
%TD*%
%TA.AperFunction,ComponentPad*%
%ADD11R,1.700000X1.700000*%
%TD*%
%TA.AperFunction,ComponentPad*%
%ADD12C,1.700000*%
%TD*%
%TA.AperFunction,SMDPad,CuDef*%
%ADD13R,2.300000X1.000000*%
%TD*%
%TA.AperFunction,SMDPad,CuDef*%
%ADD14R,1.000000X2.300000*%
%TD*%
%TA.AperFunction,Conductor*%
%ADD15C,1.000000*%
%TD*%
%TA.AperFunction,Conductor*%
%ADD16C,0.400000*%
%TD*%
%TA.AperFunction,Conductor*%
%ADD17C,1.100000*%
%TD*%
G04 APERTURE END LIST*
D10*
%TO.N,VCC1*%
X96800000Y-74740944D02*
X96755324Y-75007988D01*
X92102837Y-79546612D01*
X91390849Y-80240000D01*
X89970000Y-80240000D01*
X89970000Y-73860000D01*
X91301988Y-73860000D01*
X94360030Y-70820000D01*
X96800000Y-70820000D01*
X96800000Y-74740944D01*
%TA.AperFunction,Conductor*%
G36*
X96800000Y-74740944D02*
G01*
X96755324Y-75007988D01*
X92102837Y-79546612D01*
X91390849Y-80240000D01*
X89970000Y-80240000D01*
X89970000Y-73860000D01*
X91301988Y-73860000D01*
X94360030Y-70820000D01*
X96800000Y-70820000D01*
X96800000Y-74740944D01*
G37*
%TD.AperFunction*%
X96800000Y-75000000D02*
X96800000Y-74740944D01*
X96800158Y-74740000D01*
X96800000Y-75000000D01*
%TA.AperFunction,Conductor*%
G36*
X96800000Y-75000000D02*
G01*
X96800000Y-74740944D01*
X96800158Y-74740000D01*
X96800000Y-75000000D01*
G37*
%TD.AperFunction*%
%TD*%
D11*
%TO.P,J4,1,Pin_1_1*%
%TO.N,BU01-EXTON*%
X90710000Y-64870000D03*
D12*
%TO.P,J4,2,Pin_2_2*%
%TO.N,BU01-WAKEUP*%
X90710000Y-67410000D03*
%TO.P,J4,3,Pin_3_3*%
%TO.N,RSTN*%
X90710000Y-69950000D03*
%TO.P,J4,4,Pin_4_4*%
%TO.N,IO7*%
X90710000Y-72490000D03*
%TO.P,J4,5,Pin_5_5*%
%TO.N,VCC1*%
X90710000Y-75030000D03*
%TO.P,J4,6,Pin_6_6*%
X90710000Y-77570000D03*
%TO.P,J4,7,Pin_7_7*%
X90710000Y-80110000D03*
%TO.P,J4,8,Pin_8_8*%
%TO.N,GND1*%
X90710000Y-82650000D03*
%TO.P,J4,9,Pin_9_9*%
%TO.N,IO6*%
X90710000Y-85190000D03*
%TO.P,J4,10,Pin_10_10*%
%TO.N,IO5*%
X90710000Y-87730000D03*
%TO.P,J4,11,Pin_11_11*%
%TO.N,IO4*%
X90710000Y-90270000D03*
%TO.P,J4,12,Pin_12_12*%
%TO.N,IO3*%
X90710000Y-92810000D03*
%TD*%
D11*
%TO.P,J3,1,Pin_1_1*%
%TO.N,GND1*%
X118650000Y-64870000D03*
D12*
%TO.P,J3,2,Pin_2_2*%
X118650000Y-67410000D03*
%TO.P,J3,3,Pin_3_3*%
%TO.N,IRQ*%
X118650000Y-69950000D03*
%TO.P,J3,4,Pin_4_4*%
%TO.N,GND1*%
X118650000Y-72490000D03*
%TO.P,J3,5,Pin_5_5*%
%TO.N,SCK*%
X118650000Y-75030000D03*
%TO.P,J3,6,Pin_6_6*%
%TO.N,SDO*%
X118650000Y-77570000D03*
%TO.P,J3,7,Pin_7_7*%
%TO.N,SDI*%
X118650000Y-80110000D03*
%TO.P,J3,8,Pin_8_8*%
%TO.N,CS*%
X118650000Y-82650000D03*
%TO.P,J3,9,Pin_9_9*%
%TO.N,GND1*%
X118650000Y-85190000D03*
%TO.P,J3,10,Pin_10_10*%
%TO.N,IO0*%
X118650000Y-87730000D03*
%TO.P,J3,11,Pin_11_11*%
%TO.N,IO1*%
X118650000Y-90270000D03*
%TO.P,J3,12,Pin_12_12*%
%TO.N,IO2*%
X118650000Y-92810000D03*
%TD*%
D13*
%TO.P,U2,1,EXTON_1*%
%TO.N,BU01-EXTON*%
X98500000Y-62899900D03*
%TO.P,U2,2,WAKEUP_2*%
%TO.N,BU01-WAKEUP*%
X98500000Y-64300000D03*
%TO.P,U2,3,RSTN_3*%
%TO.N,RSTN*%
X98500000Y-65700000D03*
%TO.P,U2,4,IO7_4*%
%TO.N,IO7*%
X98500000Y-67100100D03*
%TO.P,U2,5,VCC_5*%
%TO.N,VCC1*%
X98500000Y-68499900D03*
%TO.P,U2,6,VCC_6*%
X98500000Y-69899900D03*
%TO.P,U2,7,VCC_7*%
X98500000Y-71300000D03*
%TO.P,U2,8,GND_8*%
%TO.N,GND1*%
X98500000Y-72700000D03*
D14*
%TO.P,U2,9,IO6_9*%
%TO.N,IO6*%
X99900100Y-75099800D03*
%TO.P,U2,10,IO5_10*%
%TO.N,IO5*%
X101300400Y-75099800D03*
%TO.P,U2,11,IO4_11*%
%TO.N,IO4*%
X102699900Y-75099800D03*
%TO.P,U2,12,IO3_12*%
%TO.N,IO3*%
X104100000Y-75099800D03*
%TO.P,U2,13,IO2_13*%
%TO.N,IO2*%
X105500000Y-75099800D03*
%TO.P,U2,14,IO1_14*%
%TO.N,IO1*%
X106900100Y-75099800D03*
%TO.P,U2,15,IO0_15*%
%TO.N,IO0*%
X108300400Y-75099800D03*
%TO.P,U2,16,GND_16*%
%TO.N,GND1*%
X109699900Y-75099800D03*
D13*
%TO.P,U2,17,CSn_17*%
%TO.N,CS*%
X111100000Y-72700000D03*
%TO.P,U2,18,MOSI_18*%
%TO.N,SDI*%
X111100000Y-71300000D03*
%TO.P,U2,19,MISO_19*%
%TO.N,SDO*%
X111100000Y-69899900D03*
%TO.P,U2,20,CLK_20*%
%TO.N,SCK*%
X111100000Y-68499900D03*
%TO.P,U2,21,GND_21*%
%TO.N,GND1*%
X111100000Y-67100100D03*
%TO.P,U2,22,IRQ_22*%
%TO.N,IRQ*%
X111100000Y-65700000D03*
%TO.P,U2,23,GND_23*%
%TO.N,GND1*%
X111100000Y-64300000D03*
%TO.P,U2,24,GND_24*%
X111100000Y-62899900D03*
%TD*%
%TO.N,BU01-EXTON*%
D15*
X92680100Y-62899900D02*
X90710000Y-64870000D01*
X98480100Y-62880000D02*
X98500000Y-62899900D01*
X98500000Y-62899900D02*
X92680100Y-62899900D01*
%TO.N,BU01-WAKEUP*%
X93259898Y-64300000D02*
X98500000Y-64300000D01*
X90710000Y-67410000D02*
X91912081Y-67410000D01*
X92609949Y-64949949D02*
X93259898Y-64300000D01*
X91912081Y-67410000D02*
X92609949Y-66712132D01*
X92609949Y-66712132D02*
X92609949Y-64949949D01*
%TO.N,RSTN*%
X94009949Y-67292031D02*
X91351980Y-69950000D01*
X91351980Y-69950000D02*
X90710000Y-69950000D01*
X98500000Y-65700000D02*
X94009949Y-65700000D01*
X94009949Y-65700000D02*
X94009949Y-67292031D01*
%TO.N,IO7*%
X95410049Y-67100100D02*
X95409949Y-67100000D01*
X98500000Y-67100100D02*
X95410049Y-67100100D01*
X95409949Y-67871930D02*
X90791879Y-72490000D01*
X95409949Y-67100000D02*
X95409949Y-67871930D01*
X90791879Y-72490000D02*
X90710000Y-72490000D01*
%TO.N,VCC1*%
D16*
X97949900Y-68499900D02*
X97728787Y-68721013D01*
D15*
X98500000Y-71300000D02*
X94440000Y-71300000D01*
X95840100Y-69899900D02*
X94440000Y-71300000D01*
X98500000Y-71300000D02*
X98500000Y-69899900D01*
X90710000Y-80110000D02*
X90710000Y-77570000D01*
X90710000Y-75030000D02*
X90710000Y-77570000D01*
X97240100Y-68499900D02*
X94440000Y-71300000D01*
X94440000Y-71300000D02*
X90710000Y-75030000D01*
D16*
X98500000Y-68499900D02*
X97240100Y-68499900D01*
X98500000Y-68499900D02*
X97949900Y-68499900D01*
D15*
X98500000Y-69899900D02*
X98500000Y-68499900D01*
X98500000Y-69899900D02*
X95840100Y-69899900D01*
%TO.N,GND1*%
X109050000Y-64300000D02*
X111100000Y-64300000D01*
X89120000Y-82650000D02*
X89100000Y-82630000D01*
X118650000Y-64870000D02*
X118650000Y-67410000D01*
X113729799Y-67099900D02*
X113729599Y-67100100D01*
X109699900Y-76239900D02*
X109699900Y-75099800D01*
X108940000Y-67209900D02*
X108940000Y-64410000D01*
X108940000Y-67209900D02*
X109049800Y-67100100D01*
X98500000Y-72700000D02*
X97520000Y-72700000D01*
X110450100Y-62899900D02*
X111100000Y-62899900D01*
X120400000Y-69160000D02*
X118650000Y-67410000D01*
D16*
X109699900Y-75099800D02*
X109699900Y-73801000D01*
D15*
X98500000Y-72700000D02*
X98500000Y-74860000D01*
X120530000Y-85280000D02*
X120440000Y-85190000D01*
X111100000Y-67100100D02*
X113729599Y-67100100D01*
X98490000Y-72750000D02*
X98500000Y-72750000D01*
X98500000Y-72700000D02*
X108940000Y-72700000D01*
X98500000Y-72700000D02*
X98020000Y-72700000D01*
X108940000Y-72700000D02*
X109050000Y-72810000D01*
X118650000Y-85190000D02*
X120440000Y-85190000D01*
X118650000Y-85190000D02*
X109699900Y-76239900D01*
X90710000Y-82650000D02*
X89120000Y-82650000D01*
X109049800Y-67100100D02*
X111100000Y-67100100D01*
X111100000Y-62899900D02*
X116679900Y-62899900D01*
X108940000Y-72700000D02*
X108940000Y-67209900D01*
X118650000Y-85190000D02*
X118650000Y-85150100D01*
X98500000Y-74860000D02*
X90710000Y-82650000D01*
X118080000Y-64300000D02*
X111100000Y-64300000D01*
D16*
X109699900Y-73801000D02*
X109349000Y-73450100D01*
X109349000Y-72810000D02*
X109239000Y-72700000D01*
D15*
X120400000Y-70740000D02*
X120400000Y-69160000D01*
X111099800Y-67099900D02*
X111100000Y-67100100D01*
X109700000Y-76200100D02*
X109699900Y-76200000D01*
X118650000Y-64870000D02*
X118080000Y-64300000D01*
X108940000Y-64410000D02*
X109050000Y-64300000D01*
X116679900Y-62899900D02*
X118650000Y-64870000D01*
D17*
X111100000Y-62899900D02*
X111100000Y-64300000D01*
D16*
X109349000Y-73450100D02*
X109349000Y-72810000D01*
D15*
X118650000Y-72490000D02*
X120400000Y-70740000D01*
%TO.N,IO6*%
X99900100Y-75999900D02*
X90710000Y-85190000D01*
X99900400Y-75099500D02*
X99900100Y-75099800D01*
X99900100Y-75099800D02*
X99900100Y-75999900D01*
%TO.N,IO5*%
X101300400Y-77139600D02*
X90710000Y-87730000D01*
X101300400Y-75099800D02*
X101300400Y-77139600D01*
%TO.N,IO4*%
X102699900Y-78280100D02*
X90710000Y-90270000D01*
X90770000Y-90330000D02*
X90710000Y-90270000D01*
X102699900Y-75099800D02*
X102699900Y-78280100D01*
%TO.N,IO3*%
X104100000Y-75099800D02*
X104100000Y-79420000D01*
X104100000Y-75099800D02*
X104099900Y-75099800D01*
X104100000Y-79420000D02*
X90710000Y-92810000D01*
%TO.N,IRQ*%
X114400100Y-65700100D02*
X111750510Y-65700100D01*
X118650000Y-69950000D02*
X114400100Y-65700100D01*
%TO.N,SCK*%
X116190000Y-72570000D02*
X116190000Y-70380203D01*
X118650000Y-75030000D02*
X118590000Y-75090000D01*
X114309697Y-68499900D02*
X111100000Y-68499900D01*
X118650000Y-75030000D02*
X116190000Y-72570000D01*
X116190000Y-70380203D02*
X114309697Y-68499900D01*
%TO.N,SDO*%
X118650000Y-77570000D02*
X114550000Y-73470000D01*
X114550000Y-70720101D02*
X113729799Y-69899900D01*
X114550000Y-73470000D02*
X114550000Y-70720101D01*
X113729799Y-69899900D02*
X111100000Y-69899900D01*
%TO.N,SDI*%
X111100100Y-71299900D02*
X111100000Y-71300000D01*
X118650000Y-80110000D02*
X113150000Y-74610000D01*
X113150000Y-71300000D02*
X111100000Y-71300000D01*
X113150000Y-74610000D02*
X113150000Y-71300000D01*
%TO.N,CS*%
X118650000Y-82650000D02*
X111100000Y-75100000D01*
X111100000Y-75100000D02*
X111100000Y-72700000D01*
%TO.N,IO0*%
D16*
X108405000Y-75204400D02*
X108300400Y-75099800D01*
D15*
X108300400Y-77380400D02*
X108300400Y-75099800D01*
X118650000Y-87730000D02*
X108300400Y-77380400D01*
%TO.N,IO1*%
X106900100Y-78520100D02*
X106900100Y-75099800D01*
X118650000Y-90270000D02*
X106900100Y-78520100D01*
%TO.N,IO2*%
X118650000Y-92810000D02*
X105500000Y-79660000D01*
X105500000Y-79660000D02*
X105500000Y-75099800D01*
%TD*%
%TA.AperFunction,Conductor*%
%TO.N,GND1*%
G36*
X91306201Y-61852668D02*
G01*
X91373196Y-61872490D01*
X91418842Y-61925388D01*
X91428643Y-61994567D01*
X91399487Y-62058063D01*
X91393623Y-62064348D01*
X90474790Y-62983181D01*
X90413467Y-63016666D01*
X90387109Y-63019500D01*
X89801971Y-63019500D01*
X89801965Y-63019500D01*
X89801964Y-63019501D01*
X89790316Y-63020536D01*
X89682584Y-63030113D01*
X89486954Y-63086089D01*
X89396772Y-63133196D01*
X89306593Y-63180302D01*
X89306591Y-63180303D01*
X89306590Y-63180304D01*
X89148890Y-63308890D01*
X89027363Y-63457933D01*
X89020302Y-63466593D01*
X89014378Y-63477934D01*
X88926089Y-63646954D01*
X88898904Y-63741964D01*
X88873256Y-63831603D01*
X88870114Y-63842583D01*
X88870113Y-63842586D01*
X88859500Y-63961966D01*
X88859500Y-65778028D01*
X88859501Y-65778034D01*
X88870113Y-65897415D01*
X88926089Y-66093045D01*
X88926090Y-66093048D01*
X88926091Y-66093049D01*
X89012273Y-66258037D01*
X89020305Y-66273412D01*
X89088691Y-66357281D01*
X89115800Y-66421677D01*
X89103790Y-66490507D01*
X89099977Y-66497640D01*
X89046775Y-66589789D01*
X89046773Y-66589794D01*
X88953947Y-66813895D01*
X88891161Y-67048214D01*
X88859500Y-67288711D01*
X88859500Y-67531288D01*
X88876199Y-67658137D01*
X88891162Y-67771789D01*
X88903172Y-67816610D01*
X88953947Y-68006104D01*
X88996898Y-68109796D01*
X89046776Y-68230212D01*
X89168064Y-68440289D01*
X89168066Y-68440292D01*
X89168067Y-68440293D01*
X89294077Y-68604514D01*
X89319271Y-68669683D01*
X89305232Y-68738128D01*
X89294077Y-68755486D01*
X89168067Y-68919706D01*
X89046777Y-69129785D01*
X89046773Y-69129794D01*
X88953947Y-69353895D01*
X88891161Y-69588214D01*
X88859500Y-69828711D01*
X88859500Y-70071288D01*
X88891161Y-70311785D01*
X88953947Y-70546104D01*
X89035075Y-70741963D01*
X89046776Y-70770212D01*
X89168064Y-70980289D01*
X89168066Y-70980292D01*
X89168067Y-70980293D01*
X89294077Y-71144514D01*
X89319271Y-71209683D01*
X89305232Y-71278128D01*
X89294077Y-71295486D01*
X89168067Y-71459706D01*
X89046777Y-71669785D01*
X89046773Y-71669794D01*
X88953947Y-71893895D01*
X88891161Y-72128214D01*
X88859500Y-72368711D01*
X88859500Y-72611288D01*
X88887674Y-72825300D01*
X88891162Y-72851789D01*
X88921865Y-72966375D01*
X88953948Y-73086107D01*
X89010741Y-73223218D01*
X89018210Y-73292687D01*
X89006396Y-73327489D01*
X88943688Y-73449127D01*
X88943688Y-73449128D01*
X88884479Y-73650776D01*
X88884478Y-73650783D01*
X88869537Y-73807256D01*
X88864500Y-73860005D01*
X88864500Y-74862606D01*
X88863439Y-74878791D01*
X88859500Y-74908711D01*
X88859500Y-75151295D01*
X88863439Y-75181207D01*
X88864500Y-75197393D01*
X88864500Y-77402606D01*
X88863439Y-77418791D01*
X88859500Y-77448711D01*
X88859500Y-77691295D01*
X88863439Y-77721207D01*
X88864500Y-77737393D01*
X88864500Y-79942606D01*
X88863438Y-79958791D01*
X88859500Y-79988712D01*
X88859500Y-80231288D01*
X88865350Y-80275726D01*
X88865752Y-80292602D01*
X88887312Y-80442565D01*
X88887424Y-80443410D01*
X88891161Y-80471787D01*
X88891790Y-80474951D01*
X88892905Y-80481466D01*
X88895660Y-80500626D01*
X88895662Y-80500635D01*
X88908509Y-80537752D01*
X88911104Y-80546215D01*
X88953947Y-80706104D01*
X88967337Y-80738429D01*
X89046776Y-80930212D01*
X89168064Y-81140289D01*
X89168066Y-81140292D01*
X89168067Y-81140293D01*
X89315733Y-81332736D01*
X89315739Y-81332743D01*
X89487256Y-81504260D01*
X89487263Y-81504266D01*
X89508207Y-81520337D01*
X89679711Y-81651936D01*
X89889788Y-81773224D01*
X90113900Y-81866054D01*
X90308171Y-81918109D01*
X90363756Y-81950202D01*
X90580591Y-82167037D01*
X90517007Y-82184075D01*
X90402993Y-82249901D01*
X90309901Y-82342993D01*
X90244075Y-82457007D01*
X90227037Y-82520591D01*
X89811378Y-82104932D01*
X89811377Y-82104932D01*
X89779505Y-82152631D01*
X89779500Y-82152641D01*
X89700350Y-82343725D01*
X89700348Y-82343733D01*
X89660000Y-82546579D01*
X89660000Y-82753420D01*
X89700348Y-82956266D01*
X89700350Y-82956274D01*
X89779500Y-83147359D01*
X89811377Y-83195067D01*
X89811378Y-83195067D01*
X90227037Y-82779408D01*
X90244075Y-82842993D01*
X90309901Y-82957007D01*
X90402993Y-83050099D01*
X90517007Y-83115925D01*
X90580590Y-83132962D01*
X90363756Y-83349796D01*
X90308170Y-83381889D01*
X90113905Y-83433944D01*
X90113898Y-83433946D01*
X89889799Y-83526770D01*
X89889785Y-83526777D01*
X89679706Y-83648067D01*
X89487263Y-83795733D01*
X89487256Y-83795739D01*
X89315739Y-83967256D01*
X89315733Y-83967263D01*
X89168067Y-84159706D01*
X89046777Y-84369785D01*
X89046773Y-84369794D01*
X88953947Y-84593895D01*
X88891161Y-84828214D01*
X88859500Y-85068711D01*
X88859500Y-85311288D01*
X88891161Y-85551785D01*
X88953947Y-85786104D01*
X88996898Y-85889796D01*
X89046776Y-86010212D01*
X89168064Y-86220289D01*
X89168066Y-86220292D01*
X89168067Y-86220293D01*
X89294077Y-86384514D01*
X89319271Y-86449683D01*
X89305232Y-86518128D01*
X89294077Y-86535486D01*
X89168067Y-86699706D01*
X89046777Y-86909785D01*
X89046773Y-86909794D01*
X88953947Y-87133895D01*
X88891161Y-87368214D01*
X88859500Y-87608711D01*
X88859500Y-87851288D01*
X88891161Y-88091785D01*
X88953947Y-88326104D01*
X89046773Y-88550205D01*
X89046776Y-88550212D01*
X89168064Y-88760289D01*
X89168066Y-88760292D01*
X89168067Y-88760293D01*
X89294077Y-88924514D01*
X89319271Y-88989683D01*
X89305232Y-89058128D01*
X89294077Y-89075486D01*
X89168067Y-89239706D01*
X89046777Y-89449785D01*
X89046773Y-89449794D01*
X88953947Y-89673895D01*
X88891161Y-89908214D01*
X88859500Y-90148711D01*
X88859500Y-90391288D01*
X88891161Y-90631785D01*
X88953947Y-90866104D01*
X89046773Y-91090205D01*
X89046776Y-91090212D01*
X89168064Y-91300289D01*
X89168066Y-91300292D01*
X89168067Y-91300293D01*
X89294077Y-91464514D01*
X89319271Y-91529683D01*
X89305232Y-91598128D01*
X89294077Y-91615486D01*
X89168067Y-91779706D01*
X89046777Y-91989785D01*
X89046773Y-91989794D01*
X88953947Y-92213895D01*
X88891161Y-92448214D01*
X88859500Y-92688711D01*
X88859500Y-92931288D01*
X88891161Y-93171785D01*
X88953947Y-93406104D01*
X89046773Y-93630205D01*
X89046776Y-93630212D01*
X89168064Y-93840289D01*
X89168066Y-93840292D01*
X89168067Y-93840293D01*
X89315733Y-94032736D01*
X89315739Y-94032743D01*
X89487256Y-94204260D01*
X89487262Y-94204265D01*
X89679711Y-94351936D01*
X89889788Y-94473224D01*
X90113900Y-94566054D01*
X90348211Y-94628838D01*
X90528586Y-94652584D01*
X90588711Y-94660500D01*
X90588712Y-94660500D01*
X90831289Y-94660500D01*
X90879388Y-94654167D01*
X91071789Y-94628838D01*
X91306100Y-94566054D01*
X91530212Y-94473224D01*
X91740289Y-94351936D01*
X91932738Y-94204265D01*
X92104265Y-94032738D01*
X92251936Y-93840289D01*
X92373224Y-93630212D01*
X92466054Y-93406100D01*
X92528838Y-93171789D01*
X92532228Y-93146035D01*
X92560493Y-93082139D01*
X92567474Y-93074551D01*
X104592322Y-81049704D01*
X104653641Y-81016222D01*
X104723333Y-81021206D01*
X104767680Y-81049707D01*
X116792513Y-93074540D01*
X116825998Y-93135863D01*
X116827771Y-93146034D01*
X116831161Y-93171785D01*
X116831162Y-93171788D01*
X116893947Y-93406104D01*
X116986773Y-93630205D01*
X116986776Y-93630212D01*
X117108064Y-93840289D01*
X117108066Y-93840292D01*
X117108067Y-93840293D01*
X117255733Y-94032736D01*
X117255739Y-94032743D01*
X117427256Y-94204260D01*
X117427262Y-94204265D01*
X117619711Y-94351936D01*
X117829788Y-94473224D01*
X118053900Y-94566054D01*
X118288211Y-94628838D01*
X118468586Y-94652584D01*
X118528711Y-94660500D01*
X118528712Y-94660500D01*
X118771289Y-94660500D01*
X118819388Y-94654167D01*
X119011789Y-94628838D01*
X119246100Y-94566054D01*
X119470212Y-94473224D01*
X119680289Y-94351936D01*
X119872738Y-94204265D01*
X120044265Y-94032738D01*
X120191936Y-93840289D01*
X120313224Y-93630212D01*
X120406054Y-93406100D01*
X120468838Y-93171789D01*
X120500500Y-92931288D01*
X120500500Y-92688712D01*
X120468838Y-92448211D01*
X120406054Y-92213900D01*
X120313224Y-91989788D01*
X120191936Y-91779711D01*
X120065922Y-91615486D01*
X120040728Y-91550317D01*
X120054766Y-91481872D01*
X120065922Y-91464514D01*
X120067099Y-91462979D01*
X120191936Y-91300289D01*
X120313224Y-91090212D01*
X120406054Y-90866100D01*
X120468838Y-90631789D01*
X120500500Y-90391288D01*
X120500500Y-90148712D01*
X120468838Y-89908211D01*
X120406054Y-89673900D01*
X120313224Y-89449788D01*
X120191936Y-89239711D01*
X120065922Y-89075486D01*
X120040728Y-89010317D01*
X120054766Y-88941872D01*
X120065922Y-88924514D01*
X120067099Y-88922979D01*
X120191936Y-88760289D01*
X120313224Y-88550212D01*
X120406054Y-88326100D01*
X120468838Y-88091789D01*
X120500500Y-87851288D01*
X120500500Y-87608712D01*
X120468838Y-87368211D01*
X120406054Y-87133900D01*
X120313224Y-86909788D01*
X120191936Y-86699711D01*
X120044265Y-86507262D01*
X120044260Y-86507256D01*
X119872743Y-86335739D01*
X119872736Y-86335733D01*
X119680293Y-86188067D01*
X119680292Y-86188066D01*
X119680289Y-86188064D01*
X119470212Y-86066776D01*
X119470200Y-86066770D01*
X119246100Y-85973946D01*
X119051829Y-85921890D01*
X118996242Y-85889796D01*
X118779408Y-85672962D01*
X118842993Y-85655925D01*
X118957007Y-85590099D01*
X119050099Y-85497007D01*
X119115925Y-85382993D01*
X119132962Y-85319409D01*
X119548620Y-85735067D01*
X119548621Y-85735066D01*
X119580495Y-85687366D01*
X119659649Y-85496274D01*
X119659651Y-85496266D01*
X119699999Y-85293420D01*
X119700000Y-85293417D01*
X119700000Y-85086583D01*
X119699999Y-85086579D01*
X119659651Y-84883733D01*
X119659649Y-84883725D01*
X119580498Y-84692639D01*
X119580495Y-84692633D01*
X119548621Y-84644932D01*
X119548620Y-84644931D01*
X119132962Y-85060590D01*
X119115925Y-84997007D01*
X119050099Y-84882993D01*
X118957007Y-84789901D01*
X118842993Y-84724075D01*
X118779406Y-84707036D01*
X118996241Y-84490202D01*
X119051826Y-84458109D01*
X119246100Y-84406054D01*
X119470212Y-84313224D01*
X119680289Y-84191936D01*
X119872738Y-84044265D01*
X120044265Y-83872738D01*
X120191936Y-83680289D01*
X120313224Y-83470212D01*
X120406054Y-83246100D01*
X120468838Y-83011789D01*
X120500500Y-82771288D01*
X120500500Y-82528712D01*
X120468838Y-82288211D01*
X120406054Y-82053900D01*
X120313224Y-81829788D01*
X120191936Y-81619711D01*
X120065922Y-81455486D01*
X120040728Y-81390317D01*
X120054766Y-81321872D01*
X120065922Y-81304514D01*
X120071494Y-81297252D01*
X120191936Y-81140289D01*
X120313224Y-80930212D01*
X120406054Y-80706100D01*
X120468838Y-80471789D01*
X120500500Y-80231288D01*
X120500500Y-79988712D01*
X120468838Y-79748211D01*
X120406054Y-79513900D01*
X120313224Y-79289788D01*
X120191936Y-79079711D01*
X120065922Y-78915486D01*
X120040728Y-78850317D01*
X120054766Y-78781872D01*
X120065922Y-78764514D01*
X120067099Y-78762979D01*
X120191936Y-78600289D01*
X120313224Y-78390212D01*
X120406054Y-78166100D01*
X120468838Y-77931789D01*
X120500500Y-77691288D01*
X120500500Y-77448712D01*
X120468838Y-77208211D01*
X120406054Y-76973900D01*
X120313224Y-76749788D01*
X120191936Y-76539711D01*
X120065922Y-76375486D01*
X120040728Y-76310317D01*
X120054766Y-76241872D01*
X120065922Y-76224514D01*
X120067099Y-76222979D01*
X120191936Y-76060289D01*
X120313224Y-75850212D01*
X120406054Y-75626100D01*
X120468838Y-75391789D01*
X120500500Y-75151288D01*
X120500500Y-74908712D01*
X120468838Y-74668211D01*
X120406054Y-74433900D01*
X120313224Y-74209788D01*
X120191936Y-73999711D01*
X120044265Y-73807262D01*
X120044260Y-73807256D01*
X119872743Y-73635739D01*
X119872736Y-73635733D01*
X119680293Y-73488067D01*
X119680292Y-73488066D01*
X119680289Y-73488064D01*
X119470212Y-73366776D01*
X119470200Y-73366770D01*
X119246100Y-73273946D01*
X119051829Y-73221890D01*
X118996242Y-73189796D01*
X118779408Y-72972962D01*
X118842993Y-72955925D01*
X118957007Y-72890099D01*
X119050099Y-72797007D01*
X119115925Y-72682993D01*
X119132962Y-72619409D01*
X119548620Y-73035067D01*
X119548621Y-73035066D01*
X119580495Y-72987366D01*
X119659649Y-72796274D01*
X119659651Y-72796266D01*
X119699999Y-72593420D01*
X119700000Y-72593417D01*
X119700000Y-72386583D01*
X119699999Y-72386579D01*
X119659651Y-72183733D01*
X119659649Y-72183725D01*
X119580498Y-71992639D01*
X119580495Y-71992633D01*
X119548621Y-71944932D01*
X119548620Y-71944931D01*
X119132962Y-72360590D01*
X119115925Y-72297007D01*
X119050099Y-72182993D01*
X118957007Y-72089901D01*
X118842993Y-72024075D01*
X118779407Y-72007036D01*
X118996242Y-71790202D01*
X119051826Y-71758109D01*
X119246100Y-71706054D01*
X119470212Y-71613224D01*
X119680289Y-71491936D01*
X119872738Y-71344265D01*
X120044265Y-71172738D01*
X120191936Y-70980289D01*
X120313224Y-70770212D01*
X120406054Y-70546100D01*
X120468838Y-70311789D01*
X120500500Y-70071288D01*
X120500500Y-69828712D01*
X120468838Y-69588211D01*
X120406054Y-69353900D01*
X120313224Y-69129788D01*
X120191936Y-68919711D01*
X120044265Y-68727262D01*
X120044260Y-68727256D01*
X119872743Y-68555739D01*
X119872736Y-68555733D01*
X119680293Y-68408067D01*
X119680292Y-68408066D01*
X119680289Y-68408064D01*
X119470212Y-68286776D01*
X119470200Y-68286770D01*
X119246100Y-68193946D01*
X119051829Y-68141890D01*
X118996242Y-68109796D01*
X118779408Y-67892962D01*
X118842993Y-67875925D01*
X118957007Y-67810099D01*
X119050099Y-67717007D01*
X119115925Y-67602993D01*
X119132962Y-67539409D01*
X119548620Y-67955067D01*
X119548621Y-67955066D01*
X119580495Y-67907366D01*
X119659649Y-67716274D01*
X119659651Y-67716266D01*
X119699999Y-67513420D01*
X119700000Y-67513417D01*
X119700000Y-67306583D01*
X119699999Y-67306579D01*
X119659651Y-67103733D01*
X119659649Y-67103725D01*
X119580498Y-66912639D01*
X119580495Y-66912633D01*
X119548621Y-66864932D01*
X119548620Y-66864931D01*
X119132962Y-67280590D01*
X119115925Y-67217007D01*
X119050099Y-67102993D01*
X118957007Y-67009901D01*
X118842993Y-66944075D01*
X118779409Y-66927037D01*
X119195067Y-66511378D01*
X119195067Y-66511377D01*
X119147359Y-66479500D01*
X118956274Y-66400350D01*
X118956266Y-66400348D01*
X118753420Y-66360000D01*
X118546579Y-66360000D01*
X118343733Y-66400348D01*
X118343725Y-66400350D01*
X118152641Y-66479500D01*
X118152631Y-66479505D01*
X118104932Y-66511377D01*
X118104932Y-66511378D01*
X118520591Y-66927037D01*
X118457007Y-66944075D01*
X118342993Y-67009901D01*
X118249901Y-67102993D01*
X118184075Y-67217007D01*
X118167037Y-67280591D01*
X117751377Y-66864931D01*
X117751097Y-66864959D01*
X117682451Y-66851939D01*
X117651264Y-66829237D01*
X115377611Y-64555584D01*
X115186534Y-64416757D01*
X114976096Y-64309533D01*
X114751468Y-64236546D01*
X114518197Y-64199600D01*
X114518192Y-64199600D01*
X112574000Y-64199600D01*
X112506961Y-64179915D01*
X112461206Y-64127111D01*
X112450000Y-64075600D01*
X112450000Y-64000297D01*
X117600000Y-64000297D01*
X117600000Y-64620000D01*
X118216988Y-64620000D01*
X118184075Y-64677007D01*
X118150000Y-64804174D01*
X118150000Y-64935826D01*
X118184075Y-65062993D01*
X118216988Y-65120000D01*
X117600000Y-65120000D01*
X117600000Y-65739702D01*
X117611602Y-65798033D01*
X117611603Y-65798034D01*
X117655808Y-65864191D01*
X117721965Y-65908396D01*
X117721966Y-65908397D01*
X117780297Y-65919999D01*
X117780301Y-65920000D01*
X118400000Y-65920000D01*
X118400000Y-65303012D01*
X118457007Y-65335925D01*
X118584174Y-65370000D01*
X118715826Y-65370000D01*
X118842993Y-65335925D01*
X118900000Y-65303012D01*
X118900000Y-65920000D01*
X119519699Y-65920000D01*
X119519702Y-65919999D01*
X119578033Y-65908397D01*
X119578034Y-65908396D01*
X119644191Y-65864191D01*
X119688396Y-65798034D01*
X119688397Y-65798033D01*
X119699999Y-65739702D01*
X119700000Y-65739699D01*
X119700000Y-65120000D01*
X119083012Y-65120000D01*
X119115925Y-65062993D01*
X119150000Y-64935826D01*
X119150000Y-64804174D01*
X119115925Y-64677007D01*
X119083012Y-64620000D01*
X119700000Y-64620000D01*
X119700000Y-64000301D01*
X119699999Y-64000297D01*
X119688397Y-63941966D01*
X119688396Y-63941965D01*
X119644191Y-63875808D01*
X119578034Y-63831603D01*
X119578033Y-63831602D01*
X119519702Y-63820000D01*
X118900000Y-63820000D01*
X118900000Y-64436988D01*
X118842993Y-64404075D01*
X118715826Y-64370000D01*
X118584174Y-64370000D01*
X118457007Y-64404075D01*
X118400000Y-64436988D01*
X118400000Y-63820000D01*
X117780297Y-63820000D01*
X117721966Y-63831602D01*
X117721965Y-63831603D01*
X117655808Y-63875808D01*
X117611603Y-63941965D01*
X117611602Y-63941966D01*
X117600000Y-64000297D01*
X112450000Y-64000297D01*
X112450000Y-63780301D01*
X112449999Y-63780297D01*
X112438397Y-63721966D01*
X112438396Y-63721965D01*
X112402900Y-63668841D01*
X112382022Y-63602163D01*
X112400507Y-63534783D01*
X112402900Y-63531059D01*
X112438396Y-63477934D01*
X112438397Y-63477933D01*
X112449999Y-63419602D01*
X112450000Y-63419599D01*
X112450000Y-63149900D01*
X111350000Y-63149900D01*
X111350000Y-64075500D01*
X111330315Y-64142539D01*
X111277511Y-64188294D01*
X111226000Y-64199500D01*
X110974000Y-64199500D01*
X110906961Y-64179815D01*
X110861206Y-64127011D01*
X110850000Y-64075500D01*
X110850000Y-63149900D01*
X109750000Y-63149900D01*
X109750000Y-63419602D01*
X109761602Y-63477933D01*
X109761603Y-63477934D01*
X109797100Y-63531060D01*
X109817977Y-63597738D01*
X109799492Y-63665118D01*
X109797100Y-63668840D01*
X109761603Y-63721965D01*
X109761602Y-63721966D01*
X109750000Y-63780297D01*
X109750000Y-64123079D01*
X109730315Y-64190118D01*
X109677511Y-64235873D01*
X109660113Y-64242294D01*
X109576956Y-64266088D01*
X109493787Y-64309532D01*
X109396593Y-64360302D01*
X109396591Y-64360303D01*
X109396590Y-64360304D01*
X109238890Y-64488890D01*
X109110304Y-64646590D01*
X109016089Y-64826954D01*
X108984938Y-64935826D01*
X108961795Y-65016709D01*
X108960114Y-65022583D01*
X108960113Y-65022586D01*
X108949500Y-65141966D01*
X108949500Y-66258028D01*
X108949500Y-66258033D01*
X108949501Y-66258036D01*
X108950868Y-66273412D01*
X108960113Y-66377415D01*
X109016089Y-66573045D01*
X109016090Y-66573048D01*
X109016091Y-66573049D01*
X109110302Y-66753407D01*
X109110304Y-66753409D01*
X109238890Y-66911109D01*
X109352626Y-67003848D01*
X109392143Y-67061469D01*
X109394235Y-67131307D01*
X109358237Y-67191190D01*
X109352626Y-67196052D01*
X109238890Y-67288790D01*
X109110304Y-67446490D01*
X109016089Y-67626854D01*
X108990294Y-67717007D01*
X108961809Y-67816560D01*
X108960114Y-67822483D01*
X108960113Y-67822486D01*
X108949500Y-67941866D01*
X108949500Y-69057928D01*
X108949501Y-69057934D01*
X108960636Y-69183190D01*
X108960102Y-69183237D01*
X108960103Y-69216563D01*
X108960636Y-69216611D01*
X108949500Y-69341866D01*
X108949500Y-70457928D01*
X108949501Y-70457934D01*
X108960636Y-70583189D01*
X108960113Y-70583235D01*
X108960113Y-70616664D01*
X108960636Y-70616711D01*
X108949500Y-70741966D01*
X108949500Y-71858028D01*
X108949501Y-71858034D01*
X108960636Y-71983290D01*
X108960102Y-71983337D01*
X108960103Y-72016663D01*
X108960636Y-72016711D01*
X108960114Y-72022581D01*
X108960114Y-72022582D01*
X108950723Y-72128214D01*
X108949500Y-72141966D01*
X108949500Y-72825300D01*
X108929815Y-72892339D01*
X108877011Y-72938094D01*
X108825500Y-72949300D01*
X107742371Y-72949300D01*
X107742365Y-72949300D01*
X107742364Y-72949301D01*
X107731511Y-72950265D01*
X107622972Y-72959914D01*
X107622891Y-72959930D01*
X107622802Y-72959930D01*
X107617110Y-72960436D01*
X107617065Y-72959930D01*
X107583435Y-72959930D01*
X107583390Y-72960436D01*
X107577699Y-72959930D01*
X107577605Y-72959930D01*
X107577519Y-72959914D01*
X107557621Y-72958145D01*
X107458137Y-72949300D01*
X107458132Y-72949300D01*
X106342071Y-72949300D01*
X106342065Y-72949300D01*
X106342064Y-72949301D01*
X106222682Y-72959914D01*
X106222681Y-72959914D01*
X106216811Y-72960436D01*
X106216764Y-72959913D01*
X106183335Y-72959913D01*
X106183289Y-72960436D01*
X106177418Y-72959914D01*
X106058037Y-72949300D01*
X106058032Y-72949300D01*
X104941971Y-72949300D01*
X104941965Y-72949300D01*
X104941964Y-72949301D01*
X104867453Y-72955925D01*
X104816710Y-72960436D01*
X104816663Y-72959903D01*
X104783336Y-72959903D01*
X104783289Y-72960436D01*
X104777418Y-72959914D01*
X104658037Y-72949300D01*
X104658032Y-72949300D01*
X103541971Y-72949300D01*
X103541965Y-72949300D01*
X103541964Y-72949301D01*
X103422582Y-72959914D01*
X103422581Y-72959914D01*
X103416711Y-72960436D01*
X103416664Y-72959913D01*
X103383235Y-72959913D01*
X103383189Y-72960436D01*
X103377318Y-72959914D01*
X103257937Y-72949300D01*
X103257932Y-72949300D01*
X102141871Y-72949300D01*
X102141865Y-72949300D01*
X102141864Y-72949301D01*
X102022482Y-72959914D01*
X102022481Y-72959914D01*
X102016611Y-72960436D01*
X102016559Y-72959855D01*
X101983740Y-72959855D01*
X101983689Y-72960436D01*
X101977818Y-72959914D01*
X101858437Y-72949300D01*
X101858432Y-72949300D01*
X100742371Y-72949300D01*
X100742365Y-72949300D01*
X100742364Y-72949301D01*
X100731511Y-72950265D01*
X100622972Y-72959914D01*
X100622891Y-72959930D01*
X100622802Y-72959930D01*
X100617110Y-72960436D01*
X100617065Y-72959930D01*
X100583435Y-72959930D01*
X100583390Y-72960436D01*
X100577699Y-72959930D01*
X100577605Y-72959930D01*
X100577519Y-72959914D01*
X100549197Y-72957396D01*
X100458137Y-72949300D01*
X100458133Y-72949300D01*
X100115910Y-72949300D01*
X100048871Y-72929615D01*
X100003116Y-72876811D01*
X99993172Y-72807653D01*
X100022197Y-72744097D01*
X100058497Y-72715392D01*
X100203407Y-72639698D01*
X100361109Y-72511109D01*
X100489698Y-72353407D01*
X100583909Y-72173049D01*
X100639886Y-71977418D01*
X100650500Y-71858037D01*
X100650499Y-70741964D01*
X100639886Y-70622582D01*
X100639885Y-70622581D01*
X100639364Y-70616710D01*
X100639890Y-70616663D01*
X100639890Y-70583236D01*
X100639364Y-70583190D01*
X100642661Y-70546104D01*
X100650500Y-70457937D01*
X100650499Y-69341864D01*
X100639886Y-69222482D01*
X100639364Y-69216609D01*
X100639901Y-69216561D01*
X100639901Y-69183238D01*
X100639364Y-69183191D01*
X100644111Y-69129794D01*
X100650500Y-69057937D01*
X100650499Y-67941864D01*
X100639886Y-67822482D01*
X100639885Y-67822481D01*
X100639364Y-67816610D01*
X100639920Y-67816560D01*
X100639920Y-67783439D01*
X100639364Y-67783390D01*
X100640396Y-67771785D01*
X100650500Y-67658137D01*
X100650499Y-66542064D01*
X100639886Y-66422682D01*
X100639885Y-66422681D01*
X100639364Y-66416810D01*
X100639890Y-66416763D01*
X100639890Y-66383336D01*
X100639364Y-66383290D01*
X100639921Y-66377021D01*
X100650500Y-66258037D01*
X100650499Y-65141964D01*
X100639886Y-65022582D01*
X100639364Y-65016709D01*
X100639901Y-65016661D01*
X100639901Y-64983338D01*
X100639364Y-64983291D01*
X100640541Y-64970043D01*
X100650500Y-64858037D01*
X100650499Y-63741964D01*
X100639886Y-63622582D01*
X100639885Y-63622581D01*
X100639364Y-63616710D01*
X100639890Y-63616663D01*
X100639890Y-63583236D01*
X100639364Y-63583190D01*
X100639921Y-63576921D01*
X100650500Y-63457937D01*
X100650499Y-62380197D01*
X109750000Y-62380197D01*
X109750000Y-62649900D01*
X110850000Y-62649900D01*
X111350000Y-62649900D01*
X112450000Y-62649900D01*
X112450000Y-62380201D01*
X112449999Y-62380197D01*
X112438397Y-62321866D01*
X112438396Y-62321865D01*
X112394191Y-62255708D01*
X112328034Y-62211503D01*
X112328033Y-62211502D01*
X112269702Y-62199900D01*
X111350000Y-62199900D01*
X111350000Y-62649900D01*
X110850000Y-62649900D01*
X110850000Y-62199900D01*
X109930297Y-62199900D01*
X109871966Y-62211502D01*
X109871965Y-62211503D01*
X109805808Y-62255708D01*
X109761603Y-62321865D01*
X109761602Y-62321866D01*
X109750000Y-62380197D01*
X100650499Y-62380197D01*
X100650499Y-62341864D01*
X100639886Y-62222482D01*
X100584851Y-62030143D01*
X100585334Y-61960277D01*
X100623514Y-61901761D01*
X100687269Y-61873176D01*
X100704306Y-61872034D01*
X120970756Y-61913795D01*
X121037754Y-61933618D01*
X121083400Y-61986516D01*
X121094500Y-62037795D01*
X121094500Y-94845500D01*
X121074815Y-94912539D01*
X121022011Y-94958294D01*
X120970500Y-94969500D01*
X88289500Y-94969500D01*
X88222461Y-94949815D01*
X88176706Y-94897011D01*
X88165500Y-94845500D01*
X88165500Y-61970452D01*
X88185185Y-61903413D01*
X88237989Y-61857658D01*
X88289751Y-61846452D01*
X91306201Y-61852668D01*
G37*
%TD.AperFunction*%
%TA.AperFunction,Conductor*%
G36*
X117446683Y-84061034D02*
G01*
X117462742Y-84071490D01*
X117619711Y-84191936D01*
X117829788Y-84313224D01*
X118053900Y-84406054D01*
X118248171Y-84458109D01*
X118303756Y-84490202D01*
X118520591Y-84707037D01*
X118457007Y-84724075D01*
X118342993Y-84789901D01*
X118249901Y-84882993D01*
X118184075Y-84997007D01*
X118167037Y-85060591D01*
X117751378Y-84644931D01*
X117751098Y-84644959D01*
X117682452Y-84631939D01*
X117651265Y-84609237D01*
X117299575Y-84257547D01*
X117266090Y-84196224D01*
X117271074Y-84126532D01*
X117312946Y-84070599D01*
X117378410Y-84046182D01*
X117446683Y-84061034D01*
G37*
%TD.AperFunction*%
%TA.AperFunction,Conductor*%
G36*
X110314409Y-76451009D02*
G01*
X110356692Y-76478719D01*
X116792513Y-82914540D01*
X116825998Y-82975863D01*
X116827771Y-82986034D01*
X116831162Y-83011789D01*
X116867488Y-83147359D01*
X116893947Y-83246104D01*
X116971753Y-83433944D01*
X116986776Y-83470212D01*
X117108064Y-83680289D01*
X117108066Y-83680292D01*
X117108067Y-83680293D01*
X117228509Y-83837257D01*
X117253703Y-83902426D01*
X117239665Y-83970871D01*
X117190850Y-84020860D01*
X117122759Y-84036524D01*
X117057009Y-84012887D01*
X117042452Y-84000424D01*
X109837219Y-76795191D01*
X109803734Y-76733868D01*
X109800900Y-76707510D01*
X109800900Y-76573800D01*
X109820585Y-76506761D01*
X109873389Y-76461006D01*
X109924900Y-76449800D01*
X110219598Y-76449800D01*
X110244818Y-76444783D01*
X110314409Y-76451009D01*
G37*
%TD.AperFunction*%
%TA.AperFunction,Conductor*%
G36*
X92030866Y-81520337D02*
G01*
X92080856Y-81569151D01*
X92096520Y-81637242D01*
X92072883Y-81702993D01*
X92060420Y-81717550D01*
X91708733Y-82069237D01*
X91647410Y-82102722D01*
X91608900Y-82104959D01*
X91608620Y-82104931D01*
X91192962Y-82520590D01*
X91175925Y-82457007D01*
X91110099Y-82342993D01*
X91017007Y-82249901D01*
X90902993Y-82184075D01*
X90839406Y-82167036D01*
X91056241Y-81950202D01*
X91111826Y-81918109D01*
X91306100Y-81866054D01*
X91530212Y-81773224D01*
X91740289Y-81651936D01*
X91897255Y-81531491D01*
X91962422Y-81506299D01*
X92030866Y-81520337D01*
G37*
%TD.AperFunction*%
%TA.AperFunction,Conductor*%
G36*
X98420887Y-73419685D02*
G01*
X98466642Y-73472489D01*
X98476586Y-73541647D01*
X98467299Y-73570425D01*
X98468522Y-73570914D01*
X98466192Y-73576746D01*
X98410214Y-73772383D01*
X98410213Y-73772386D01*
X98399600Y-73891766D01*
X98399600Y-75327010D01*
X98379915Y-75394049D01*
X98363281Y-75414691D01*
X92317550Y-81460420D01*
X92256227Y-81493905D01*
X92186535Y-81488921D01*
X92130602Y-81447049D01*
X92106185Y-81381585D01*
X92121037Y-81313312D01*
X92131485Y-81297263D01*
X92251936Y-81140289D01*
X92373224Y-80930212D01*
X92435523Y-80779806D01*
X92463567Y-80738430D01*
X92874130Y-80338595D01*
X92874800Y-80337942D01*
X97386762Y-75936402D01*
X97411343Y-75917781D01*
X97441253Y-75900514D01*
X97600088Y-75762882D01*
X97730006Y-75597678D01*
X97826311Y-75410873D01*
X97885522Y-75209217D01*
X97905500Y-75000000D01*
X97905500Y-73524000D01*
X97925185Y-73456961D01*
X97977989Y-73411206D01*
X98029500Y-73400000D01*
X98353848Y-73400000D01*
X98420887Y-73419685D01*
G37*
%TD.AperFunction*%
%TD*%
M02*
