%TF.GenerationSoftware,KiCad,Pcbnew,10.0.1*%
%TF.CreationDate,2026-05-07T09:10:15-05:00*%
%TF.ProjectId,Esclavo,4573636c-6176-46f2-9e6b-696361645f70,rev?*%
%TF.SameCoordinates,Original*%
%TF.FileFunction,Copper,L2,Bot*%
%TF.FilePolarity,Positive*%
%FSLAX46Y46*%
G04 Gerber Fmt 4.6, Leading zero omitted, Abs format (unit mm)*
G04 Created by KiCad (PCBNEW 10.0.1) date 2026-05-07 09:10:15*
%MOMM*%
%LPD*%
G01*
G04 APERTURE LIST*
G04 Aperture macros list*
%AMRoundRect*
0 Rectangle with rounded corners*
0 $1 Rounding radius*
0 $2 $3 $4 $5 $6 $7 $8 $9 X,Y pos of 4 corners*
0 Add a 4 corners polygon primitive as box body*
4,1,4,$2,$3,$4,$5,$6,$7,$8,$9,$2,$3,0*
0 Add four circle primitives for the rounded corners*
1,1,$1+$1,$2,$3*
1,1,$1+$1,$4,$5*
1,1,$1+$1,$6,$7*
1,1,$1+$1,$8,$9*
0 Add four rect primitives between the rounded corners*
20,1,$1+$1,$2,$3,$4,$5,0*
20,1,$1+$1,$4,$5,$6,$7,0*
20,1,$1+$1,$6,$7,$8,$9,0*
20,1,$1+$1,$8,$9,$2,$3,0*%
G04 Aperture macros list end*
%TA.AperFunction,ComponentPad*%
%ADD10C,1.700000*%
%TD*%
%TA.AperFunction,ComponentPad*%
%ADD11R,1.700000X1.700000*%
%TD*%
%TA.AperFunction,ComponentPad*%
%ADD12RoundRect,0.250000X0.550000X0.550000X-0.550000X0.550000X-0.550000X-0.550000X0.550000X-0.550000X0*%
%TD*%
%TA.AperFunction,ComponentPad*%
%ADD13C,1.600000*%
%TD*%
%TA.AperFunction,ComponentPad*%
%ADD14RoundRect,0.250000X1.050000X1.050000X-1.050000X1.050000X-1.050000X-1.050000X1.050000X-1.050000X0*%
%TD*%
%TA.AperFunction,ComponentPad*%
%ADD15C,2.600000*%
%TD*%
%TA.AperFunction,ComponentPad*%
%ADD16RoundRect,0.250000X1.050000X-1.050000X1.050000X1.050000X-1.050000X1.050000X-1.050000X-1.050000X0*%
%TD*%
%TA.AperFunction,Conductor*%
%ADD17C,1.800000*%
%TD*%
G04 APERTURE END LIST*
D10*
%TO.P,J16,2,Pin_2_2*%
%TO.N,Net-(J15-Pin_1)*%
X107070000Y-44300000D03*
D11*
%TO.P,J16,1,Pin_1_1*%
%TO.N,Net-(J14-Pin_1)*%
X104530000Y-44300000D03*
%TD*%
%TO.P,J9,1,Pin_1_1*%
%TO.N,GND*%
X96215000Y-123220000D03*
%TD*%
%TO.P,J8,1,Pin_1_1*%
%TO.N,IN+*%
X114040000Y-82220000D03*
%TD*%
%TO.P,J7,1,Pin_1_1*%
%TO.N,IN-*%
X96215000Y-82520000D03*
%TD*%
%TO.P,J10,1,Pin_1_1*%
%TO.N,OUT+*%
X114015000Y-123120000D03*
%TD*%
D10*
%TO.P,J12,2,Pin_2_2*%
%TO.N,B-*%
X102320000Y-71990000D03*
D11*
%TO.P,J12,1,Pin_1_1*%
%TO.N,IN-*%
X99780000Y-71990000D03*
%TD*%
D10*
%TO.P,J13,2,Pin_2_2*%
%TO.N,IN+*%
X112490000Y-71990000D03*
D11*
%TO.P,J13,1,Pin_1_1*%
%TO.N,B+*%
X109950000Y-71990000D03*
%TD*%
%TO.P,J14,1,Pin_1_1*%
%TO.N,Net-(J14-Pin_1)*%
X99770000Y-49200000D03*
%TD*%
%TO.P,J15,1,Pin_1_1*%
%TO.N,Net-(J15-Pin_1)*%
X112150000Y-49450000D03*
%TD*%
D12*
%TO.P,C3,1*%
%TO.N,Net-(J5-Pin_6)*%
X124500000Y-79650000D03*
D13*
%TO.P,C3,2*%
%TO.N,GND*%
X122000000Y-79650000D03*
%TD*%
D11*
%TO.P,J1,1,Pin_1_1*%
%TO.N,EN*%
X136410000Y-93000000D03*
D10*
%TO.P,J1,2,Pin_2_2*%
%TO.N,VP*%
X136410000Y-95540000D03*
%TO.P,J1,3,Pin_3_3*%
%TO.N,VN*%
X136410000Y-98080000D03*
%TO.P,J1,4,Pin_4_4*%
%TO.N,D34*%
X136410000Y-100620000D03*
%TO.P,J1,5,Pin_5_5*%
%TO.N,D35*%
X136410000Y-103160000D03*
%TO.P,J1,6,Pin_6_6*%
%TO.N,D32*%
X136410000Y-105700000D03*
%TO.P,J1,7,Pin_7_7*%
%TO.N,D33*%
X136410000Y-108240000D03*
%TO.P,J1,8,Pin_8_8*%
%TO.N,D25*%
X136410000Y-110780000D03*
%TO.P,J1,9,Pin_9_9*%
%TO.N,D26*%
X136410000Y-113320000D03*
%TO.P,J1,10,Pin_10_10*%
%TO.N,D27*%
X136410000Y-115860000D03*
%TO.P,J1,11,Pin_11_11*%
%TO.N,D14*%
X136410000Y-118400000D03*
%TO.P,J1,12,Pin_12_12*%
%TO.N,D12*%
X136410000Y-120940000D03*
%TO.P,J1,13,Pin_13_13*%
%TO.N,D13*%
X136410000Y-123480000D03*
%TO.P,J1,14,Pin_14_14*%
%TO.N,GND*%
X136410000Y-126020000D03*
%TO.P,J1,15,Pin_15_15*%
%TO.N,OUT+*%
X136410000Y-128560000D03*
%TD*%
%TO.P,J2,15,Pin_15_15*%
%TO.N,3V3*%
X161810000Y-128560000D03*
%TO.P,J2,14,Pin_14_14*%
%TO.N,GND*%
X161810000Y-126020000D03*
%TO.P,J2,13,Pin_13_13*%
%TO.N,D15*%
X161810000Y-123480000D03*
%TO.P,J2,12,Pin_12_12*%
%TO.N,D2*%
X161810000Y-120940000D03*
%TO.P,J2,11,Pin_11_11*%
%TO.N,D4*%
X161810000Y-118400000D03*
%TO.P,J2,10,Pin_10_10*%
%TO.N,D16*%
X161810000Y-115860000D03*
%TO.P,J2,9,Pin_9_9*%
%TO.N,D17*%
X161810000Y-113320000D03*
%TO.P,J2,8,Pin_8_8*%
%TO.N,D5*%
X161810000Y-110780000D03*
%TO.P,J2,7,Pin_7_7*%
%TO.N,D18*%
X161810000Y-108240000D03*
%TO.P,J2,6,Pin_6_6*%
%TO.N,D19*%
X161810000Y-105700000D03*
%TO.P,J2,5,Pin_5_5*%
%TO.N,D21*%
X161810000Y-103160000D03*
%TO.P,J2,4,Pin_4_4*%
%TO.N,RX0*%
X161810000Y-100620000D03*
%TO.P,J2,3,Pin_3_3*%
%TO.N,TX0*%
X161810000Y-98080000D03*
%TO.P,J2,2,Pin_2_2*%
%TO.N,D22*%
X161810000Y-95540000D03*
D11*
%TO.P,J2,1,Pin_1_1*%
%TO.N,D23*%
X161810000Y-93000000D03*
%TD*%
D10*
%TO.P,J5,12,Pin_12_12*%
%TO.N,unconnected-(J5-Pin_12-Pad12)*%
X135610000Y-80060000D03*
%TO.P,J5,11,Pin_11_11*%
%TO.N,unconnected-(J5-Pin_11-Pad11)*%
X135610000Y-77520000D03*
%TO.P,J5,10,Pin_10_10*%
%TO.N,unconnected-(J5-Pin_10-Pad10)*%
X135610000Y-74980000D03*
%TO.P,J5,9,Pin_9_9*%
%TO.N,Net-(J5-Pin_9)*%
X135610000Y-72440000D03*
%TO.P,J5,8,Pin_8_8*%
%TO.N,GND*%
X135610000Y-69900000D03*
%TO.P,J5,7,Pin_7_7*%
%TO.N,Net-(J5-Pin_7)*%
X135610000Y-67360000D03*
%TO.P,J5,6,Pin_6_6*%
%TO.N,Net-(J5-Pin_6)*%
X135610000Y-64820000D03*
%TO.P,J5,5,Pin_5_5*%
%TO.N,3V3*%
X135610000Y-62280000D03*
%TO.P,J5,4,Pin_4_4*%
%TO.N,unconnected-(J5-Pin_4-Pad4)*%
X135610000Y-59740000D03*
%TO.P,J5,3,Pin_3_3*%
%TO.N,Net-(J5-Pin_3)*%
X135610000Y-57200000D03*
%TO.P,J5,2,Pin_2_2*%
%TO.N,unconnected-(J5-Pin_2-Pad2)*%
X135610000Y-54660000D03*
D11*
%TO.P,J5,1,Pin_1_1*%
%TO.N,unconnected-(J5-Pin_1-Pad1)*%
X135610000Y-52120000D03*
%TD*%
D10*
%TO.P,J6,12,Pin_12_12*%
%TO.N,unconnected-(J6-Pin_12-Pad12)*%
X163510000Y-80060000D03*
%TO.P,J6,11,Pin_11_11*%
%TO.N,unconnected-(J6-Pin_11-Pad11)*%
X163510000Y-77520000D03*
%TO.P,J6,10,Pin_10_10*%
%TO.N,unconnected-(J6-Pin_10-Pad10)*%
X163510000Y-74980000D03*
%TO.P,J6,9,Pin_9_9*%
%TO.N,unconnected-(J6-Pin_9-Pad9)*%
X163510000Y-72440000D03*
%TO.P,J6,8,Pin_8_8*%
%TO.N,D4*%
X163510000Y-69900000D03*
%TO.P,J6,7,Pin_7_7*%
%TO.N,D23*%
X163510000Y-67360000D03*
%TO.P,J6,6,Pin_6_6*%
%TO.N,D19*%
X163510000Y-64820000D03*
%TO.P,J6,5,Pin_5_5*%
%TO.N,D18*%
X163510000Y-62280000D03*
%TO.P,J6,4,Pin_4_4*%
%TO.N,unconnected-(J6-Pin_4-Pad4)*%
X163510000Y-59740000D03*
%TO.P,J6,3,Pin_3_3*%
%TO.N,D34*%
X163510000Y-57200000D03*
%TO.P,J6,2,Pin_2_2*%
%TO.N,unconnected-(J6-Pin_2-Pad2)*%
X163510000Y-54660000D03*
D11*
%TO.P,J6,1,Pin_1_1*%
%TO.N,GND*%
X163510000Y-52120000D03*
%TD*%
D13*
%TO.P,C2,2*%
%TO.N,GND*%
X122000000Y-72580000D03*
D12*
%TO.P,C2,1*%
%TO.N,Net-(J5-Pin_6)*%
X124500000Y-72580000D03*
%TD*%
D13*
%TO.P,C1,2*%
%TO.N,GND*%
X122000000Y-65930000D03*
D12*
%TO.P,C1,1*%
%TO.N,Net-(J5-Pin_6)*%
X124500000Y-65930000D03*
%TD*%
D14*
%TO.P,J11,1,Pin_1_1*%
%TO.N,B+*%
X126390000Y-51080000D03*
D15*
%TO.P,J11,2,Pin_2_2*%
%TO.N,B-*%
X121310000Y-51080000D03*
%TD*%
D16*
%TO.P,J4,1,Pin_1_1*%
%TO.N,D16*%
X169850000Y-103800000D03*
D15*
%TO.P,J4,2,Pin_2_2*%
%TO.N,Net-(J4-Pin_2)*%
X169850000Y-98720000D03*
%TD*%
D13*
%TO.P,R7,1*%
%TO.N,GND*%
X177130000Y-95940000D03*
%TO.P,R7,2*%
%TO.N,D2*%
X177130000Y-106100000D03*
%TD*%
%TO.P,R6,1*%
%TO.N,Net-(J3-Pin_3)*%
X177050000Y-120400000D03*
%TO.P,R6,2*%
%TO.N,D2*%
X177050000Y-110240000D03*
%TD*%
%TO.P,R5,1*%
%TO.N,Net-(J5-Pin_7)*%
X129770000Y-67320000D03*
%TO.P,R5,2*%
%TO.N,Net-(J5-Pin_9)*%
X129770000Y-77480000D03*
%TD*%
%TO.P,R4,1*%
%TO.N,Net-(J5-Pin_3)*%
X142650000Y-95840000D03*
%TO.P,R4,2*%
%TO.N,D27*%
X142650000Y-106000000D03*
%TD*%
%TO.P,R3,1*%
%TO.N,3V3*%
X177930000Y-87150000D03*
%TO.P,R3,2*%
%TO.N,D4*%
X167770000Y-87150000D03*
%TD*%
%TO.P,R1,1*%
%TO.N,Net-(J4-Pin_2)*%
X167870000Y-91340000D03*
%TO.P,R1,2*%
%TO.N,GND*%
X178030000Y-91340000D03*
%TD*%
D16*
%TO.P,J3,1,Pin_1_1*%
%TO.N,3V3*%
X185810000Y-127960000D03*
D15*
%TO.P,J3,2,Pin_2_2*%
%TO.N,D15*%
X185810000Y-122880000D03*
%TO.P,J3,3,Pin_3_3*%
%TO.N,Net-(J3-Pin_3)*%
X185810000Y-117800000D03*
%TO.P,J3,4,Pin_4_4*%
%TO.N,GND*%
X185810000Y-112720000D03*
%TD*%
D13*
%TO.P,R2,1*%
%TO.N,GND*%
X146800000Y-52020000D03*
%TO.P,R2,2*%
%TO.N,D34*%
X146800000Y-62180000D03*
%TD*%
%TO.N,Net-(J15-Pin_1)*%
D17*
X107070000Y-44370000D02*
X112150000Y-49450000D01*
X107070000Y-44300000D02*
X107070000Y-44370000D01*
%TO.N,Net-(J14-Pin_1)*%
X99770000Y-49060000D02*
X104530000Y-44300000D01*
X99770000Y-49200000D02*
X99770000Y-49060000D01*
%TO.N,IN-*%
X99780000Y-78955000D02*
X96215000Y-82520000D01*
X99780000Y-71990000D02*
X99780000Y-78955000D01*
%TO.N,IN+*%
X112490000Y-71990000D02*
X112490000Y-80670000D01*
X112490000Y-80670000D02*
X114040000Y-82220000D01*
%TO.N,OUT+*%
X119455000Y-128560000D02*
X136410000Y-128560000D01*
X114015000Y-123120000D02*
X119455000Y-128560000D01*
%TO.N,D19*%
X153650000Y-68700000D02*
X153650000Y-100690000D01*
X153650000Y-100690000D02*
X158660000Y-105700000D01*
X157530000Y-64820000D02*
X153650000Y-68700000D01*
X163510000Y-64820000D02*
X157530000Y-64820000D01*
X158660000Y-105700000D02*
X161810000Y-105700000D01*
%TO.N,D23*%
X160540000Y-93000000D02*
X161810000Y-93000000D01*
X157210000Y-89670000D02*
X160540000Y-93000000D01*
X157210000Y-70630000D02*
X157210000Y-89670000D01*
X160480000Y-67360000D02*
X157210000Y-70630000D01*
X163510000Y-67360000D02*
X160480000Y-67360000D01*
%TO.N,D18*%
X157140000Y-108240000D02*
X161810000Y-108240000D01*
X150030000Y-66670000D02*
X150030000Y-101130000D01*
X154420000Y-62280000D02*
X150030000Y-66670000D01*
X150030000Y-101130000D02*
X157140000Y-108240000D01*
X163510000Y-62280000D02*
X154420000Y-62280000D01*
%TO.N,3V3*%
X189480000Y-98700000D02*
X189480000Y-124290000D01*
X189480000Y-124290000D02*
X185810000Y-127960000D01*
X177930000Y-87150000D02*
X189480000Y-98700000D01*
X170660000Y-47130000D02*
X177930000Y-54400000D01*
X177930000Y-54400000D02*
X177930000Y-87150000D01*
X131260000Y-47130000D02*
X170660000Y-47130000D01*
X134407919Y-62280000D02*
X131260000Y-59132081D01*
X131260000Y-59132081D02*
X131260000Y-47130000D01*
X135610000Y-62280000D02*
X134407919Y-62280000D01*
%TO.N,D4*%
X174210000Y-112150000D02*
X167960000Y-118400000D01*
X174210000Y-93590000D02*
X174210000Y-112150000D01*
X167960000Y-118400000D02*
X161810000Y-118400000D01*
X167770000Y-87150000D02*
X174210000Y-93590000D01*
X167770000Y-72957919D02*
X167770000Y-87150000D01*
X163510000Y-69900000D02*
X164712081Y-69900000D01*
X164712081Y-69900000D02*
X167770000Y-72957919D01*
%TO.N,D34*%
X151780000Y-57200000D02*
X146800000Y-62180000D01*
X163510000Y-57200000D02*
X151780000Y-57200000D01*
X146800000Y-65640000D02*
X146740000Y-65700000D01*
X146800000Y-62180000D02*
X146800000Y-65640000D01*
%TO.N,GND*%
X146900000Y-52120000D02*
X146800000Y-52020000D01*
X163510000Y-52120000D02*
X146900000Y-52120000D01*
%TO.N,OUT+*%
X136350000Y-128500000D02*
X136410000Y-128560000D01*
%TO.N,B+*%
X112830000Y-56170000D02*
X109950000Y-59050000D01*
X121300000Y-56170000D02*
X112830000Y-56170000D01*
X126390000Y-51080000D02*
X121300000Y-56170000D01*
X109950000Y-59050000D02*
X109950000Y-71990000D01*
%TO.N,B-*%
X102320000Y-59060000D02*
X102320000Y-71990000D01*
X108320000Y-53060000D02*
X102320000Y-59060000D01*
X119330000Y-53060000D02*
X108320000Y-53060000D01*
X121310000Y-51080000D02*
X119330000Y-53060000D01*
%TO.N,Net-(J5-Pin_6)*%
X124500000Y-79650000D02*
X124500000Y-72580000D01*
X124500000Y-72580000D02*
X124500000Y-65930000D01*
X125610000Y-64820000D02*
X124500000Y-65930000D01*
X135610000Y-64820000D02*
X125610000Y-64820000D01*
%TO.N,Net-(J5-Pin_9)*%
X134810000Y-72440000D02*
X135610000Y-72440000D01*
X129770000Y-77480000D02*
X134810000Y-72440000D01*
%TO.N,Net-(J5-Pin_7)*%
X129810000Y-67360000D02*
X129770000Y-67320000D01*
X135610000Y-67360000D02*
X129810000Y-67360000D01*
%TO.N,Net-(J5-Pin_6)*%
X124540000Y-65970000D02*
X124500000Y-65930000D01*
%TO.N,Net-(J5-Pin_3)*%
X139130000Y-57200000D02*
X135610000Y-57200000D01*
X142650000Y-95840000D02*
X142650000Y-60720000D01*
X142650000Y-60720000D02*
X139130000Y-57200000D01*
%TO.N,Net-(J3-Pin_3)*%
X183210000Y-120400000D02*
X185810000Y-117800000D01*
X177050000Y-120400000D02*
X183210000Y-120400000D01*
%TO.N,D15*%
X185210000Y-123480000D02*
X185810000Y-122880000D01*
X161810000Y-123480000D02*
X185210000Y-123480000D01*
%TO.N,3V3*%
X185210000Y-128560000D02*
X185810000Y-127960000D01*
X161810000Y-128560000D02*
X185210000Y-128560000D01*
%TO.N,D16*%
X169850000Y-110870000D02*
X169850000Y-103800000D01*
X169970000Y-110990000D02*
X169850000Y-110870000D01*
X165100000Y-115860000D02*
X169970000Y-110990000D01*
X161810000Y-115860000D02*
X165100000Y-115860000D01*
%TO.N,D2*%
X177130000Y-110160000D02*
X177050000Y-110240000D01*
X177130000Y-106100000D02*
X177130000Y-110160000D01*
X177050000Y-113720000D02*
X177050000Y-110240000D01*
X169830000Y-120940000D02*
X177050000Y-113720000D01*
X161810000Y-120940000D02*
X169830000Y-120940000D01*
%TO.N,Net-(J4-Pin_2)*%
X167870000Y-95960000D02*
X167870000Y-91340000D01*
X168010000Y-96100000D02*
X167870000Y-95960000D01*
X168010000Y-96880000D02*
X168010000Y-96100000D01*
X169850000Y-98720000D02*
X168010000Y-96880000D01*
%TO.N,D34*%
X144010000Y-100620000D02*
X136410000Y-100620000D01*
X146740000Y-97890000D02*
X144010000Y-100620000D01*
X146740000Y-65700000D02*
X146740000Y-97890000D01*
%TO.N,D27*%
X139880000Y-115860000D02*
X136410000Y-115860000D01*
X142650000Y-113090000D02*
X139880000Y-115860000D01*
X142650000Y-106000000D02*
X142650000Y-113090000D01*
%TD*%
%TA.AperFunction,Conductor*%
%TO.N,GND*%
G36*
X192112539Y-42420185D02*
G01*
X192158294Y-42472989D01*
X192169500Y-42524500D01*
X192169500Y-133165500D01*
X192149815Y-133232539D01*
X192097011Y-133278294D01*
X192045500Y-133289500D01*
X93224500Y-133289500D01*
X93157461Y-133269815D01*
X93111706Y-133217011D01*
X93100500Y-133165500D01*
X93100500Y-122322155D01*
X94865000Y-122322155D01*
X94865000Y-122970000D01*
X95781988Y-122970000D01*
X95749075Y-123027007D01*
X95715000Y-123154174D01*
X95715000Y-123285826D01*
X95749075Y-123412993D01*
X95781988Y-123470000D01*
X94865000Y-123470000D01*
X94865000Y-124117844D01*
X94871401Y-124177372D01*
X94871403Y-124177379D01*
X94921645Y-124312086D01*
X94921649Y-124312093D01*
X95007809Y-124427187D01*
X95007812Y-124427190D01*
X95122906Y-124513350D01*
X95122913Y-124513354D01*
X95257620Y-124563596D01*
X95257627Y-124563598D01*
X95317155Y-124569999D01*
X95317172Y-124570000D01*
X95965000Y-124570000D01*
X95965000Y-123653012D01*
X96022007Y-123685925D01*
X96149174Y-123720000D01*
X96280826Y-123720000D01*
X96407993Y-123685925D01*
X96465000Y-123653012D01*
X96465000Y-124570000D01*
X97112828Y-124570000D01*
X97112844Y-124569999D01*
X97172372Y-124563598D01*
X97172379Y-124563596D01*
X97307086Y-124513354D01*
X97307093Y-124513350D01*
X97422187Y-124427190D01*
X97422190Y-124427187D01*
X97508350Y-124312093D01*
X97508354Y-124312086D01*
X97558596Y-124177379D01*
X97558598Y-124177372D01*
X97564999Y-124117844D01*
X97565000Y-124117827D01*
X97565000Y-123470000D01*
X96648012Y-123470000D01*
X96680925Y-123412993D01*
X96715000Y-123285826D01*
X96715000Y-123154174D01*
X96680925Y-123027007D01*
X96670978Y-123009778D01*
X112614499Y-123009778D01*
X112614499Y-123230222D01*
X112614783Y-123232014D01*
X112648983Y-123447944D01*
X112648985Y-123447952D01*
X112658432Y-123477027D01*
X112664500Y-123515343D01*
X112664500Y-124017870D01*
X112664501Y-124017876D01*
X112670908Y-124077483D01*
X112721202Y-124212328D01*
X112721206Y-124212335D01*
X112807452Y-124327544D01*
X112807455Y-124327547D01*
X112922664Y-124413793D01*
X112922671Y-124413797D01*
X112958572Y-124427187D01*
X113057517Y-124464091D01*
X113117127Y-124470500D01*
X113333530Y-124470499D01*
X113400570Y-124490183D01*
X113421212Y-124506818D01*
X118383632Y-129469238D01*
X118383646Y-129469253D01*
X118386756Y-129472363D01*
X118386758Y-129472365D01*
X118542635Y-129628242D01*
X118542638Y-129628244D01*
X118542642Y-129628248D01*
X118662118Y-129715051D01*
X118720978Y-129757815D01*
X118849375Y-129823237D01*
X118917393Y-129857895D01*
X118917399Y-129857897D01*
X119079297Y-129910500D01*
X119079298Y-129910500D01*
X119127048Y-129926015D01*
X119235913Y-129943258D01*
X119344778Y-129960501D01*
X119344779Y-129960501D01*
X119570333Y-129960501D01*
X119570357Y-129960500D01*
X136294643Y-129960500D01*
X136294667Y-129960501D01*
X136299778Y-129960501D01*
X136520221Y-129960501D01*
X136520222Y-129960501D01*
X136737951Y-129926015D01*
X136947606Y-129857895D01*
X137144022Y-129757815D01*
X137202882Y-129715051D01*
X137322365Y-129628242D01*
X137478242Y-129472365D01*
X137607815Y-129294022D01*
X137707895Y-129097606D01*
X137776015Y-128887951D01*
X137781735Y-128851835D01*
X137810501Y-128670222D01*
X137810501Y-128449778D01*
X137776015Y-128232049D01*
X137776014Y-128232047D01*
X137709402Y-128027034D01*
X137708339Y-128023266D01*
X137707894Y-128022393D01*
X137607815Y-127825978D01*
X137595750Y-127809372D01*
X137478248Y-127647642D01*
X137478244Y-127647638D01*
X137478242Y-127647635D01*
X137322365Y-127491758D01*
X137322361Y-127491755D01*
X137262364Y-127431758D01*
X137148076Y-127348723D01*
X137145229Y-127346383D01*
X137127575Y-127320426D01*
X137108411Y-127295573D01*
X137108084Y-127291767D01*
X137105936Y-127288609D01*
X137105117Y-127257232D01*
X137102432Y-127225960D01*
X137104214Y-127222581D01*
X137104115Y-127218763D01*
X137120394Y-127191917D01*
X137135038Y-127164165D01*
X137139644Y-127160173D01*
X137140344Y-127159020D01*
X137141792Y-127158312D01*
X137151077Y-127150267D01*
X137171716Y-127135271D01*
X137171717Y-127135270D01*
X136539408Y-126502962D01*
X136602993Y-126485925D01*
X136717007Y-126420099D01*
X136810099Y-126327007D01*
X136875925Y-126212993D01*
X136892962Y-126149409D01*
X137525270Y-126781717D01*
X137525270Y-126781716D01*
X137564622Y-126727554D01*
X137661095Y-126538217D01*
X137726757Y-126336130D01*
X137726757Y-126336127D01*
X137760000Y-126126246D01*
X137760000Y-125913753D01*
X137726757Y-125703872D01*
X137726757Y-125703869D01*
X137661095Y-125501782D01*
X137564624Y-125312449D01*
X137525270Y-125258282D01*
X137525269Y-125258282D01*
X136892962Y-125890590D01*
X136875925Y-125827007D01*
X136810099Y-125712993D01*
X136717007Y-125619901D01*
X136602993Y-125554075D01*
X136539409Y-125537037D01*
X137171716Y-124904728D01*
X137117547Y-124865373D01*
X137117547Y-124865372D01*
X137108500Y-124860763D01*
X137057706Y-124812788D01*
X137040912Y-124744966D01*
X137063451Y-124678832D01*
X137108508Y-124639793D01*
X137117816Y-124635051D01*
X137216166Y-124563596D01*
X137289786Y-124510109D01*
X137289788Y-124510106D01*
X137289792Y-124510104D01*
X137440104Y-124359792D01*
X137440106Y-124359788D01*
X137440109Y-124359786D01*
X137565048Y-124187820D01*
X137565047Y-124187820D01*
X137565051Y-124187816D01*
X137661557Y-123998412D01*
X137727246Y-123796243D01*
X137760500Y-123586287D01*
X137760500Y-123373713D01*
X137727246Y-123163757D01*
X137661557Y-122961588D01*
X137565051Y-122772184D01*
X137565049Y-122772181D01*
X137565048Y-122772179D01*
X137440109Y-122600213D01*
X137289786Y-122449890D01*
X137117820Y-122324951D01*
X137117115Y-122324591D01*
X137109054Y-122320485D01*
X137058259Y-122272512D01*
X137041463Y-122204692D01*
X137063999Y-122138556D01*
X137109054Y-122099515D01*
X137117816Y-122095051D01*
X137149977Y-122071685D01*
X137289786Y-121970109D01*
X137289788Y-121970106D01*
X137289792Y-121970104D01*
X137440104Y-121819792D01*
X137440106Y-121819788D01*
X137440109Y-121819786D01*
X137565048Y-121647820D01*
X137565047Y-121647820D01*
X137565051Y-121647816D01*
X137661557Y-121458412D01*
X137727246Y-121256243D01*
X137760500Y-121046287D01*
X137760500Y-120833713D01*
X137727246Y-120623757D01*
X137661557Y-120421588D01*
X137565051Y-120232184D01*
X137565049Y-120232181D01*
X137565048Y-120232179D01*
X137440109Y-120060213D01*
X137289786Y-119909890D01*
X137117820Y-119784951D01*
X137117115Y-119784591D01*
X137109054Y-119780485D01*
X137058259Y-119732512D01*
X137041463Y-119664692D01*
X137063999Y-119598556D01*
X137109054Y-119559515D01*
X137117816Y-119555051D01*
X137143889Y-119536108D01*
X137289786Y-119430109D01*
X137289788Y-119430106D01*
X137289792Y-119430104D01*
X137440104Y-119279792D01*
X137440106Y-119279788D01*
X137440109Y-119279786D01*
X137565048Y-119107820D01*
X137565047Y-119107820D01*
X137565051Y-119107816D01*
X137661557Y-118918412D01*
X137727246Y-118716243D01*
X137760500Y-118506287D01*
X137760500Y-118293713D01*
X137727246Y-118083757D01*
X137661557Y-117881588D01*
X137565051Y-117692184D01*
X137565049Y-117692181D01*
X137565048Y-117692179D01*
X137440109Y-117520213D01*
X137392077Y-117472181D01*
X137358592Y-117410858D01*
X137363576Y-117341166D01*
X137405448Y-117285233D01*
X137470912Y-117260816D01*
X137479758Y-117260500D01*
X139764643Y-117260500D01*
X139764667Y-117260501D01*
X139769778Y-117260501D01*
X139990221Y-117260501D01*
X139990222Y-117260501D01*
X140207951Y-117226015D01*
X140417606Y-117157895D01*
X140614022Y-117057815D01*
X140672882Y-117015051D01*
X140792365Y-116928242D01*
X140948242Y-116772365D01*
X140948243Y-116772363D01*
X140955303Y-116765303D01*
X140955310Y-116765295D01*
X143555296Y-114165309D01*
X143555303Y-114165303D01*
X143562363Y-114158243D01*
X143562365Y-114158242D01*
X143718242Y-114002365D01*
X143847815Y-113824022D01*
X143863156Y-113793914D01*
X143947896Y-113627605D01*
X143953691Y-113609771D01*
X144016014Y-113417954D01*
X144016013Y-113417954D01*
X144016015Y-113417951D01*
X144050501Y-113200221D01*
X144050501Y-112979778D01*
X144050501Y-112975377D01*
X144050500Y-112975362D01*
X144050500Y-105889778D01*
X144016015Y-105672049D01*
X143972173Y-105537116D01*
X143947896Y-105462396D01*
X143947895Y-105462393D01*
X143913237Y-105394375D01*
X143847815Y-105265978D01*
X143790896Y-105187635D01*
X143718247Y-105087641D01*
X143718243Y-105087636D01*
X143562363Y-104931756D01*
X143562358Y-104931752D01*
X143384025Y-104802187D01*
X143384024Y-104802186D01*
X143384022Y-104802185D01*
X143321096Y-104770122D01*
X143187606Y-104702104D01*
X143187603Y-104702103D01*
X142977952Y-104633985D01*
X142869086Y-104616742D01*
X142760222Y-104599500D01*
X142539778Y-104599500D01*
X142467201Y-104610995D01*
X142322047Y-104633985D01*
X142112396Y-104702103D01*
X142112393Y-104702104D01*
X141915974Y-104802187D01*
X141737641Y-104931752D01*
X141737636Y-104931756D01*
X141581756Y-105087636D01*
X141581752Y-105087641D01*
X141452187Y-105265974D01*
X141352104Y-105462393D01*
X141352103Y-105462396D01*
X141283985Y-105672047D01*
X141249500Y-105889778D01*
X141249500Y-112458532D01*
X141229815Y-112525571D01*
X141213181Y-112546213D01*
X139336213Y-114423181D01*
X139274890Y-114456666D01*
X139248532Y-114459500D01*
X137479758Y-114459500D01*
X137412719Y-114439815D01*
X137366964Y-114387011D01*
X137357020Y-114317853D01*
X137386045Y-114254297D01*
X137392077Y-114247819D01*
X137440104Y-114199792D01*
X137440106Y-114199788D01*
X137440109Y-114199786D01*
X137565048Y-114027820D01*
X137565047Y-114027820D01*
X137565051Y-114027816D01*
X137661557Y-113838412D01*
X137727246Y-113636243D01*
X137760500Y-113426287D01*
X137760500Y-113213713D01*
X137727246Y-113003757D01*
X137661557Y-112801588D01*
X137565051Y-112612184D01*
X137565049Y-112612181D01*
X137565048Y-112612179D01*
X137440109Y-112440213D01*
X137289786Y-112289890D01*
X137117820Y-112164951D01*
X137117115Y-112164591D01*
X137109054Y-112160485D01*
X137058259Y-112112512D01*
X137041463Y-112044692D01*
X137063999Y-111978556D01*
X137109054Y-111939515D01*
X137117816Y-111935051D01*
X137162805Y-111902365D01*
X137289786Y-111810109D01*
X137289788Y-111810106D01*
X137289792Y-111810104D01*
X137440104Y-111659792D01*
X137440106Y-111659788D01*
X137440109Y-111659786D01*
X137565048Y-111487820D01*
X137565047Y-111487820D01*
X137565051Y-111487816D01*
X137661557Y-111298412D01*
X137727246Y-111096243D01*
X137760500Y-110886287D01*
X137760500Y-110673713D01*
X137727246Y-110463757D01*
X137661557Y-110261588D01*
X137565051Y-110072184D01*
X137565049Y-110072181D01*
X137565048Y-110072179D01*
X137440109Y-109900213D01*
X137289786Y-109749890D01*
X137117820Y-109624951D01*
X137117115Y-109624591D01*
X137109054Y-109620485D01*
X137058259Y-109572512D01*
X137041463Y-109504692D01*
X137063999Y-109438556D01*
X137109054Y-109399515D01*
X137117816Y-109395051D01*
X137139789Y-109379086D01*
X137289786Y-109270109D01*
X137289788Y-109270106D01*
X137289792Y-109270104D01*
X137440104Y-109119792D01*
X137440106Y-109119788D01*
X137440109Y-109119786D01*
X137565048Y-108947820D01*
X137565047Y-108947820D01*
X137565051Y-108947816D01*
X137661557Y-108758412D01*
X137727246Y-108556243D01*
X137760500Y-108346287D01*
X137760500Y-108133713D01*
X137727246Y-107923757D01*
X137661557Y-107721588D01*
X137565051Y-107532184D01*
X137565049Y-107532181D01*
X137565048Y-107532179D01*
X137440109Y-107360213D01*
X137289786Y-107209890D01*
X137117820Y-107084951D01*
X137117115Y-107084591D01*
X137109054Y-107080485D01*
X137058259Y-107032512D01*
X137041463Y-106964692D01*
X137063999Y-106898556D01*
X137109054Y-106859515D01*
X137117816Y-106855051D01*
X137139789Y-106839086D01*
X137289786Y-106730109D01*
X137289788Y-106730106D01*
X137289792Y-106730104D01*
X137440104Y-106579792D01*
X137440106Y-106579788D01*
X137440109Y-106579786D01*
X137565048Y-106407820D01*
X137565047Y-106407820D01*
X137565051Y-106407816D01*
X137661557Y-106218412D01*
X137727246Y-106016243D01*
X137760500Y-105806287D01*
X137760500Y-105593713D01*
X137727246Y-105383757D01*
X137661557Y-105181588D01*
X137565051Y-104992184D01*
X137565049Y-104992181D01*
X137565048Y-104992179D01*
X137440109Y-104820213D01*
X137289786Y-104669890D01*
X137117820Y-104544951D01*
X137117115Y-104544591D01*
X137109054Y-104540485D01*
X137058259Y-104492512D01*
X137041463Y-104424692D01*
X137063999Y-104358556D01*
X137109054Y-104319515D01*
X137117816Y-104315051D01*
X137173263Y-104274767D01*
X137289786Y-104190109D01*
X137289788Y-104190106D01*
X137289792Y-104190104D01*
X137440104Y-104039792D01*
X137440106Y-104039788D01*
X137440109Y-104039786D01*
X137565048Y-103867820D01*
X137565047Y-103867820D01*
X137565051Y-103867816D01*
X137661557Y-103678412D01*
X137727246Y-103476243D01*
X137760500Y-103266287D01*
X137760500Y-103053713D01*
X137727246Y-102843757D01*
X137661557Y-102641588D01*
X137565051Y-102452184D01*
X137565049Y-102452181D01*
X137565048Y-102452179D01*
X137440109Y-102280213D01*
X137392077Y-102232181D01*
X137358592Y-102170858D01*
X137363576Y-102101166D01*
X137405448Y-102045233D01*
X137470912Y-102020816D01*
X137479758Y-102020500D01*
X143894643Y-102020500D01*
X143894667Y-102020501D01*
X143899778Y-102020501D01*
X144120221Y-102020501D01*
X144120222Y-102020501D01*
X144337951Y-101986015D01*
X144547606Y-101917895D01*
X144744022Y-101817815D01*
X144802882Y-101775051D01*
X144922365Y-101688242D01*
X145078242Y-101532365D01*
X145078243Y-101532363D01*
X145085303Y-101525303D01*
X145085309Y-101525296D01*
X147645296Y-98965309D01*
X147645303Y-98965303D01*
X147652363Y-98958243D01*
X147652365Y-98958242D01*
X147808242Y-98802365D01*
X147937815Y-98624022D01*
X148037895Y-98427606D01*
X148106015Y-98217951D01*
X148114814Y-98162395D01*
X148140501Y-98000222D01*
X148140501Y-97779778D01*
X148140501Y-97775377D01*
X148140500Y-97775362D01*
X148140500Y-66066118D01*
X148143395Y-66039479D01*
X148144695Y-66033565D01*
X148166015Y-65967951D01*
X148183148Y-65859779D01*
X148200501Y-65750222D01*
X148200501Y-65529778D01*
X148200501Y-65525377D01*
X148200500Y-65525362D01*
X148200500Y-62811468D01*
X148220185Y-62744429D01*
X148236819Y-62723787D01*
X152323787Y-58636819D01*
X152385110Y-58603334D01*
X152411468Y-58600500D01*
X162440242Y-58600500D01*
X162507281Y-58620185D01*
X162553036Y-58672989D01*
X162562980Y-58742147D01*
X162533955Y-58805703D01*
X162527923Y-58812181D01*
X162479894Y-58860209D01*
X162479890Y-58860213D01*
X162354951Y-59032179D01*
X162258444Y-59221585D01*
X162192753Y-59423760D01*
X162159500Y-59633713D01*
X162159500Y-59846286D01*
X162190885Y-60044446D01*
X162192754Y-60056243D01*
X162239569Y-60200325D01*
X162258444Y-60258414D01*
X162354951Y-60447820D01*
X162479890Y-60619786D01*
X162527923Y-60667819D01*
X162561408Y-60729142D01*
X162556424Y-60798834D01*
X162514552Y-60854767D01*
X162449088Y-60879184D01*
X162440242Y-60879500D01*
X154535357Y-60879500D01*
X154535333Y-60879499D01*
X154530222Y-60879499D01*
X154309779Y-60879499D01*
X154266233Y-60886396D01*
X154092045Y-60913985D01*
X153882400Y-60982101D01*
X153882389Y-60982105D01*
X153685976Y-61082185D01*
X153507641Y-61211752D01*
X153507636Y-61211756D01*
X148961758Y-65757634D01*
X148923547Y-65810228D01*
X148866867Y-65888242D01*
X148849526Y-65912110D01*
X148832185Y-65935977D01*
X148732104Y-66132393D01*
X148732103Y-66132396D01*
X148663985Y-66342047D01*
X148629499Y-66559779D01*
X148629499Y-66785332D01*
X148629500Y-66785357D01*
X148629500Y-101015362D01*
X148629499Y-101015377D01*
X148629499Y-101019778D01*
X148629499Y-101240222D01*
X148631633Y-101253695D01*
X148647524Y-101354022D01*
X148647524Y-101354023D01*
X148663985Y-101457952D01*
X148732103Y-101667603D01*
X148732104Y-101667606D01*
X148800122Y-101801096D01*
X148813571Y-101827491D01*
X148832187Y-101864025D01*
X148961751Y-102042357D01*
X148961755Y-102042361D01*
X148961758Y-102042365D01*
X149049283Y-102129890D01*
X149121965Y-102202572D01*
X149121976Y-102202582D01*
X156068632Y-109149238D01*
X156068646Y-109149253D01*
X156071756Y-109152363D01*
X156071758Y-109152365D01*
X156227635Y-109308242D01*
X156227638Y-109308244D01*
X156227641Y-109308247D01*
X156315064Y-109371763D01*
X156389686Y-109425978D01*
X156405978Y-109437815D01*
X156438687Y-109454481D01*
X156602393Y-109537895D01*
X156602396Y-109537896D01*
X156707221Y-109571955D01*
X156812049Y-109606015D01*
X157029778Y-109640500D01*
X157250221Y-109640500D01*
X160740242Y-109640500D01*
X160807281Y-109660185D01*
X160853036Y-109712989D01*
X160862980Y-109782147D01*
X160833955Y-109845703D01*
X160827923Y-109852181D01*
X160779894Y-109900209D01*
X160779890Y-109900213D01*
X160654951Y-110072179D01*
X160558444Y-110261585D01*
X160492753Y-110463760D01*
X160459500Y-110673713D01*
X160459500Y-110886286D01*
X160479390Y-111011870D01*
X160492754Y-111096243D01*
X160553344Y-111282720D01*
X160558444Y-111298414D01*
X160654951Y-111487820D01*
X160779890Y-111659786D01*
X160930213Y-111810109D01*
X161102182Y-111935050D01*
X161110946Y-111939516D01*
X161161742Y-111987491D01*
X161178536Y-112055312D01*
X161155998Y-112121447D01*
X161110946Y-112160484D01*
X161102182Y-112164949D01*
X160930213Y-112289890D01*
X160779890Y-112440213D01*
X160654951Y-112612179D01*
X160558444Y-112801585D01*
X160492753Y-113003760D01*
X160483471Y-113062365D01*
X160459500Y-113213713D01*
X160459500Y-113426287D01*
X160492754Y-113636243D01*
X160555781Y-113830220D01*
X160558444Y-113838414D01*
X160654951Y-114027820D01*
X160779890Y-114199786D01*
X160930209Y-114350105D01*
X160930214Y-114350109D01*
X161079787Y-114458780D01*
X161122453Y-114514110D01*
X161128432Y-114583723D01*
X161095827Y-114645518D01*
X161079787Y-114659416D01*
X160897641Y-114791752D01*
X160897636Y-114791756D01*
X160741756Y-114947636D01*
X160741752Y-114947641D01*
X160612187Y-115125974D01*
X160512104Y-115322393D01*
X160512103Y-115322396D01*
X160443985Y-115532047D01*
X160409500Y-115749778D01*
X160409500Y-115970221D01*
X160443985Y-116187952D01*
X160512103Y-116397603D01*
X160512104Y-116397606D01*
X160612187Y-116594025D01*
X160741752Y-116772358D01*
X160741756Y-116772363D01*
X160897636Y-116928243D01*
X160897641Y-116928247D01*
X161037254Y-117029682D01*
X161079920Y-117085012D01*
X161085899Y-117154625D01*
X161053293Y-117216420D01*
X161037254Y-117230318D01*
X160897641Y-117331752D01*
X160897636Y-117331756D01*
X160741756Y-117487636D01*
X160741752Y-117487641D01*
X160612187Y-117665974D01*
X160512104Y-117862393D01*
X160512103Y-117862396D01*
X160443985Y-118072047D01*
X160442130Y-118083760D01*
X160409500Y-118289778D01*
X160409500Y-118510222D01*
X160423412Y-118598056D01*
X160443985Y-118727952D01*
X160512103Y-118937603D01*
X160512104Y-118937606D01*
X160561213Y-119033985D01*
X160598834Y-119107820D01*
X160612187Y-119134025D01*
X160741752Y-119312358D01*
X160741756Y-119312363D01*
X160897636Y-119468243D01*
X160897641Y-119468247D01*
X161037254Y-119569682D01*
X161079920Y-119625012D01*
X161085899Y-119694625D01*
X161053293Y-119756420D01*
X161037254Y-119770318D01*
X160897641Y-119871752D01*
X160897636Y-119871756D01*
X160741756Y-120027636D01*
X160741752Y-120027641D01*
X160612187Y-120205974D01*
X160512104Y-120402393D01*
X160512103Y-120402396D01*
X160443985Y-120612047D01*
X160409500Y-120829778D01*
X160409500Y-121050221D01*
X160443985Y-121267952D01*
X160512103Y-121477603D01*
X160512104Y-121477606D01*
X160563147Y-121577781D01*
X160598834Y-121647820D01*
X160612187Y-121674025D01*
X160741752Y-121852358D01*
X160741756Y-121852363D01*
X160897636Y-122008243D01*
X160897641Y-122008247D01*
X161037254Y-122109682D01*
X161079920Y-122165012D01*
X161085899Y-122234625D01*
X161053293Y-122296420D01*
X161037254Y-122310318D01*
X160897641Y-122411752D01*
X160897636Y-122411756D01*
X160741756Y-122567636D01*
X160741752Y-122567641D01*
X160612187Y-122745974D01*
X160512104Y-122942393D01*
X160512103Y-122942396D01*
X160443985Y-123152047D01*
X160431320Y-123232010D01*
X160409500Y-123369778D01*
X160409500Y-123590222D01*
X160423412Y-123678056D01*
X160443985Y-123807952D01*
X160512103Y-124017603D01*
X160512104Y-124017606D01*
X160563179Y-124117844D01*
X160611325Y-124212335D01*
X160612187Y-124214025D01*
X160741752Y-124392358D01*
X160741756Y-124392363D01*
X160897636Y-124548243D01*
X160897641Y-124548247D01*
X161079919Y-124680679D01*
X161078540Y-124682576D01*
X161118959Y-124727153D01*
X161130457Y-124796070D01*
X161102871Y-124860264D01*
X161080238Y-124881511D01*
X161048282Y-124904727D01*
X161048282Y-124904728D01*
X161680591Y-125537037D01*
X161617007Y-125554075D01*
X161502993Y-125619901D01*
X161409901Y-125712993D01*
X161344075Y-125827007D01*
X161327037Y-125890591D01*
X160694728Y-125258282D01*
X160694727Y-125258282D01*
X160655380Y-125312439D01*
X160558904Y-125501782D01*
X160493242Y-125703869D01*
X160493242Y-125703872D01*
X160460000Y-125913753D01*
X160460000Y-126126246D01*
X160493242Y-126336127D01*
X160493242Y-126336130D01*
X160558904Y-126538217D01*
X160655375Y-126727550D01*
X160694728Y-126781716D01*
X161327036Y-126149407D01*
X161344075Y-126212993D01*
X161409901Y-126327007D01*
X161502993Y-126420099D01*
X161617007Y-126485925D01*
X161680590Y-126502962D01*
X161048282Y-127135269D01*
X161048282Y-127135270D01*
X161080238Y-127158487D01*
X161122905Y-127213816D01*
X161128885Y-127283430D01*
X161096279Y-127345225D01*
X161079468Y-127358701D01*
X161079919Y-127359321D01*
X160897641Y-127491752D01*
X160897636Y-127491756D01*
X160741756Y-127647636D01*
X160741752Y-127647641D01*
X160612187Y-127825974D01*
X160512104Y-128022393D01*
X160512103Y-128022396D01*
X160443985Y-128232047D01*
X160409500Y-128449778D01*
X160409500Y-128670221D01*
X160443985Y-128887952D01*
X160512103Y-129097603D01*
X160512104Y-129097606D01*
X160612187Y-129294025D01*
X160741752Y-129472358D01*
X160741756Y-129472363D01*
X160897636Y-129628243D01*
X160897641Y-129628247D01*
X161017118Y-129715051D01*
X161075978Y-129757815D01*
X161204375Y-129823237D01*
X161272393Y-129857895D01*
X161272396Y-129857896D01*
X161377221Y-129891955D01*
X161482049Y-129926015D01*
X161699778Y-129960500D01*
X185094643Y-129960500D01*
X185094667Y-129960501D01*
X185099778Y-129960501D01*
X185320221Y-129960501D01*
X185320222Y-129960501D01*
X185537951Y-129926015D01*
X185747606Y-129857895D01*
X185912229Y-129774013D01*
X185968523Y-129760499D01*
X186910002Y-129760499D01*
X186910008Y-129760499D01*
X187012797Y-129749999D01*
X187179334Y-129694814D01*
X187328656Y-129602712D01*
X187452712Y-129478656D01*
X187544814Y-129329334D01*
X187599999Y-129162797D01*
X187610500Y-129060009D01*
X187610499Y-128191466D01*
X187630183Y-128124428D01*
X187646813Y-128103791D01*
X190385296Y-125365309D01*
X190385303Y-125365303D01*
X190392363Y-125358243D01*
X190392365Y-125358242D01*
X190548242Y-125202365D01*
X190677815Y-125024022D01*
X190777895Y-124827606D01*
X190846015Y-124617951D01*
X190857056Y-124548242D01*
X190880501Y-124400222D01*
X190880501Y-124179778D01*
X190880501Y-124175377D01*
X190880500Y-124175362D01*
X190880500Y-98815357D01*
X190880501Y-98815332D01*
X190880501Y-98589780D01*
X190880501Y-98589779D01*
X190846015Y-98372049D01*
X190785658Y-98186287D01*
X190777895Y-98162394D01*
X190677815Y-97965978D01*
X190551679Y-97792365D01*
X190548248Y-97787642D01*
X190548244Y-97787638D01*
X190548242Y-97787635D01*
X190392365Y-97631758D01*
X190392364Y-97631757D01*
X190389253Y-97628646D01*
X190389238Y-97628632D01*
X179366819Y-86606213D01*
X179333334Y-86544890D01*
X179330500Y-86518532D01*
X179330500Y-54515357D01*
X179330501Y-54515332D01*
X179330501Y-54289780D01*
X179296015Y-54072048D01*
X179229402Y-53867034D01*
X179228339Y-53863266D01*
X179186021Y-53780213D01*
X179127815Y-53665978D01*
X179107792Y-53638418D01*
X178998248Y-53487642D01*
X178998244Y-53487638D01*
X178998242Y-53487635D01*
X178842365Y-53331758D01*
X178842364Y-53331757D01*
X178839253Y-53328646D01*
X178839238Y-53328632D01*
X171732582Y-46221976D01*
X171732573Y-46221966D01*
X171728242Y-46217635D01*
X171572365Y-46061758D01*
X171572361Y-46061755D01*
X171572357Y-46061751D01*
X171394025Y-45932187D01*
X171394024Y-45932186D01*
X171394022Y-45932185D01*
X171331096Y-45900122D01*
X171197606Y-45832104D01*
X171197603Y-45832103D01*
X170987952Y-45763985D01*
X170879086Y-45746742D01*
X170770222Y-45729499D01*
X170549778Y-45729499D01*
X170544667Y-45729499D01*
X170544643Y-45729500D01*
X131370222Y-45729500D01*
X131149778Y-45729500D01*
X131077201Y-45740995D01*
X130932047Y-45763985D01*
X130722396Y-45832103D01*
X130722393Y-45832104D01*
X130525974Y-45932187D01*
X130347641Y-46061752D01*
X130347636Y-46061756D01*
X130191756Y-46217636D01*
X130191752Y-46217641D01*
X130062187Y-46395974D01*
X129962104Y-46592393D01*
X129962103Y-46592396D01*
X129893985Y-46802047D01*
X129859500Y-47019778D01*
X129859500Y-59017443D01*
X129859499Y-59017458D01*
X129859499Y-59242302D01*
X129892105Y-59448166D01*
X129893983Y-59460027D01*
X129893984Y-59460030D01*
X129962102Y-59669681D01*
X129962104Y-59669687D01*
X130062187Y-59866106D01*
X130191751Y-60044438D01*
X130191755Y-60044442D01*
X130191758Y-60044446D01*
X130329706Y-60182394D01*
X130351965Y-60204653D01*
X130351976Y-60204663D01*
X133339674Y-63192361D01*
X133339677Y-63192365D01*
X133355135Y-63207823D01*
X133378174Y-63250021D01*
X133388615Y-63269142D01*
X133388614Y-63269144D01*
X133388617Y-63269148D01*
X133386193Y-63303005D01*
X133383631Y-63338834D01*
X133383628Y-63338837D01*
X133383628Y-63338840D01*
X133365767Y-63362696D01*
X133341759Y-63394767D01*
X133341756Y-63394768D01*
X133341754Y-63394771D01*
X133304440Y-63408686D01*
X133276295Y-63419184D01*
X133276290Y-63419184D01*
X133276288Y-63419185D01*
X133276285Y-63419184D01*
X133267449Y-63419500D01*
X125725357Y-63419500D01*
X125725333Y-63419499D01*
X125720222Y-63419499D01*
X125499778Y-63419499D01*
X125427201Y-63430994D01*
X125282047Y-63453985D01*
X125072396Y-63522103D01*
X125072393Y-63522104D01*
X124875974Y-63622187D01*
X124697641Y-63751752D01*
X124697636Y-63751756D01*
X124541755Y-63907638D01*
X123836213Y-64613179D01*
X123787536Y-64643204D01*
X123630668Y-64695185D01*
X123630663Y-64695187D01*
X123481342Y-64787289D01*
X123357289Y-64911342D01*
X123265187Y-65060663D01*
X123265185Y-65060668D01*
X123244717Y-65122438D01*
X123204944Y-65179883D01*
X123140428Y-65206706D01*
X123117283Y-65207052D01*
X123079474Y-65204076D01*
X122400000Y-65883551D01*
X122400000Y-65877339D01*
X122372741Y-65775606D01*
X122320080Y-65684394D01*
X122245606Y-65609920D01*
X122154394Y-65557259D01*
X122052661Y-65530000D01*
X122046446Y-65530000D01*
X122725922Y-64850524D01*
X122725921Y-64850523D01*
X122681359Y-64818147D01*
X122681350Y-64818141D01*
X122499031Y-64725244D01*
X122304417Y-64662009D01*
X122102317Y-64630000D01*
X121897683Y-64630000D01*
X121695582Y-64662009D01*
X121500968Y-64725244D01*
X121318644Y-64818143D01*
X121274077Y-64850523D01*
X121274077Y-64850524D01*
X121953554Y-65530000D01*
X121947339Y-65530000D01*
X121845606Y-65557259D01*
X121754394Y-65609920D01*
X121679920Y-65684394D01*
X121627259Y-65775606D01*
X121600000Y-65877339D01*
X121600000Y-65883553D01*
X120920524Y-65204077D01*
X120920523Y-65204077D01*
X120888143Y-65248644D01*
X120795244Y-65430968D01*
X120732009Y-65625582D01*
X120700000Y-65827682D01*
X120700000Y-66032317D01*
X120732009Y-66234417D01*
X120795244Y-66429031D01*
X120888141Y-66611350D01*
X120888147Y-66611359D01*
X120920523Y-66655921D01*
X120920524Y-66655922D01*
X121600000Y-65976446D01*
X121600000Y-65982661D01*
X121627259Y-66084394D01*
X121679920Y-66175606D01*
X121754394Y-66250080D01*
X121845606Y-66302741D01*
X121947339Y-66330000D01*
X121953553Y-66330000D01*
X121274076Y-67009474D01*
X121318650Y-67041859D01*
X121500968Y-67134755D01*
X121695582Y-67197990D01*
X121897683Y-67230000D01*
X122102317Y-67230000D01*
X122304417Y-67197990D01*
X122499031Y-67134755D01*
X122681349Y-67041859D01*
X122725921Y-67009474D01*
X122046447Y-66330000D01*
X122052661Y-66330000D01*
X122154394Y-66302741D01*
X122245606Y-66250080D01*
X122320080Y-66175606D01*
X122372741Y-66084394D01*
X122400000Y-65982661D01*
X122400000Y-65976447D01*
X123063181Y-66639628D01*
X123096666Y-66700951D01*
X123099500Y-66727309D01*
X123099500Y-71782690D01*
X123079815Y-71849729D01*
X123063181Y-71870371D01*
X122400000Y-72533552D01*
X122400000Y-72527339D01*
X122372741Y-72425606D01*
X122320080Y-72334394D01*
X122245606Y-72259920D01*
X122154394Y-72207259D01*
X122052661Y-72180000D01*
X122046446Y-72180000D01*
X122725922Y-71500524D01*
X122725921Y-71500523D01*
X122681359Y-71468147D01*
X122681350Y-71468141D01*
X122499031Y-71375244D01*
X122304417Y-71312009D01*
X122102317Y-71280000D01*
X121897683Y-71280000D01*
X121695582Y-71312009D01*
X121500968Y-71375244D01*
X121318644Y-71468143D01*
X121274077Y-71500523D01*
X121274077Y-71500524D01*
X121953554Y-72180000D01*
X121947339Y-72180000D01*
X121845606Y-72207259D01*
X121754394Y-72259920D01*
X121679920Y-72334394D01*
X121627259Y-72425606D01*
X121600000Y-72527339D01*
X121600000Y-72533553D01*
X120920524Y-71854077D01*
X120920523Y-71854077D01*
X120888143Y-71898644D01*
X120795244Y-72080968D01*
X120732009Y-72275582D01*
X120700000Y-72477682D01*
X120700000Y-72682317D01*
X120732009Y-72884417D01*
X120795244Y-73079031D01*
X120888141Y-73261350D01*
X120888147Y-73261359D01*
X120920523Y-73305921D01*
X120920524Y-73305922D01*
X121600000Y-72626446D01*
X121600000Y-72632661D01*
X121627259Y-72734394D01*
X121679920Y-72825606D01*
X121754394Y-72900080D01*
X121845606Y-72952741D01*
X121947339Y-72980000D01*
X121953553Y-72980000D01*
X121274076Y-73659474D01*
X121318650Y-73691859D01*
X121500968Y-73784755D01*
X121695582Y-73847990D01*
X121897683Y-73880000D01*
X122102317Y-73880000D01*
X122304417Y-73847990D01*
X122499031Y-73784755D01*
X122681349Y-73691859D01*
X122725921Y-73659474D01*
X122046447Y-72980000D01*
X122052661Y-72980000D01*
X122154394Y-72952741D01*
X122245606Y-72900080D01*
X122320080Y-72825606D01*
X122372741Y-72734394D01*
X122400000Y-72632661D01*
X122400000Y-72626447D01*
X123063181Y-73289628D01*
X123096666Y-73350951D01*
X123099500Y-73377309D01*
X123099500Y-78852690D01*
X123079815Y-78919729D01*
X123063181Y-78940371D01*
X122400000Y-79603552D01*
X122400000Y-79597339D01*
X122372741Y-79495606D01*
X122320080Y-79404394D01*
X122245606Y-79329920D01*
X122154394Y-79277259D01*
X122052661Y-79250000D01*
X122046446Y-79250000D01*
X122725922Y-78570524D01*
X122725921Y-78570523D01*
X122681359Y-78538147D01*
X122681350Y-78538141D01*
X122499031Y-78445244D01*
X122304417Y-78382009D01*
X122102317Y-78350000D01*
X121897683Y-78350000D01*
X121695582Y-78382009D01*
X121500968Y-78445244D01*
X121318644Y-78538143D01*
X121274077Y-78570523D01*
X121274077Y-78570524D01*
X121953554Y-79250000D01*
X121947339Y-79250000D01*
X121845606Y-79277259D01*
X121754394Y-79329920D01*
X121679920Y-79404394D01*
X121627259Y-79495606D01*
X121600000Y-79597339D01*
X121600000Y-79603553D01*
X120920524Y-78924077D01*
X120920523Y-78924077D01*
X120888143Y-78968644D01*
X120795244Y-79150968D01*
X120732009Y-79345582D01*
X120700000Y-79547682D01*
X120700000Y-79752317D01*
X120732009Y-79954417D01*
X120795244Y-80149031D01*
X120888141Y-80331350D01*
X120888147Y-80331359D01*
X120920523Y-80375921D01*
X120920524Y-80375922D01*
X121600000Y-79696446D01*
X121600000Y-79702661D01*
X121627259Y-79804394D01*
X121679920Y-79895606D01*
X121754394Y-79970080D01*
X121845606Y-80022741D01*
X121947339Y-80050000D01*
X121953553Y-80050000D01*
X121274076Y-80729474D01*
X121318650Y-80761859D01*
X121500968Y-80854755D01*
X121695582Y-80917990D01*
X121897683Y-80950000D01*
X122102317Y-80950000D01*
X122304417Y-80917990D01*
X122499031Y-80854755D01*
X122681349Y-80761859D01*
X122725921Y-80729474D01*
X122046447Y-80050000D01*
X122052661Y-80050000D01*
X122154394Y-80022741D01*
X122245606Y-79970080D01*
X122320080Y-79895606D01*
X122372741Y-79804394D01*
X122400000Y-79702661D01*
X122400000Y-79696447D01*
X123079473Y-80375921D01*
X123117280Y-80372946D01*
X123185658Y-80387310D01*
X123235415Y-80436361D01*
X123244714Y-80457556D01*
X123265186Y-80519334D01*
X123357288Y-80668656D01*
X123481344Y-80792712D01*
X123630666Y-80884814D01*
X123797203Y-80939999D01*
X123899991Y-80950500D01*
X123950771Y-80950499D01*
X123989089Y-80956567D01*
X124172049Y-81016015D01*
X124389778Y-81050500D01*
X124389779Y-81050500D01*
X124610221Y-81050500D01*
X124610222Y-81050500D01*
X124827951Y-81016015D01*
X125010912Y-80956567D01*
X125049230Y-80950499D01*
X125100002Y-80950499D01*
X125100008Y-80950499D01*
X125202797Y-80939999D01*
X125369334Y-80884814D01*
X125518656Y-80792712D01*
X125642712Y-80668656D01*
X125734814Y-80519334D01*
X125789999Y-80352797D01*
X125800500Y-80250009D01*
X125800499Y-80199226D01*
X125806567Y-80160912D01*
X125866015Y-79977951D01*
X125900500Y-79760222D01*
X125900500Y-72469778D01*
X125900500Y-66561468D01*
X125920185Y-66494429D01*
X125936819Y-66473787D01*
X126153787Y-66256819D01*
X126215110Y-66223334D01*
X126241468Y-66220500D01*
X128594357Y-66220500D01*
X128661396Y-66240185D01*
X128707151Y-66292989D01*
X128717095Y-66362147D01*
X128694675Y-66417383D01*
X128672693Y-66447641D01*
X128572185Y-66585977D01*
X128472104Y-66782393D01*
X128472103Y-66782396D01*
X128403985Y-66992047D01*
X128381382Y-67134755D01*
X128369499Y-67209778D01*
X128369499Y-67430222D01*
X128375835Y-67470222D01*
X128403985Y-67647952D01*
X128472103Y-67857603D01*
X128472104Y-67857606D01*
X128572185Y-68054022D01*
X128701758Y-68232364D01*
X128701760Y-68232366D01*
X128738632Y-68269238D01*
X128738646Y-68269253D01*
X128741756Y-68272363D01*
X128741758Y-68272365D01*
X128897635Y-68428242D01*
X128897638Y-68428244D01*
X128897641Y-68428247D01*
X128966378Y-68478186D01*
X128995714Y-68499500D01*
X129043179Y-68533985D01*
X129075979Y-68557816D01*
X129272389Y-68657894D01*
X129272400Y-68657898D01*
X129482046Y-68726014D01*
X129482049Y-68726015D01*
X129699779Y-68760501D01*
X129699780Y-68760501D01*
X129925333Y-68760501D01*
X129925357Y-68760500D01*
X134772691Y-68760500D01*
X134839730Y-68780185D01*
X134860372Y-68796819D01*
X135480591Y-69417037D01*
X135417007Y-69434075D01*
X135302993Y-69499901D01*
X135209901Y-69592993D01*
X135144075Y-69707007D01*
X135127037Y-69770591D01*
X134494728Y-69138282D01*
X134494727Y-69138282D01*
X134455380Y-69192439D01*
X134358904Y-69381782D01*
X134293242Y-69583869D01*
X134293242Y-69583872D01*
X134260000Y-69793753D01*
X134260000Y-70006246D01*
X134293242Y-70216127D01*
X134293242Y-70216130D01*
X134358904Y-70418217D01*
X134455375Y-70607550D01*
X134494728Y-70661716D01*
X135127037Y-70029408D01*
X135144075Y-70092993D01*
X135209901Y-70207007D01*
X135302993Y-70300099D01*
X135417007Y-70365925D01*
X135480591Y-70382962D01*
X134860372Y-71003181D01*
X134799049Y-71036666D01*
X134772691Y-71039500D01*
X134699778Y-71039500D01*
X134627201Y-71050995D01*
X134482047Y-71073985D01*
X134272396Y-71142103D01*
X134272393Y-71142104D01*
X134075974Y-71242187D01*
X133897641Y-71371752D01*
X133897636Y-71371756D01*
X128701760Y-76567633D01*
X128572185Y-76745977D01*
X128472104Y-76942393D01*
X128472103Y-76942396D01*
X128403985Y-77152047D01*
X128380994Y-77297201D01*
X128369499Y-77369778D01*
X128369499Y-77590222D01*
X128392489Y-77735374D01*
X128403985Y-77807952D01*
X128472103Y-78017603D01*
X128472104Y-78017606D01*
X128572185Y-78214022D01*
X128701758Y-78392364D01*
X128857636Y-78548242D01*
X129035978Y-78677815D01*
X129115936Y-78718556D01*
X129232393Y-78777895D01*
X129232396Y-78777896D01*
X129337221Y-78811955D01*
X129442049Y-78846015D01*
X129659778Y-78880501D01*
X129659779Y-78880501D01*
X129880221Y-78880501D01*
X129880222Y-78880501D01*
X130097951Y-78846015D01*
X130307606Y-78777895D01*
X130504022Y-78677815D01*
X130682364Y-78548242D01*
X134071669Y-75158936D01*
X134132990Y-75125453D01*
X134202682Y-75130437D01*
X134258615Y-75172309D01*
X134281821Y-75227220D01*
X134292753Y-75296240D01*
X134358444Y-75498414D01*
X134454951Y-75687820D01*
X134579890Y-75859786D01*
X134730213Y-76010109D01*
X134902182Y-76135050D01*
X134910946Y-76139516D01*
X134961742Y-76187491D01*
X134978536Y-76255312D01*
X134955998Y-76321447D01*
X134910946Y-76360484D01*
X134902182Y-76364949D01*
X134730213Y-76489890D01*
X134579890Y-76640213D01*
X134454951Y-76812179D01*
X134358444Y-77001585D01*
X134292753Y-77203760D01*
X134259500Y-77413713D01*
X134259500Y-77626286D01*
X134292753Y-77836239D01*
X134358444Y-78038414D01*
X134454951Y-78227820D01*
X134579890Y-78399786D01*
X134730213Y-78550109D01*
X134902182Y-78675050D01*
X134910946Y-78679516D01*
X134961742Y-78727491D01*
X134978536Y-78795312D01*
X134955998Y-78861447D01*
X134910946Y-78900484D01*
X134902182Y-78904949D01*
X134730213Y-79029890D01*
X134579890Y-79180213D01*
X134454951Y-79352179D01*
X134358444Y-79541585D01*
X134292753Y-79743760D01*
X134259500Y-79953713D01*
X134259500Y-80166286D01*
X134292231Y-80372946D01*
X134292754Y-80376243D01*
X134352388Y-80559778D01*
X134358444Y-80578414D01*
X134454951Y-80767820D01*
X134579890Y-80939786D01*
X134730213Y-81090109D01*
X134902179Y-81215048D01*
X134902181Y-81215049D01*
X134902184Y-81215051D01*
X135091588Y-81311557D01*
X135293757Y-81377246D01*
X135503713Y-81410500D01*
X135503714Y-81410500D01*
X135716286Y-81410500D01*
X135716287Y-81410500D01*
X135926243Y-81377246D01*
X136128412Y-81311557D01*
X136317816Y-81215051D01*
X136384413Y-81166666D01*
X136489786Y-81090109D01*
X136489788Y-81090106D01*
X136489792Y-81090104D01*
X136640104Y-80939792D01*
X136640106Y-80939788D01*
X136640109Y-80939786D01*
X136765048Y-80767820D01*
X136765047Y-80767820D01*
X136765051Y-80767816D01*
X136861557Y-80578412D01*
X136927246Y-80376243D01*
X136960500Y-80166287D01*
X136960500Y-79953713D01*
X136927246Y-79743757D01*
X136861557Y-79541588D01*
X136765051Y-79352184D01*
X136765049Y-79352181D01*
X136765048Y-79352179D01*
X136640109Y-79180213D01*
X136489786Y-79029890D01*
X136317820Y-78904951D01*
X136317115Y-78904591D01*
X136309054Y-78900485D01*
X136258259Y-78852512D01*
X136241463Y-78784692D01*
X136263999Y-78718556D01*
X136309054Y-78679515D01*
X136317816Y-78675051D01*
X136339789Y-78659086D01*
X136489786Y-78550109D01*
X136489788Y-78550106D01*
X136489792Y-78550104D01*
X136640104Y-78399792D01*
X136640106Y-78399788D01*
X136640109Y-78399786D01*
X136765048Y-78227820D01*
X136765047Y-78227820D01*
X136765051Y-78227816D01*
X136861557Y-78038412D01*
X136927246Y-77836243D01*
X136960500Y-77626287D01*
X136960500Y-77413713D01*
X136927246Y-77203757D01*
X136861557Y-77001588D01*
X136765051Y-76812184D01*
X136765049Y-76812181D01*
X136765048Y-76812179D01*
X136640109Y-76640213D01*
X136489786Y-76489890D01*
X136317820Y-76364951D01*
X136317115Y-76364591D01*
X136309054Y-76360485D01*
X136258259Y-76312512D01*
X136241463Y-76244692D01*
X136263999Y-76178556D01*
X136309054Y-76139515D01*
X136317816Y-76135051D01*
X136339789Y-76119086D01*
X136489786Y-76010109D01*
X136489788Y-76010106D01*
X136489792Y-76010104D01*
X136640104Y-75859792D01*
X136640106Y-75859788D01*
X136640109Y-75859786D01*
X136765048Y-75687820D01*
X136765047Y-75687820D01*
X136765051Y-75687816D01*
X136861557Y-75498412D01*
X136927246Y-75296243D01*
X136960500Y-75086287D01*
X136960500Y-74873713D01*
X136927246Y-74663757D01*
X136861557Y-74461588D01*
X136765051Y-74272184D01*
X136765049Y-74272181D01*
X136765048Y-74272179D01*
X136640109Y-74100213D01*
X136489790Y-73949894D01*
X136489785Y-73949890D01*
X136340212Y-73841219D01*
X136297546Y-73785889D01*
X136291567Y-73716276D01*
X136324173Y-73654481D01*
X136340212Y-73640582D01*
X136344016Y-73637817D01*
X136344022Y-73637815D01*
X136522365Y-73508242D01*
X136678242Y-73352365D01*
X136807815Y-73174022D01*
X136907895Y-72977606D01*
X136976015Y-72767951D01*
X137010500Y-72550222D01*
X137010500Y-72329778D01*
X136976015Y-72112049D01*
X136941955Y-72007221D01*
X136907896Y-71902396D01*
X136907895Y-71902393D01*
X136846902Y-71782690D01*
X136807815Y-71705978D01*
X136775899Y-71662049D01*
X136678247Y-71527641D01*
X136678243Y-71527636D01*
X136522363Y-71371756D01*
X136522358Y-71371752D01*
X136340081Y-71239321D01*
X136341446Y-71237441D01*
X136300993Y-71192747D01*
X136289555Y-71123820D01*
X136317198Y-71059651D01*
X136339760Y-71038489D01*
X136371716Y-71015270D01*
X136371717Y-71015270D01*
X135739408Y-70382962D01*
X135802993Y-70365925D01*
X135917007Y-70300099D01*
X136010099Y-70207007D01*
X136075925Y-70092993D01*
X136092962Y-70029409D01*
X136725270Y-70661717D01*
X136725270Y-70661716D01*
X136764622Y-70607554D01*
X136861095Y-70418217D01*
X136926757Y-70216130D01*
X136926757Y-70216127D01*
X136960000Y-70006246D01*
X136960000Y-69793753D01*
X136926757Y-69583872D01*
X136926757Y-69583869D01*
X136861095Y-69381782D01*
X136764624Y-69192449D01*
X136725270Y-69138282D01*
X136725269Y-69138282D01*
X136092962Y-69770590D01*
X136075925Y-69707007D01*
X136010099Y-69592993D01*
X135917007Y-69499901D01*
X135802993Y-69434075D01*
X135739409Y-69417037D01*
X136371716Y-68784728D01*
X136339761Y-68761512D01*
X136297095Y-68706182D01*
X136291116Y-68636569D01*
X136323721Y-68574773D01*
X136340544Y-68561317D01*
X136340081Y-68560679D01*
X136522358Y-68428247D01*
X136522356Y-68428247D01*
X136522365Y-68428242D01*
X136678242Y-68272365D01*
X136807815Y-68094022D01*
X136882875Y-67946710D01*
X136907896Y-67897605D01*
X136907896Y-67897603D01*
X136910352Y-67890042D01*
X136976015Y-67687951D01*
X137010500Y-67470222D01*
X137010500Y-67249778D01*
X136976015Y-67032049D01*
X136907895Y-66822394D01*
X136907895Y-66822393D01*
X136823072Y-66655922D01*
X136807815Y-66625978D01*
X136791260Y-66603192D01*
X136678247Y-66447641D01*
X136678243Y-66447636D01*
X136522363Y-66291756D01*
X136522358Y-66291752D01*
X136382745Y-66190318D01*
X136340079Y-66134989D01*
X136334100Y-66065375D01*
X136366705Y-66003580D01*
X136382745Y-65989682D01*
X136522358Y-65888247D01*
X136522365Y-65888242D01*
X136595275Y-65815332D01*
X136678242Y-65732365D01*
X136807815Y-65554022D01*
X136907895Y-65357606D01*
X136976015Y-65147951D01*
X137010500Y-64930222D01*
X137010500Y-64709778D01*
X136976015Y-64492049D01*
X136907895Y-64282394D01*
X136907895Y-64282393D01*
X136873237Y-64214375D01*
X136807815Y-64085978D01*
X136794511Y-64067667D01*
X136678245Y-63907638D01*
X136522363Y-63751756D01*
X136522358Y-63751752D01*
X136382745Y-63650318D01*
X136340079Y-63594989D01*
X136334100Y-63525375D01*
X136366705Y-63463580D01*
X136382745Y-63449682D01*
X136522358Y-63348247D01*
X136522356Y-63348247D01*
X136522365Y-63348242D01*
X136678242Y-63192365D01*
X136807815Y-63014022D01*
X136907895Y-62817606D01*
X136976015Y-62607951D01*
X137010500Y-62390222D01*
X137010500Y-62169778D01*
X136976015Y-61952049D01*
X136907895Y-61742394D01*
X136907895Y-61742393D01*
X136856941Y-61642393D01*
X136807815Y-61545978D01*
X136735161Y-61445978D01*
X136678247Y-61367641D01*
X136678243Y-61367636D01*
X136522363Y-61211756D01*
X136522358Y-61211752D01*
X136340212Y-61079416D01*
X136297546Y-61024087D01*
X136291567Y-60954473D01*
X136324172Y-60892678D01*
X136340212Y-60878780D01*
X136489786Y-60770109D01*
X136489788Y-60770106D01*
X136489792Y-60770104D01*
X136640104Y-60619792D01*
X136640106Y-60619788D01*
X136640109Y-60619786D01*
X136765048Y-60447820D01*
X136765047Y-60447820D01*
X136765051Y-60447816D01*
X136861557Y-60258412D01*
X136927246Y-60056243D01*
X136960500Y-59846287D01*
X136960500Y-59633713D01*
X136927246Y-59423757D01*
X136861557Y-59221588D01*
X136765051Y-59032184D01*
X136765049Y-59032181D01*
X136765048Y-59032179D01*
X136640109Y-58860213D01*
X136592077Y-58812181D01*
X136558592Y-58750858D01*
X136563576Y-58681166D01*
X136605448Y-58625233D01*
X136670912Y-58600816D01*
X136679758Y-58600500D01*
X138498532Y-58600500D01*
X138565571Y-58620185D01*
X138586213Y-58636819D01*
X141213181Y-61263787D01*
X141246666Y-61325110D01*
X141249500Y-61351468D01*
X141249500Y-95950221D01*
X141283985Y-96167952D01*
X141352103Y-96377603D01*
X141352104Y-96377606D01*
X141413247Y-96497603D01*
X141450191Y-96570109D01*
X141452187Y-96574025D01*
X141581752Y-96752358D01*
X141581756Y-96752363D01*
X141737636Y-96908243D01*
X141737641Y-96908247D01*
X141850471Y-96990222D01*
X141915978Y-97037815D01*
X142041395Y-97101719D01*
X142112393Y-97137895D01*
X142112396Y-97137896D01*
X142217221Y-97171955D01*
X142322049Y-97206015D01*
X142539778Y-97240500D01*
X142539779Y-97240500D01*
X142760221Y-97240500D01*
X142760222Y-97240500D01*
X142977951Y-97206015D01*
X143187606Y-97137895D01*
X143384022Y-97037815D01*
X143562365Y-96908242D01*
X143718242Y-96752365D01*
X143847815Y-96574022D01*
X143947895Y-96377606D01*
X144016015Y-96167951D01*
X144050500Y-95950222D01*
X144050500Y-60835357D01*
X144050501Y-60835332D01*
X144050501Y-60609780D01*
X144016015Y-60392048D01*
X144001669Y-60347896D01*
X144001669Y-60347895D01*
X143947897Y-60182398D01*
X143877606Y-60044446D01*
X143847815Y-59985978D01*
X143829046Y-59960144D01*
X143718248Y-59807642D01*
X143718244Y-59807638D01*
X143718242Y-59807635D01*
X143562365Y-59651758D01*
X143562364Y-59651757D01*
X143559253Y-59648646D01*
X143559238Y-59648632D01*
X140202582Y-56291976D01*
X140202573Y-56291966D01*
X140198242Y-56287635D01*
X140042365Y-56131758D01*
X140042361Y-56131755D01*
X140042357Y-56131751D01*
X139864025Y-56002187D01*
X139864024Y-56002186D01*
X139864022Y-56002185D01*
X139801096Y-55970122D01*
X139667606Y-55902104D01*
X139667603Y-55902103D01*
X139457952Y-55833985D01*
X139323428Y-55812678D01*
X139240222Y-55799499D01*
X139019778Y-55799499D01*
X139014667Y-55799499D01*
X139014643Y-55799500D01*
X136679758Y-55799500D01*
X136612719Y-55779815D01*
X136566964Y-55727011D01*
X136557020Y-55657853D01*
X136586045Y-55594297D01*
X136592077Y-55587819D01*
X136640104Y-55539792D01*
X136640106Y-55539788D01*
X136640109Y-55539786D01*
X136765048Y-55367820D01*
X136765047Y-55367820D01*
X136765051Y-55367816D01*
X136861557Y-55178412D01*
X136927246Y-54976243D01*
X136960500Y-54766287D01*
X136960500Y-54553713D01*
X136927246Y-54343757D01*
X136861557Y-54141588D01*
X136765051Y-53952184D01*
X136765049Y-53952181D01*
X136765048Y-53952179D01*
X136640109Y-53780213D01*
X136526569Y-53666673D01*
X136493084Y-53605350D01*
X136498068Y-53535658D01*
X136539940Y-53479725D01*
X136570915Y-53462810D01*
X136702331Y-53413796D01*
X136817546Y-53327546D01*
X136903796Y-53212331D01*
X136954091Y-53077483D01*
X136960500Y-53017873D01*
X136960499Y-51917682D01*
X145500000Y-51917682D01*
X145500000Y-52122317D01*
X145532009Y-52324417D01*
X145595244Y-52519031D01*
X145688141Y-52701350D01*
X145688147Y-52701359D01*
X145720523Y-52745921D01*
X145720524Y-52745922D01*
X146400000Y-52066446D01*
X146400000Y-52072661D01*
X146427259Y-52174394D01*
X146479920Y-52265606D01*
X146554394Y-52340080D01*
X146645606Y-52392741D01*
X146747339Y-52420000D01*
X146753553Y-52420000D01*
X146074076Y-53099474D01*
X146118650Y-53131859D01*
X146300968Y-53224755D01*
X146495582Y-53287990D01*
X146697683Y-53320000D01*
X146902317Y-53320000D01*
X147104417Y-53287990D01*
X147299031Y-53224755D01*
X147481349Y-53131859D01*
X147525921Y-53099474D01*
X146846447Y-52420000D01*
X146852661Y-52420000D01*
X146954394Y-52392741D01*
X147045606Y-52340080D01*
X147120080Y-52265606D01*
X147172741Y-52174394D01*
X147200000Y-52072661D01*
X147200000Y-52066448D01*
X147879474Y-52745922D01*
X147879474Y-52745921D01*
X147911859Y-52701349D01*
X148004755Y-52519031D01*
X148067990Y-52324417D01*
X148100000Y-52122317D01*
X148100000Y-51917682D01*
X148067990Y-51715582D01*
X148004755Y-51520968D01*
X147911857Y-51338647D01*
X147879475Y-51294077D01*
X147879474Y-51294076D01*
X147200000Y-51973551D01*
X147200000Y-51967339D01*
X147172741Y-51865606D01*
X147120080Y-51774394D01*
X147045606Y-51699920D01*
X146954394Y-51647259D01*
X146852661Y-51620000D01*
X146846446Y-51620000D01*
X147525922Y-50940524D01*
X147525921Y-50940523D01*
X147481359Y-50908147D01*
X147481350Y-50908141D01*
X147299031Y-50815244D01*
X147104417Y-50752009D01*
X146902317Y-50720000D01*
X146697683Y-50720000D01*
X146495582Y-50752009D01*
X146300968Y-50815244D01*
X146118644Y-50908143D01*
X146074077Y-50940523D01*
X146074077Y-50940524D01*
X146753554Y-51620000D01*
X146747339Y-51620000D01*
X146645606Y-51647259D01*
X146554394Y-51699920D01*
X146479920Y-51774394D01*
X146427259Y-51865606D01*
X146400000Y-51967339D01*
X146400000Y-51973553D01*
X145720524Y-51294077D01*
X145720523Y-51294077D01*
X145688143Y-51338644D01*
X145595244Y-51520968D01*
X145532009Y-51715582D01*
X145500000Y-51917682D01*
X136960499Y-51917682D01*
X136960499Y-51222128D01*
X136954091Y-51162517D01*
X136903887Y-51027913D01*
X136903798Y-51027673D01*
X136903793Y-51027664D01*
X136817547Y-50912455D01*
X136817544Y-50912452D01*
X136702335Y-50826206D01*
X136702328Y-50826202D01*
X136567482Y-50775908D01*
X136567483Y-50775908D01*
X136507883Y-50769501D01*
X136507881Y-50769500D01*
X136507873Y-50769500D01*
X136507864Y-50769500D01*
X134712129Y-50769500D01*
X134712123Y-50769501D01*
X134652516Y-50775908D01*
X134517671Y-50826202D01*
X134517664Y-50826206D01*
X134402455Y-50912452D01*
X134402452Y-50912455D01*
X134316206Y-51027664D01*
X134316202Y-51027671D01*
X134265908Y-51162517D01*
X134259501Y-51222116D01*
X134259501Y-51222123D01*
X134259500Y-51222135D01*
X134259500Y-53017870D01*
X134259501Y-53017876D01*
X134265908Y-53077483D01*
X134316202Y-53212328D01*
X134316206Y-53212335D01*
X134402452Y-53327544D01*
X134402455Y-53327547D01*
X134517664Y-53413793D01*
X134517671Y-53413797D01*
X134649082Y-53462810D01*
X134705016Y-53504681D01*
X134729433Y-53570145D01*
X134714582Y-53638418D01*
X134693431Y-53666673D01*
X134579889Y-53780215D01*
X134454951Y-53952179D01*
X134358444Y-54141585D01*
X134292753Y-54343760D01*
X134259500Y-54553713D01*
X134259500Y-54766286D01*
X134292111Y-54972187D01*
X134292754Y-54976243D01*
X134333536Y-55101758D01*
X134358444Y-55178414D01*
X134454951Y-55367820D01*
X134579890Y-55539786D01*
X134730209Y-55690105D01*
X134730214Y-55690109D01*
X134879787Y-55798780D01*
X134922453Y-55854110D01*
X134928432Y-55923723D01*
X134895827Y-55985518D01*
X134879787Y-55999416D01*
X134697641Y-56131752D01*
X134697636Y-56131756D01*
X134541756Y-56287636D01*
X134541752Y-56287641D01*
X134412187Y-56465974D01*
X134312104Y-56662393D01*
X134312103Y-56662396D01*
X134243985Y-56872047D01*
X134209500Y-57089778D01*
X134209500Y-57310221D01*
X134243985Y-57527952D01*
X134312103Y-57737603D01*
X134312104Y-57737606D01*
X134412187Y-57934025D01*
X134541752Y-58112358D01*
X134541756Y-58112363D01*
X134697640Y-58268247D01*
X134879787Y-58400583D01*
X134922453Y-58455912D01*
X134928432Y-58525526D01*
X134895827Y-58587321D01*
X134879788Y-58601219D01*
X134730209Y-58709894D01*
X134579890Y-58860213D01*
X134454951Y-59032179D01*
X134358444Y-59221585D01*
X134292753Y-59423760D01*
X134259500Y-59633713D01*
X134259500Y-59851159D01*
X134257254Y-59851159D01*
X134244706Y-59910458D01*
X134195582Y-59960144D01*
X134127395Y-59975383D01*
X134061793Y-59951339D01*
X134047857Y-59939332D01*
X132696819Y-58588294D01*
X132663334Y-58526971D01*
X132660500Y-58500613D01*
X132660500Y-48654500D01*
X132680185Y-48587461D01*
X132732989Y-48541706D01*
X132784500Y-48530500D01*
X170028532Y-48530500D01*
X170095571Y-48550185D01*
X170116213Y-48566819D01*
X176493181Y-54943787D01*
X176526666Y-55005110D01*
X176529500Y-55031468D01*
X176529500Y-87035362D01*
X176529499Y-87035377D01*
X176529499Y-87260220D01*
X176553645Y-87412666D01*
X176553645Y-87412667D01*
X176563985Y-87477952D01*
X176632103Y-87687603D01*
X176632104Y-87687606D01*
X176732187Y-87884025D01*
X176861751Y-88062357D01*
X176861755Y-88062361D01*
X176861758Y-88062365D01*
X177017635Y-88218242D01*
X177021965Y-88222572D01*
X177021976Y-88222582D01*
X178802403Y-90003009D01*
X178835888Y-90064332D01*
X178830904Y-90134024D01*
X178789032Y-90189957D01*
X178723568Y-90214374D01*
X178658427Y-90201175D01*
X178529031Y-90135244D01*
X178334417Y-90072009D01*
X178132317Y-90040000D01*
X177927683Y-90040000D01*
X177725582Y-90072009D01*
X177530968Y-90135244D01*
X177348644Y-90228143D01*
X177304077Y-90260523D01*
X177304077Y-90260524D01*
X177983554Y-90940000D01*
X177977339Y-90940000D01*
X177875606Y-90967259D01*
X177784394Y-91019920D01*
X177709920Y-91094394D01*
X177657259Y-91185606D01*
X177630000Y-91287339D01*
X177630000Y-91293553D01*
X176950524Y-90614077D01*
X176950523Y-90614077D01*
X176918143Y-90658644D01*
X176825244Y-90840968D01*
X176762009Y-91035582D01*
X176730000Y-91237682D01*
X176730000Y-91442317D01*
X176762009Y-91644417D01*
X176825244Y-91839031D01*
X176918141Y-92021350D01*
X176918147Y-92021359D01*
X176950523Y-92065921D01*
X176950524Y-92065922D01*
X177630000Y-91386446D01*
X177630000Y-91392661D01*
X177657259Y-91494394D01*
X177709920Y-91585606D01*
X177784394Y-91660080D01*
X177875606Y-91712741D01*
X177977339Y-91740000D01*
X177983553Y-91740000D01*
X177304076Y-92419474D01*
X177348650Y-92451859D01*
X177530968Y-92544755D01*
X177725582Y-92607990D01*
X177927683Y-92640000D01*
X178132317Y-92640000D01*
X178334417Y-92607990D01*
X178529031Y-92544755D01*
X178711349Y-92451859D01*
X178755921Y-92419474D01*
X178076447Y-91740000D01*
X178082661Y-91740000D01*
X178184394Y-91712741D01*
X178275606Y-91660080D01*
X178350080Y-91585606D01*
X178402741Y-91494394D01*
X178430000Y-91392661D01*
X178430000Y-91386446D01*
X179109474Y-92065921D01*
X179141859Y-92021349D01*
X179234755Y-91839031D01*
X179297990Y-91644417D01*
X179330000Y-91442317D01*
X179330000Y-91237682D01*
X179297990Y-91035582D01*
X179234755Y-90840968D01*
X179168824Y-90711572D01*
X179155928Y-90642903D01*
X179182204Y-90578162D01*
X179239311Y-90537905D01*
X179309116Y-90534913D01*
X179366990Y-90567596D01*
X188043181Y-99243787D01*
X188076666Y-99305110D01*
X188079500Y-99331468D01*
X188079500Y-123658531D01*
X188059815Y-123725570D01*
X188043181Y-123746212D01*
X185666211Y-126123181D01*
X185604888Y-126156666D01*
X185578530Y-126159500D01*
X184709998Y-126159500D01*
X184709980Y-126159501D01*
X184607203Y-126170000D01*
X184607200Y-126170001D01*
X184440668Y-126225185D01*
X184440663Y-126225187D01*
X184291342Y-126317289D01*
X184167289Y-126441342D01*
X184075187Y-126590663D01*
X184075186Y-126590666D01*
X184020001Y-126757203D01*
X184020001Y-126757204D01*
X184020000Y-126757204D01*
X184009500Y-126859983D01*
X184009500Y-127035500D01*
X183989815Y-127102539D01*
X183937011Y-127148294D01*
X183885500Y-127159500D01*
X162647309Y-127159500D01*
X162580270Y-127139815D01*
X162559628Y-127123181D01*
X161939408Y-126502962D01*
X162002993Y-126485925D01*
X162117007Y-126420099D01*
X162210099Y-126327007D01*
X162275925Y-126212993D01*
X162292962Y-126149408D01*
X162925270Y-126781717D01*
X162925270Y-126781716D01*
X162964622Y-126727554D01*
X163061095Y-126538217D01*
X163126757Y-126336130D01*
X163126757Y-126336127D01*
X163160000Y-126126246D01*
X163160000Y-125913753D01*
X163126757Y-125703872D01*
X163126757Y-125703869D01*
X163061095Y-125501782D01*
X162964624Y-125312449D01*
X162925270Y-125258282D01*
X162925269Y-125258282D01*
X162292962Y-125890590D01*
X162275925Y-125827007D01*
X162210099Y-125712993D01*
X162117007Y-125619901D01*
X162002993Y-125554075D01*
X161939409Y-125537037D01*
X162559626Y-124916819D01*
X162620949Y-124883334D01*
X162647307Y-124880500D01*
X185094643Y-124880500D01*
X185094667Y-124880501D01*
X185099778Y-124880501D01*
X185320221Y-124880501D01*
X185320222Y-124880501D01*
X185537951Y-124846015D01*
X185747606Y-124777895D01*
X185923513Y-124688264D01*
X185963614Y-124675812D01*
X186162014Y-124649693D01*
X186389993Y-124588606D01*
X186608049Y-124498284D01*
X186812450Y-124380273D01*
X186999699Y-124236592D01*
X187166592Y-124069699D01*
X187310273Y-123882450D01*
X187428284Y-123678049D01*
X187518606Y-123459993D01*
X187579693Y-123232014D01*
X187610500Y-122998011D01*
X187610500Y-122761989D01*
X187579693Y-122527986D01*
X187518606Y-122300007D01*
X187428284Y-122081951D01*
X187428282Y-122081948D01*
X187428280Y-122081943D01*
X187360389Y-121964354D01*
X187310273Y-121877550D01*
X187232281Y-121775909D01*
X187166593Y-121690302D01*
X187166587Y-121690295D01*
X186999704Y-121523412D01*
X186999697Y-121523406D01*
X186812454Y-121379730D01*
X186812453Y-121379729D01*
X186812450Y-121379727D01*
X186695776Y-121312365D01*
X186608056Y-121261719D01*
X186608045Y-121261714D01*
X186389993Y-121171394D01*
X186162010Y-121110306D01*
X185928020Y-121079501D01*
X185928017Y-121079500D01*
X185928011Y-121079500D01*
X185691989Y-121079500D01*
X185691983Y-121079500D01*
X185691979Y-121079501D01*
X185457989Y-121110306D01*
X185230006Y-121171394D01*
X185011954Y-121261714D01*
X185011943Y-121261719D01*
X184807545Y-121379730D01*
X184620302Y-121523406D01*
X184620295Y-121523412D01*
X184453412Y-121690295D01*
X184453406Y-121690302D01*
X184309733Y-121877541D01*
X184309723Y-121877556D01*
X184274911Y-121937853D01*
X184231634Y-122012812D01*
X184228927Y-122017500D01*
X184178360Y-122065716D01*
X184121540Y-122079500D01*
X170970469Y-122079500D01*
X170949227Y-122073262D01*
X170927143Y-122071685D01*
X170916355Y-122063610D01*
X170903430Y-122059815D01*
X170888933Y-122043085D01*
X170871207Y-122029817D01*
X170866497Y-122017192D01*
X170857675Y-122007011D01*
X170854523Y-121985096D01*
X170846786Y-121964354D01*
X170849648Y-121951189D01*
X170847731Y-121937853D01*
X170856928Y-121917712D01*
X170861633Y-121896080D01*
X170874905Y-121878349D01*
X170876756Y-121874297D01*
X170882782Y-121867825D01*
X170898242Y-121852365D01*
X170898244Y-121852361D01*
X172460827Y-120289778D01*
X175649500Y-120289778D01*
X175649500Y-120510221D01*
X175683985Y-120727952D01*
X175752103Y-120937603D01*
X175752104Y-120937606D01*
X175807481Y-121046286D01*
X175840101Y-121110307D01*
X175852187Y-121134025D01*
X175981752Y-121312358D01*
X175981756Y-121312363D01*
X176137636Y-121468243D01*
X176137641Y-121468247D01*
X176213570Y-121523412D01*
X176315978Y-121597815D01*
X176444375Y-121663237D01*
X176512393Y-121697895D01*
X176512396Y-121697896D01*
X176578885Y-121719499D01*
X176722049Y-121766015D01*
X176939778Y-121800500D01*
X183094643Y-121800500D01*
X183094667Y-121800501D01*
X183099778Y-121800501D01*
X183320221Y-121800501D01*
X183320222Y-121800501D01*
X183537951Y-121766015D01*
X183747606Y-121697895D01*
X183944022Y-121597815D01*
X183971595Y-121577782D01*
X184122365Y-121468242D01*
X184278242Y-121312365D01*
X184278243Y-121312363D01*
X184285303Y-121305303D01*
X184285308Y-121305296D01*
X185969758Y-119620847D01*
X186031079Y-119587364D01*
X186041248Y-119585591D01*
X186162014Y-119569693D01*
X186389993Y-119508606D01*
X186608049Y-119418284D01*
X186812450Y-119300273D01*
X186999699Y-119156592D01*
X187166592Y-118989699D01*
X187310273Y-118802450D01*
X187428284Y-118598049D01*
X187518606Y-118379993D01*
X187579693Y-118152014D01*
X187610500Y-117918011D01*
X187610500Y-117681989D01*
X187579693Y-117447986D01*
X187518606Y-117220007D01*
X187428284Y-117001951D01*
X187428282Y-117001948D01*
X187428280Y-117001943D01*
X187385728Y-116928242D01*
X187310273Y-116797550D01*
X187166592Y-116610301D01*
X187166587Y-116610295D01*
X186999704Y-116443412D01*
X186999697Y-116443406D01*
X186812454Y-116299730D01*
X186812453Y-116299729D01*
X186812450Y-116299727D01*
X186730957Y-116252677D01*
X186608056Y-116181719D01*
X186608045Y-116181714D01*
X186389993Y-116091394D01*
X186162010Y-116030306D01*
X185928020Y-115999501D01*
X185928017Y-115999500D01*
X185928011Y-115999500D01*
X185691989Y-115999500D01*
X185691983Y-115999500D01*
X185691979Y-115999501D01*
X185457989Y-116030306D01*
X185230006Y-116091394D01*
X185011954Y-116181714D01*
X185011943Y-116181719D01*
X184807545Y-116299730D01*
X184620302Y-116443406D01*
X184620295Y-116443412D01*
X184453412Y-116610295D01*
X184453406Y-116610302D01*
X184309730Y-116797545D01*
X184191719Y-117001943D01*
X184191714Y-117001954D01*
X184101394Y-117220006D01*
X184040306Y-117447989D01*
X184024408Y-117568746D01*
X183996141Y-117632642D01*
X183989150Y-117640241D01*
X182666213Y-118963181D01*
X182604890Y-118996666D01*
X182578532Y-118999500D01*
X176939778Y-118999500D01*
X176867201Y-119010995D01*
X176722047Y-119033985D01*
X176512396Y-119102103D01*
X176512393Y-119102104D01*
X176315974Y-119202187D01*
X176137641Y-119331752D01*
X176137636Y-119331756D01*
X175981756Y-119487636D01*
X175981752Y-119487641D01*
X175852187Y-119665974D01*
X175752104Y-119862393D01*
X175752103Y-119862396D01*
X175683985Y-120072047D01*
X175649500Y-120289778D01*
X172460827Y-120289778D01*
X177955296Y-114795309D01*
X177955303Y-114795303D01*
X177962363Y-114788243D01*
X177962365Y-114788242D01*
X178118242Y-114632365D01*
X178247815Y-114454022D01*
X178347895Y-114257606D01*
X178416015Y-114047951D01*
X178423235Y-114002365D01*
X178450501Y-113830222D01*
X178450501Y-113609778D01*
X178450501Y-113605377D01*
X178450500Y-113605362D01*
X178450500Y-112602014D01*
X184010000Y-112602014D01*
X184010000Y-112837985D01*
X184040799Y-113071914D01*
X184101870Y-113299837D01*
X184192160Y-113517819D01*
X184192165Y-113517828D01*
X184310144Y-113722171D01*
X184310145Y-113722172D01*
X184372721Y-113803723D01*
X185208958Y-112967487D01*
X185233978Y-113027890D01*
X185305112Y-113134351D01*
X185395649Y-113224888D01*
X185502110Y-113296022D01*
X185562511Y-113321041D01*
X184726275Y-114157277D01*
X184807827Y-114219854D01*
X184807828Y-114219855D01*
X185012171Y-114337834D01*
X185012180Y-114337839D01*
X185230163Y-114428129D01*
X185230161Y-114428129D01*
X185458085Y-114489200D01*
X185692014Y-114519999D01*
X185692029Y-114520000D01*
X185927971Y-114520000D01*
X185927985Y-114519999D01*
X186161914Y-114489200D01*
X186389837Y-114428129D01*
X186607819Y-114337839D01*
X186607828Y-114337834D01*
X186812181Y-114219850D01*
X186893723Y-114157279D01*
X186893723Y-114157276D01*
X186057487Y-113321041D01*
X186117890Y-113296022D01*
X186224351Y-113224888D01*
X186314888Y-113134351D01*
X186386022Y-113027890D01*
X186411041Y-112967488D01*
X187247276Y-113803723D01*
X187247279Y-113803723D01*
X187309850Y-113722181D01*
X187427834Y-113517828D01*
X187427839Y-113517819D01*
X187518129Y-113299837D01*
X187579200Y-113071914D01*
X187609999Y-112837985D01*
X187610000Y-112837971D01*
X187610000Y-112602028D01*
X187609999Y-112602014D01*
X187579200Y-112368085D01*
X187518129Y-112140162D01*
X187427839Y-111922180D01*
X187427834Y-111922171D01*
X187309855Y-111717828D01*
X187309854Y-111717827D01*
X187247277Y-111636275D01*
X186411041Y-112472511D01*
X186386022Y-112412110D01*
X186314888Y-112305649D01*
X186224351Y-112215112D01*
X186117890Y-112143978D01*
X186057488Y-112118958D01*
X186893723Y-111282721D01*
X186812172Y-111220145D01*
X186812171Y-111220144D01*
X186607828Y-111102165D01*
X186607819Y-111102160D01*
X186389836Y-111011870D01*
X186389838Y-111011870D01*
X186161914Y-110950799D01*
X185927985Y-110920000D01*
X185692014Y-110920000D01*
X185458085Y-110950799D01*
X185230162Y-111011870D01*
X185012180Y-111102160D01*
X185012171Y-111102165D01*
X184807828Y-111220144D01*
X184807818Y-111220150D01*
X184726275Y-111282720D01*
X184726275Y-111282721D01*
X185562512Y-112118958D01*
X185502110Y-112143978D01*
X185395649Y-112215112D01*
X185305112Y-112305649D01*
X185233978Y-112412110D01*
X185208958Y-112472511D01*
X184372721Y-111636275D01*
X184372720Y-111636275D01*
X184310150Y-111717818D01*
X184310144Y-111717828D01*
X184192165Y-111922171D01*
X184192160Y-111922180D01*
X184101870Y-112140162D01*
X184040799Y-112368085D01*
X184010000Y-112602014D01*
X178450500Y-112602014D01*
X178450500Y-110647672D01*
X178456569Y-110609354D01*
X178477293Y-110545571D01*
X178496015Y-110487951D01*
X178501647Y-110452395D01*
X178530501Y-110270222D01*
X178530501Y-110049778D01*
X178530501Y-110045377D01*
X178530500Y-110045362D01*
X178530500Y-105989778D01*
X178496015Y-105772049D01*
X178438071Y-105593713D01*
X178427896Y-105562396D01*
X178427895Y-105562393D01*
X178393237Y-105494375D01*
X178327815Y-105365978D01*
X178311260Y-105343192D01*
X178198247Y-105187641D01*
X178198243Y-105187636D01*
X178042363Y-105031756D01*
X178042358Y-105031752D01*
X177864025Y-104902187D01*
X177864024Y-104902186D01*
X177864022Y-104902185D01*
X177801096Y-104870122D01*
X177667606Y-104802104D01*
X177667603Y-104802103D01*
X177457952Y-104733985D01*
X177349086Y-104716742D01*
X177240222Y-104699500D01*
X177019778Y-104699500D01*
X176947201Y-104710995D01*
X176802047Y-104733985D01*
X176592396Y-104802103D01*
X176592393Y-104802104D01*
X176395974Y-104902187D01*
X176217641Y-105031752D01*
X176217636Y-105031756D01*
X176061756Y-105187636D01*
X176061752Y-105187641D01*
X175932185Y-105365976D01*
X175844984Y-105537116D01*
X175797010Y-105587911D01*
X175729189Y-105604706D01*
X175663054Y-105582168D01*
X175619603Y-105527453D01*
X175610500Y-105480820D01*
X175610500Y-96232014D01*
X175630185Y-96164975D01*
X175682989Y-96119220D01*
X175752147Y-96109276D01*
X175815703Y-96138301D01*
X175853477Y-96197079D01*
X175856973Y-96212616D01*
X175862009Y-96244417D01*
X175925244Y-96439031D01*
X176018141Y-96621350D01*
X176018147Y-96621359D01*
X176050523Y-96665921D01*
X176050524Y-96665922D01*
X176730000Y-95986446D01*
X176730000Y-95992661D01*
X176757259Y-96094394D01*
X176809920Y-96185606D01*
X176884394Y-96260080D01*
X176975606Y-96312741D01*
X177077339Y-96340000D01*
X177083553Y-96340000D01*
X176404076Y-97019474D01*
X176448650Y-97051859D01*
X176630968Y-97144755D01*
X176825582Y-97207990D01*
X177027683Y-97240000D01*
X177232317Y-97240000D01*
X177434417Y-97207990D01*
X177629031Y-97144755D01*
X177811349Y-97051859D01*
X177855921Y-97019474D01*
X177176447Y-96340000D01*
X177182661Y-96340000D01*
X177284394Y-96312741D01*
X177375606Y-96260080D01*
X177450080Y-96185606D01*
X177502741Y-96094394D01*
X177530000Y-95992661D01*
X177530000Y-95986448D01*
X178209474Y-96665922D01*
X178209474Y-96665921D01*
X178241859Y-96621349D01*
X178334755Y-96439031D01*
X178397990Y-96244417D01*
X178430000Y-96042317D01*
X178430000Y-95837682D01*
X178397990Y-95635582D01*
X178334755Y-95440968D01*
X178241859Y-95258650D01*
X178209474Y-95214077D01*
X178209474Y-95214076D01*
X177530000Y-95893551D01*
X177530000Y-95887339D01*
X177502741Y-95785606D01*
X177450080Y-95694394D01*
X177375606Y-95619920D01*
X177284394Y-95567259D01*
X177182661Y-95540000D01*
X177176446Y-95540000D01*
X177855922Y-94860524D01*
X177855921Y-94860523D01*
X177811359Y-94828147D01*
X177811350Y-94828141D01*
X177629031Y-94735244D01*
X177434417Y-94672009D01*
X177232317Y-94640000D01*
X177027683Y-94640000D01*
X176825582Y-94672009D01*
X176630968Y-94735244D01*
X176448644Y-94828143D01*
X176404077Y-94860523D01*
X176404077Y-94860524D01*
X177083554Y-95540000D01*
X177077339Y-95540000D01*
X176975606Y-95567259D01*
X176884394Y-95619920D01*
X176809920Y-95694394D01*
X176757259Y-95785606D01*
X176730000Y-95887339D01*
X176730000Y-95893553D01*
X176050524Y-95214077D01*
X176050523Y-95214077D01*
X176018143Y-95258644D01*
X175925244Y-95440968D01*
X175862010Y-95635581D01*
X175856973Y-95667384D01*
X175827043Y-95730518D01*
X175767732Y-95767449D01*
X175697869Y-95766451D01*
X175639637Y-95727841D01*
X175611523Y-95663877D01*
X175610500Y-95647985D01*
X175610500Y-93479778D01*
X175586453Y-93327952D01*
X175576015Y-93262049D01*
X175507895Y-93052394D01*
X175507895Y-93052393D01*
X175473237Y-92984375D01*
X175407815Y-92855978D01*
X175391260Y-92833192D01*
X175278247Y-92677641D01*
X175278243Y-92677636D01*
X169206819Y-86606212D01*
X169173334Y-86544889D01*
X169170500Y-86518531D01*
X169170500Y-73073276D01*
X169170501Y-73073251D01*
X169170501Y-72847699D01*
X169157870Y-72767951D01*
X169136015Y-72629968D01*
X169119780Y-72580000D01*
X169067898Y-72420319D01*
X169067894Y-72420308D01*
X168967814Y-72223895D01*
X168838248Y-72045561D01*
X168838244Y-72045557D01*
X168838242Y-72045554D01*
X168682365Y-71889677D01*
X168682364Y-71889676D01*
X168679253Y-71886565D01*
X168679238Y-71886551D01*
X165784663Y-68991976D01*
X165784654Y-68991966D01*
X165758391Y-68965703D01*
X165624446Y-68831758D01*
X165624442Y-68831755D01*
X165624438Y-68831751D01*
X165446106Y-68702187D01*
X165446105Y-68702186D01*
X165446103Y-68702185D01*
X165359178Y-68657894D01*
X165249687Y-68602104D01*
X165249684Y-68602103D01*
X165040033Y-68533985D01*
X164931167Y-68516742D01*
X164822303Y-68499499D01*
X164650470Y-68499499D01*
X164583431Y-68479814D01*
X164537676Y-68427010D01*
X164527732Y-68357852D01*
X164556757Y-68294296D01*
X164562789Y-68287818D01*
X164578242Y-68272365D01*
X164707815Y-68094022D01*
X164782875Y-67946710D01*
X164807896Y-67897605D01*
X164807896Y-67897603D01*
X164810352Y-67890042D01*
X164876015Y-67687951D01*
X164910500Y-67470222D01*
X164910500Y-67249778D01*
X164876015Y-67032049D01*
X164807895Y-66822394D01*
X164807895Y-66822393D01*
X164723072Y-66655922D01*
X164707815Y-66625978D01*
X164691260Y-66603192D01*
X164578247Y-66447641D01*
X164578243Y-66447636D01*
X164422363Y-66291756D01*
X164422358Y-66291752D01*
X164282745Y-66190318D01*
X164240079Y-66134989D01*
X164234100Y-66065375D01*
X164266705Y-66003580D01*
X164282745Y-65989682D01*
X164422358Y-65888247D01*
X164422365Y-65888242D01*
X164495275Y-65815332D01*
X164578242Y-65732365D01*
X164707815Y-65554022D01*
X164807895Y-65357606D01*
X164876015Y-65147951D01*
X164910500Y-64930222D01*
X164910500Y-64709778D01*
X164876015Y-64492049D01*
X164807895Y-64282394D01*
X164807895Y-64282393D01*
X164773237Y-64214375D01*
X164707815Y-64085978D01*
X164694511Y-64067667D01*
X164578245Y-63907638D01*
X164422363Y-63751756D01*
X164422358Y-63751752D01*
X164282745Y-63650318D01*
X164240079Y-63594989D01*
X164234100Y-63525375D01*
X164266705Y-63463580D01*
X164282745Y-63449682D01*
X164422358Y-63348247D01*
X164422356Y-63348247D01*
X164422365Y-63348242D01*
X164578242Y-63192365D01*
X164707815Y-63014022D01*
X164807895Y-62817606D01*
X164876015Y-62607951D01*
X164910500Y-62390222D01*
X164910500Y-62169778D01*
X164876015Y-61952049D01*
X164807895Y-61742394D01*
X164807895Y-61742393D01*
X164756941Y-61642393D01*
X164707815Y-61545978D01*
X164635161Y-61445978D01*
X164578247Y-61367641D01*
X164578243Y-61367636D01*
X164422363Y-61211756D01*
X164422358Y-61211752D01*
X164240212Y-61079416D01*
X164197546Y-61024087D01*
X164191567Y-60954473D01*
X164224172Y-60892678D01*
X164240212Y-60878780D01*
X164389786Y-60770109D01*
X164389788Y-60770106D01*
X164389792Y-60770104D01*
X164540104Y-60619792D01*
X164540106Y-60619788D01*
X164540109Y-60619786D01*
X164665048Y-60447820D01*
X164665047Y-60447820D01*
X164665051Y-60447816D01*
X164761557Y-60258412D01*
X164827246Y-60056243D01*
X164860500Y-59846287D01*
X164860500Y-59633713D01*
X164827246Y-59423757D01*
X164761557Y-59221588D01*
X164665051Y-59032184D01*
X164665049Y-59032181D01*
X164665048Y-59032179D01*
X164540109Y-58860213D01*
X164389790Y-58709894D01*
X164389785Y-58709890D01*
X164240212Y-58601219D01*
X164197546Y-58545889D01*
X164191567Y-58476276D01*
X164224173Y-58414481D01*
X164240212Y-58400582D01*
X164244016Y-58397817D01*
X164244022Y-58397815D01*
X164422365Y-58268242D01*
X164578242Y-58112365D01*
X164707815Y-57934022D01*
X164807895Y-57737606D01*
X164876015Y-57527951D01*
X164910500Y-57310222D01*
X164910500Y-57089778D01*
X164876015Y-56872049D01*
X164807895Y-56662394D01*
X164807895Y-56662393D01*
X164773237Y-56594375D01*
X164707815Y-56465978D01*
X164691260Y-56443192D01*
X164578247Y-56287641D01*
X164578243Y-56287636D01*
X164422363Y-56131756D01*
X164422358Y-56131752D01*
X164240212Y-55999416D01*
X164197546Y-55944087D01*
X164191567Y-55874473D01*
X164224172Y-55812678D01*
X164240212Y-55798780D01*
X164389786Y-55690109D01*
X164389788Y-55690106D01*
X164389792Y-55690104D01*
X164540104Y-55539792D01*
X164540106Y-55539788D01*
X164540109Y-55539786D01*
X164665048Y-55367820D01*
X164665047Y-55367820D01*
X164665051Y-55367816D01*
X164761557Y-55178412D01*
X164827246Y-54976243D01*
X164860500Y-54766287D01*
X164860500Y-54553713D01*
X164827246Y-54343757D01*
X164761557Y-54141588D01*
X164665051Y-53952184D01*
X164665049Y-53952181D01*
X164665048Y-53952179D01*
X164540109Y-53780213D01*
X164426181Y-53666285D01*
X164392696Y-53604962D01*
X164397680Y-53535270D01*
X164439552Y-53479337D01*
X164470529Y-53462422D01*
X164602086Y-53413354D01*
X164602093Y-53413350D01*
X164717187Y-53327190D01*
X164717190Y-53327187D01*
X164803350Y-53212093D01*
X164803354Y-53212086D01*
X164853596Y-53077379D01*
X164853598Y-53077372D01*
X164859999Y-53017844D01*
X164860000Y-53017827D01*
X164860000Y-52370000D01*
X163943012Y-52370000D01*
X163975925Y-52312993D01*
X164010000Y-52185826D01*
X164010000Y-52054174D01*
X163975925Y-51927007D01*
X163943012Y-51870000D01*
X164860000Y-51870000D01*
X164860000Y-51222172D01*
X164859999Y-51222155D01*
X164853598Y-51162627D01*
X164853596Y-51162620D01*
X164803354Y-51027913D01*
X164803350Y-51027906D01*
X164717190Y-50912812D01*
X164717187Y-50912809D01*
X164602093Y-50826649D01*
X164602086Y-50826645D01*
X164467379Y-50776403D01*
X164467372Y-50776401D01*
X164407844Y-50770000D01*
X163760000Y-50770000D01*
X163760000Y-51686988D01*
X163702993Y-51654075D01*
X163575826Y-51620000D01*
X163444174Y-51620000D01*
X163317007Y-51654075D01*
X163260000Y-51686988D01*
X163260000Y-50770000D01*
X162612155Y-50770000D01*
X162552627Y-50776401D01*
X162552620Y-50776403D01*
X162417913Y-50826645D01*
X162417906Y-50826649D01*
X162302812Y-50912809D01*
X162302809Y-50912812D01*
X162216649Y-51027906D01*
X162216645Y-51027913D01*
X162166403Y-51162620D01*
X162166401Y-51162627D01*
X162160000Y-51222155D01*
X162160000Y-51870000D01*
X163076988Y-51870000D01*
X163044075Y-51927007D01*
X163010000Y-52054174D01*
X163010000Y-52185826D01*
X163044075Y-52312993D01*
X163076988Y-52370000D01*
X162160000Y-52370000D01*
X162160000Y-53017844D01*
X162166401Y-53077372D01*
X162166403Y-53077379D01*
X162216645Y-53212086D01*
X162216649Y-53212093D01*
X162302809Y-53327187D01*
X162302812Y-53327190D01*
X162417906Y-53413350D01*
X162417913Y-53413354D01*
X162549470Y-53462422D01*
X162605404Y-53504293D01*
X162629821Y-53569758D01*
X162614969Y-53638031D01*
X162593819Y-53666285D01*
X162479889Y-53780215D01*
X162354951Y-53952179D01*
X162258444Y-54141585D01*
X162192753Y-54343760D01*
X162159500Y-54553713D01*
X162159500Y-54766286D01*
X162192111Y-54972187D01*
X162192754Y-54976243D01*
X162233536Y-55101758D01*
X162258444Y-55178414D01*
X162354951Y-55367820D01*
X162479890Y-55539786D01*
X162527923Y-55587819D01*
X162561408Y-55649142D01*
X162556424Y-55718834D01*
X162514552Y-55774767D01*
X162449088Y-55799184D01*
X162440242Y-55799500D01*
X151895357Y-55799500D01*
X151895333Y-55799499D01*
X151890222Y-55799499D01*
X151669779Y-55799499D01*
X151626233Y-55806396D01*
X151452045Y-55833985D01*
X151242403Y-55902100D01*
X151242395Y-55902103D01*
X151242395Y-55902104D01*
X151094923Y-55977246D01*
X151094922Y-55977245D01*
X151045976Y-56002185D01*
X150867641Y-56131752D01*
X150867636Y-56131756D01*
X145731754Y-61267638D01*
X145670850Y-61351468D01*
X145648677Y-61381987D01*
X145625431Y-61413982D01*
X145602185Y-61445977D01*
X145502104Y-61642393D01*
X145502103Y-61642396D01*
X145433985Y-61852047D01*
X145399499Y-62069779D01*
X145399499Y-62295332D01*
X145399500Y-62295357D01*
X145399500Y-65273881D01*
X145393431Y-65312199D01*
X145373984Y-65372047D01*
X145339499Y-65589779D01*
X145339499Y-65815332D01*
X145339500Y-65815357D01*
X145339500Y-97258532D01*
X145319815Y-97325571D01*
X145303181Y-97346213D01*
X143466213Y-99183181D01*
X143404890Y-99216666D01*
X143378532Y-99219500D01*
X137479758Y-99219500D01*
X137412719Y-99199815D01*
X137366964Y-99147011D01*
X137357020Y-99077853D01*
X137386045Y-99014297D01*
X137392077Y-99007819D01*
X137440104Y-98959792D01*
X137440106Y-98959788D01*
X137440109Y-98959786D01*
X137565048Y-98787820D01*
X137565047Y-98787820D01*
X137565051Y-98787816D01*
X137661557Y-98598412D01*
X137727246Y-98396243D01*
X137760500Y-98186287D01*
X137760500Y-97973713D01*
X137727246Y-97763757D01*
X137661557Y-97561588D01*
X137565051Y-97372184D01*
X137565049Y-97372181D01*
X137565048Y-97372179D01*
X137440109Y-97200213D01*
X137289786Y-97049890D01*
X137117820Y-96924951D01*
X137117115Y-96924591D01*
X137109054Y-96920485D01*
X137058259Y-96872512D01*
X137041463Y-96804692D01*
X137063999Y-96738556D01*
X137109054Y-96699515D01*
X137117816Y-96695051D01*
X137157910Y-96665921D01*
X137289786Y-96570109D01*
X137289788Y-96570106D01*
X137289792Y-96570104D01*
X137440104Y-96419792D01*
X137440106Y-96419788D01*
X137440109Y-96419786D01*
X137565048Y-96247820D01*
X137565047Y-96247820D01*
X137565051Y-96247816D01*
X137661557Y-96058412D01*
X137727246Y-95856243D01*
X137760500Y-95646287D01*
X137760500Y-95433713D01*
X137727246Y-95223757D01*
X137661557Y-95021588D01*
X137565051Y-94832184D01*
X137565049Y-94832181D01*
X137565048Y-94832179D01*
X137440109Y-94660213D01*
X137326569Y-94546673D01*
X137293084Y-94485350D01*
X137298068Y-94415658D01*
X137339940Y-94359725D01*
X137370915Y-94342810D01*
X137502331Y-94293796D01*
X137617546Y-94207546D01*
X137703796Y-94092331D01*
X137754091Y-93957483D01*
X137760500Y-93897873D01*
X137760499Y-92102128D01*
X137754091Y-92042517D01*
X137746196Y-92021350D01*
X137703797Y-91907671D01*
X137703793Y-91907664D01*
X137617547Y-91792455D01*
X137617544Y-91792452D01*
X137502335Y-91706206D01*
X137502328Y-91706202D01*
X137367482Y-91655908D01*
X137367483Y-91655908D01*
X137307883Y-91649501D01*
X137307881Y-91649500D01*
X137307873Y-91649500D01*
X137307864Y-91649500D01*
X135512129Y-91649500D01*
X135512123Y-91649501D01*
X135452516Y-91655908D01*
X135317671Y-91706202D01*
X135317664Y-91706206D01*
X135202455Y-91792452D01*
X135202452Y-91792455D01*
X135116206Y-91907664D01*
X135116202Y-91907671D01*
X135065908Y-92042517D01*
X135059501Y-92102116D01*
X135059501Y-92102123D01*
X135059500Y-92102135D01*
X135059500Y-93897870D01*
X135059501Y-93897876D01*
X135065908Y-93957483D01*
X135116202Y-94092328D01*
X135116206Y-94092335D01*
X135202452Y-94207544D01*
X135202455Y-94207547D01*
X135317664Y-94293793D01*
X135317671Y-94293797D01*
X135449082Y-94342810D01*
X135505016Y-94384681D01*
X135529433Y-94450145D01*
X135514582Y-94518418D01*
X135493431Y-94546673D01*
X135379889Y-94660215D01*
X135254951Y-94832179D01*
X135158444Y-95021585D01*
X135092753Y-95223760D01*
X135087228Y-95258644D01*
X135059500Y-95433713D01*
X135059500Y-95646287D01*
X135067119Y-95694394D01*
X135091030Y-95845362D01*
X135092754Y-95856243D01*
X135153213Y-96042317D01*
X135158444Y-96058414D01*
X135254951Y-96247820D01*
X135379890Y-96419786D01*
X135530213Y-96570109D01*
X135702182Y-96695050D01*
X135710946Y-96699516D01*
X135761742Y-96747491D01*
X135778536Y-96815312D01*
X135755998Y-96881447D01*
X135710946Y-96920484D01*
X135702182Y-96924949D01*
X135530213Y-97049890D01*
X135379890Y-97200213D01*
X135254951Y-97372179D01*
X135158444Y-97561585D01*
X135092753Y-97763760D01*
X135059500Y-97973713D01*
X135059500Y-98186285D01*
X135088921Y-98372047D01*
X135092754Y-98396243D01*
X135155638Y-98589780D01*
X135158444Y-98598414D01*
X135254951Y-98787820D01*
X135379890Y-98959786D01*
X135530209Y-99110105D01*
X135530214Y-99110109D01*
X135679787Y-99218780D01*
X135722453Y-99274110D01*
X135728432Y-99343723D01*
X135695827Y-99405518D01*
X135679787Y-99419416D01*
X135497641Y-99551752D01*
X135497636Y-99551756D01*
X135341756Y-99707636D01*
X135341752Y-99707641D01*
X135212187Y-99885974D01*
X135112104Y-100082393D01*
X135112103Y-100082396D01*
X135043985Y-100292047D01*
X135009500Y-100509778D01*
X135009500Y-100730221D01*
X135043985Y-100947951D01*
X135112103Y-101157603D01*
X135112104Y-101157606D01*
X135161065Y-101253695D01*
X135198834Y-101327820D01*
X135212187Y-101354025D01*
X135341752Y-101532358D01*
X135341756Y-101532363D01*
X135497640Y-101688247D01*
X135679787Y-101820583D01*
X135722453Y-101875912D01*
X135728432Y-101945526D01*
X135695827Y-102007321D01*
X135679788Y-102021219D01*
X135530209Y-102129894D01*
X135379890Y-102280213D01*
X135254951Y-102452179D01*
X135158444Y-102641585D01*
X135092753Y-102843760D01*
X135059500Y-103053713D01*
X135059500Y-103266286D01*
X135092753Y-103476239D01*
X135158444Y-103678414D01*
X135254951Y-103867820D01*
X135379890Y-104039786D01*
X135530213Y-104190109D01*
X135702182Y-104315050D01*
X135710946Y-104319516D01*
X135761742Y-104367491D01*
X135778536Y-104435312D01*
X135755998Y-104501447D01*
X135710946Y-104540484D01*
X135702182Y-104544949D01*
X135530213Y-104669890D01*
X135379890Y-104820213D01*
X135254951Y-104992179D01*
X135158444Y-105181585D01*
X135092753Y-105383760D01*
X135059500Y-105593713D01*
X135059500Y-105806286D01*
X135092753Y-106016239D01*
X135158444Y-106218414D01*
X135254951Y-106407820D01*
X135379890Y-106579786D01*
X135530213Y-106730109D01*
X135702182Y-106855050D01*
X135710946Y-106859516D01*
X135761742Y-106907491D01*
X135778536Y-106975312D01*
X135755998Y-107041447D01*
X135710946Y-107080484D01*
X135702182Y-107084949D01*
X135530213Y-107209890D01*
X135379890Y-107360213D01*
X135254951Y-107532179D01*
X135158444Y-107721585D01*
X135092753Y-107923760D01*
X135059500Y-108133713D01*
X135059500Y-108346286D01*
X135092753Y-108556239D01*
X135158444Y-108758414D01*
X135254951Y-108947820D01*
X135379890Y-109119786D01*
X135530213Y-109270109D01*
X135702182Y-109395050D01*
X135710946Y-109399516D01*
X135761742Y-109447491D01*
X135778536Y-109515312D01*
X135755998Y-109581447D01*
X135710946Y-109620484D01*
X135702182Y-109624949D01*
X135530213Y-109749890D01*
X135379890Y-109900213D01*
X135254951Y-110072179D01*
X135158444Y-110261585D01*
X135092753Y-110463760D01*
X135059500Y-110673713D01*
X135059500Y-110886286D01*
X135079390Y-111011870D01*
X135092754Y-111096243D01*
X135153344Y-111282720D01*
X135158444Y-111298414D01*
X135254951Y-111487820D01*
X135379890Y-111659786D01*
X135530213Y-111810109D01*
X135702182Y-111935050D01*
X135710946Y-111939516D01*
X135761742Y-111987491D01*
X135778536Y-112055312D01*
X135755998Y-112121447D01*
X135710946Y-112160484D01*
X135702182Y-112164949D01*
X135530213Y-112289890D01*
X135379890Y-112440213D01*
X135254951Y-112612179D01*
X135158444Y-112801585D01*
X135092753Y-113003760D01*
X135083471Y-113062365D01*
X135059500Y-113213713D01*
X135059500Y-113426287D01*
X135092754Y-113636243D01*
X135155781Y-113830220D01*
X135158444Y-113838414D01*
X135254951Y-114027820D01*
X135379890Y-114199786D01*
X135530209Y-114350105D01*
X135530214Y-114350109D01*
X135679787Y-114458780D01*
X135722453Y-114514110D01*
X135728432Y-114583723D01*
X135695827Y-114645518D01*
X135679787Y-114659416D01*
X135497641Y-114791752D01*
X135497636Y-114791756D01*
X135341756Y-114947636D01*
X135341752Y-114947641D01*
X135212187Y-115125974D01*
X135112104Y-115322393D01*
X135112103Y-115322396D01*
X135043985Y-115532047D01*
X135009500Y-115749778D01*
X135009500Y-115970221D01*
X135043985Y-116187952D01*
X135112103Y-116397603D01*
X135112104Y-116397606D01*
X135212187Y-116594025D01*
X135341752Y-116772358D01*
X135341756Y-116772363D01*
X135497640Y-116928247D01*
X135679787Y-117060583D01*
X135722453Y-117115912D01*
X135728432Y-117185526D01*
X135695827Y-117247321D01*
X135679788Y-117261219D01*
X135530209Y-117369894D01*
X135379890Y-117520213D01*
X135254951Y-117692179D01*
X135158444Y-117881585D01*
X135092753Y-118083760D01*
X135081943Y-118152014D01*
X135059500Y-118293713D01*
X135059500Y-118506287D01*
X135092754Y-118716243D01*
X135120764Y-118802450D01*
X135158444Y-118918414D01*
X135254951Y-119107820D01*
X135379890Y-119279786D01*
X135530213Y-119430109D01*
X135702182Y-119555050D01*
X135710946Y-119559516D01*
X135761742Y-119607491D01*
X135778536Y-119675312D01*
X135755998Y-119741447D01*
X135710946Y-119780484D01*
X135702182Y-119784949D01*
X135530213Y-119909890D01*
X135379890Y-120060213D01*
X135254951Y-120232179D01*
X135158444Y-120421585D01*
X135092753Y-120623760D01*
X135076251Y-120727951D01*
X135059500Y-120833713D01*
X135059500Y-121046287D01*
X135092754Y-121256243D01*
X135110989Y-121312365D01*
X135158444Y-121458414D01*
X135254951Y-121647820D01*
X135379890Y-121819786D01*
X135530213Y-121970109D01*
X135702182Y-122095050D01*
X135710946Y-122099516D01*
X135761742Y-122147491D01*
X135778536Y-122215312D01*
X135755998Y-122281447D01*
X135710946Y-122320484D01*
X135702182Y-122324949D01*
X135530213Y-122449890D01*
X135379890Y-122600213D01*
X135254951Y-122772179D01*
X135158444Y-122961585D01*
X135092753Y-123163760D01*
X135059500Y-123373713D01*
X135059500Y-123586286D01*
X135079077Y-123709894D01*
X135092754Y-123796243D01*
X135120764Y-123882450D01*
X135158444Y-123998414D01*
X135254951Y-124187820D01*
X135379890Y-124359786D01*
X135530213Y-124510109D01*
X135702179Y-124635048D01*
X135702181Y-124635049D01*
X135702184Y-124635051D01*
X135711493Y-124639794D01*
X135762290Y-124687766D01*
X135779087Y-124755587D01*
X135756552Y-124821722D01*
X135711505Y-124860760D01*
X135702446Y-124865376D01*
X135702440Y-124865380D01*
X135648282Y-124904727D01*
X135648282Y-124904728D01*
X136280591Y-125537037D01*
X136217007Y-125554075D01*
X136102993Y-125619901D01*
X136009901Y-125712993D01*
X135944075Y-125827007D01*
X135927037Y-125890591D01*
X135294728Y-125258282D01*
X135294727Y-125258282D01*
X135255380Y-125312439D01*
X135158904Y-125501782D01*
X135093242Y-125703869D01*
X135093242Y-125703872D01*
X135060000Y-125913753D01*
X135060000Y-126126246D01*
X135093242Y-126336127D01*
X135093242Y-126336130D01*
X135158904Y-126538217D01*
X135255375Y-126727550D01*
X135294728Y-126781716D01*
X135927037Y-126149408D01*
X135944075Y-126212993D01*
X136009901Y-126327007D01*
X136102993Y-126420099D01*
X136217007Y-126485925D01*
X136280591Y-126502962D01*
X135660372Y-127123181D01*
X135599049Y-127156666D01*
X135572691Y-127159500D01*
X120086468Y-127159500D01*
X120019429Y-127139815D01*
X119998787Y-127123181D01*
X115401818Y-122526212D01*
X115368333Y-122464889D01*
X115365499Y-122438531D01*
X115365499Y-122222129D01*
X115365498Y-122222123D01*
X115365497Y-122222116D01*
X115359091Y-122162517D01*
X115335592Y-122099514D01*
X115308797Y-122027671D01*
X115308793Y-122027664D01*
X115222547Y-121912455D01*
X115222544Y-121912452D01*
X115107335Y-121826206D01*
X115107328Y-121826202D01*
X114972482Y-121775908D01*
X114972483Y-121775908D01*
X114912883Y-121769501D01*
X114912881Y-121769500D01*
X114912873Y-121769500D01*
X114912865Y-121769500D01*
X114410342Y-121769500D01*
X114372024Y-121763431D01*
X114342952Y-121753984D01*
X114151410Y-121723647D01*
X114125222Y-121719499D01*
X113904778Y-121719499D01*
X113876232Y-121724020D01*
X113687055Y-121753983D01*
X113687042Y-121753986D01*
X113657971Y-121763432D01*
X113619656Y-121769500D01*
X113117129Y-121769500D01*
X113117123Y-121769501D01*
X113057516Y-121775908D01*
X112922671Y-121826202D01*
X112922664Y-121826206D01*
X112807455Y-121912452D01*
X112807452Y-121912455D01*
X112721206Y-122027664D01*
X112721202Y-122027671D01*
X112670908Y-122162517D01*
X112664501Y-122222116D01*
X112664501Y-122222123D01*
X112664500Y-122222135D01*
X112664500Y-122724658D01*
X112658431Y-122762976D01*
X112648984Y-122792047D01*
X112622132Y-122961585D01*
X112614499Y-123009778D01*
X96670978Y-123009778D01*
X96648012Y-122970000D01*
X97565000Y-122970000D01*
X97565000Y-122322172D01*
X97564999Y-122322155D01*
X97558598Y-122262627D01*
X97558596Y-122262620D01*
X97508354Y-122127913D01*
X97508350Y-122127906D01*
X97422190Y-122012812D01*
X97422187Y-122012809D01*
X97307093Y-121926649D01*
X97307086Y-121926645D01*
X97172379Y-121876403D01*
X97172372Y-121876401D01*
X97112844Y-121870000D01*
X96465000Y-121870000D01*
X96465000Y-122786988D01*
X96407993Y-122754075D01*
X96280826Y-122720000D01*
X96149174Y-122720000D01*
X96022007Y-122754075D01*
X95965000Y-122786988D01*
X95965000Y-121870000D01*
X95317155Y-121870000D01*
X95257627Y-121876401D01*
X95257620Y-121876403D01*
X95122913Y-121926645D01*
X95122906Y-121926649D01*
X95007812Y-122012809D01*
X95007809Y-122012812D01*
X94921649Y-122127906D01*
X94921645Y-122127913D01*
X94871403Y-122262620D01*
X94871401Y-122262627D01*
X94865000Y-122322155D01*
X93100500Y-122322155D01*
X93100500Y-82409779D01*
X94814499Y-82409779D01*
X94814499Y-82630220D01*
X94848983Y-82847944D01*
X94848985Y-82847952D01*
X94858432Y-82877027D01*
X94864500Y-82915343D01*
X94864500Y-83417870D01*
X94864501Y-83417876D01*
X94870908Y-83477483D01*
X94921202Y-83612328D01*
X94921206Y-83612335D01*
X95007452Y-83727544D01*
X95007455Y-83727547D01*
X95122664Y-83813793D01*
X95122671Y-83813797D01*
X95167618Y-83830561D01*
X95257517Y-83864091D01*
X95317127Y-83870500D01*
X95819656Y-83870499D01*
X95857973Y-83876568D01*
X95877153Y-83882799D01*
X95887049Y-83886015D01*
X96104778Y-83920501D01*
X96104779Y-83920501D01*
X96325221Y-83920501D01*
X96325222Y-83920501D01*
X96542951Y-83886015D01*
X96572026Y-83876567D01*
X96610343Y-83870499D01*
X97112871Y-83870499D01*
X97112872Y-83870499D01*
X97172483Y-83864091D01*
X97307331Y-83813796D01*
X97422546Y-83727546D01*
X97508796Y-83612331D01*
X97559091Y-83477483D01*
X97565500Y-83417873D01*
X97565499Y-83201467D01*
X97585183Y-83134428D01*
X97601813Y-83113791D01*
X100848242Y-79867365D01*
X100977815Y-79689022D01*
X101077895Y-79492606D01*
X101146015Y-79282951D01*
X101180500Y-79065222D01*
X101180500Y-78844779D01*
X101180500Y-73130469D01*
X101200185Y-73063430D01*
X101252989Y-73017675D01*
X101322147Y-73007731D01*
X101385703Y-73036756D01*
X101392181Y-73042788D01*
X101407636Y-73058243D01*
X101407641Y-73058247D01*
X101530924Y-73147816D01*
X101585978Y-73187815D01*
X101705048Y-73248485D01*
X101782393Y-73287895D01*
X101782396Y-73287896D01*
X101837873Y-73305921D01*
X101992049Y-73356015D01*
X102209778Y-73390500D01*
X102209779Y-73390500D01*
X102430221Y-73390500D01*
X102430222Y-73390500D01*
X102647951Y-73356015D01*
X102857606Y-73287895D01*
X103054022Y-73187815D01*
X103232365Y-73058242D01*
X103388242Y-72902365D01*
X103517815Y-72724022D01*
X103617895Y-72527606D01*
X103686015Y-72317951D01*
X103720500Y-72100222D01*
X103720500Y-59691468D01*
X103740185Y-59624429D01*
X103756819Y-59603787D01*
X104420828Y-58939778D01*
X108549499Y-58939778D01*
X108549499Y-59160222D01*
X108549499Y-59160227D01*
X108549500Y-59165345D01*
X108549500Y-72100221D01*
X108583984Y-72317949D01*
X108593432Y-72347027D01*
X108599500Y-72385343D01*
X108599500Y-72887870D01*
X108599501Y-72887876D01*
X108605908Y-72947483D01*
X108656202Y-73082328D01*
X108656206Y-73082335D01*
X108742452Y-73197544D01*
X108742455Y-73197547D01*
X108857664Y-73283793D01*
X108857671Y-73283797D01*
X108873305Y-73289628D01*
X108992517Y-73334091D01*
X109052127Y-73340500D01*
X109554656Y-73340499D01*
X109592973Y-73346568D01*
X109606464Y-73350951D01*
X109622049Y-73356015D01*
X109839778Y-73390500D01*
X109839779Y-73390500D01*
X110060221Y-73390500D01*
X110060222Y-73390500D01*
X110277951Y-73356015D01*
X110307026Y-73346567D01*
X110345343Y-73340499D01*
X110847871Y-73340499D01*
X110847872Y-73340499D01*
X110907483Y-73334091D01*
X110922165Y-73328615D01*
X110991857Y-73323629D01*
X111053180Y-73357114D01*
X111086666Y-73418436D01*
X111089500Y-73444796D01*
X111089500Y-80555362D01*
X111089499Y-80555377D01*
X111089499Y-80559778D01*
X111089499Y-80780222D01*
X111103640Y-80869500D01*
X111112621Y-80926204D01*
X111123985Y-80997952D01*
X111192103Y-81207603D01*
X111192104Y-81207606D01*
X111292187Y-81404025D01*
X111421751Y-81582357D01*
X111421755Y-81582361D01*
X111421758Y-81582365D01*
X111577635Y-81738242D01*
X111581965Y-81742572D01*
X111581976Y-81742582D01*
X112653181Y-82813787D01*
X112686666Y-82875110D01*
X112689500Y-82901467D01*
X112689500Y-83117869D01*
X112689501Y-83117876D01*
X112695908Y-83177483D01*
X112746202Y-83312328D01*
X112746206Y-83312335D01*
X112832452Y-83427544D01*
X112832455Y-83427547D01*
X112947664Y-83513793D01*
X112947671Y-83513797D01*
X112992618Y-83530561D01*
X113082517Y-83564091D01*
X113142127Y-83570500D01*
X113644656Y-83570499D01*
X113682973Y-83576568D01*
X113702153Y-83582799D01*
X113712049Y-83586015D01*
X113929778Y-83620501D01*
X113929779Y-83620501D01*
X114150221Y-83620501D01*
X114150222Y-83620501D01*
X114367951Y-83586015D01*
X114397025Y-83576567D01*
X114435343Y-83570499D01*
X114937871Y-83570499D01*
X114937872Y-83570499D01*
X114997483Y-83564091D01*
X115132331Y-83513796D01*
X115247546Y-83427546D01*
X115333796Y-83312331D01*
X115384091Y-83177483D01*
X115390500Y-83117873D01*
X115390499Y-82615340D01*
X115396569Y-82577020D01*
X115406015Y-82547951D01*
X115440501Y-82330222D01*
X115440501Y-82109778D01*
X115406015Y-81892049D01*
X115396568Y-81862973D01*
X115390499Y-81824655D01*
X115390499Y-81322129D01*
X115390498Y-81322123D01*
X115389458Y-81312452D01*
X115384091Y-81262517D01*
X115370546Y-81226202D01*
X115333797Y-81127671D01*
X115333793Y-81127664D01*
X115247547Y-81012455D01*
X115247544Y-81012452D01*
X115132335Y-80926206D01*
X115132328Y-80926202D01*
X114997482Y-80875908D01*
X114997483Y-80875908D01*
X114937883Y-80869501D01*
X114937881Y-80869500D01*
X114937873Y-80869500D01*
X114937865Y-80869500D01*
X114721468Y-80869500D01*
X114692027Y-80860855D01*
X114662041Y-80854332D01*
X114657025Y-80850577D01*
X114654429Y-80849815D01*
X114633787Y-80833181D01*
X113926819Y-80126213D01*
X113893334Y-80064890D01*
X113890500Y-80038532D01*
X113890500Y-71879778D01*
X113867123Y-71732184D01*
X113856015Y-71662049D01*
X113840500Y-71614297D01*
X113831339Y-71586100D01*
X113787896Y-71452396D01*
X113787895Y-71452393D01*
X113746805Y-71371752D01*
X113687815Y-71255978D01*
X113645708Y-71198022D01*
X113558247Y-71077641D01*
X113558243Y-71077636D01*
X113402363Y-70921756D01*
X113402358Y-70921752D01*
X113224025Y-70792187D01*
X113224024Y-70792186D01*
X113224022Y-70792185D01*
X113122052Y-70740228D01*
X113027606Y-70692104D01*
X113027603Y-70692103D01*
X112817952Y-70623985D01*
X112709086Y-70606742D01*
X112600222Y-70589500D01*
X112379778Y-70589500D01*
X112307201Y-70600995D01*
X112162047Y-70623985D01*
X111952396Y-70692103D01*
X111952393Y-70692104D01*
X111755974Y-70792187D01*
X111577641Y-70921752D01*
X111577636Y-70921756D01*
X111562181Y-70937212D01*
X111500858Y-70970697D01*
X111431166Y-70965713D01*
X111375233Y-70923841D01*
X111350816Y-70858377D01*
X111350500Y-70849531D01*
X111350500Y-59681468D01*
X111370185Y-59614429D01*
X111386819Y-59593787D01*
X113373787Y-57606819D01*
X113435110Y-57573334D01*
X113461468Y-57570500D01*
X121184643Y-57570500D01*
X121184667Y-57570501D01*
X121189778Y-57570501D01*
X121410221Y-57570501D01*
X121410222Y-57570501D01*
X121627951Y-57536015D01*
X121837606Y-57467895D01*
X122034022Y-57367815D01*
X122113292Y-57310222D01*
X122212365Y-57238242D01*
X122368242Y-57082365D01*
X122368243Y-57082363D01*
X122375303Y-57075303D01*
X122375309Y-57075296D01*
X126533787Y-52916818D01*
X126595110Y-52883333D01*
X126621468Y-52880499D01*
X127490002Y-52880499D01*
X127490008Y-52880499D01*
X127592797Y-52869999D01*
X127759334Y-52814814D01*
X127908656Y-52722712D01*
X128032712Y-52598656D01*
X128124814Y-52449334D01*
X128179999Y-52282797D01*
X128190500Y-52180009D01*
X128190499Y-49979992D01*
X128179999Y-49877203D01*
X128124814Y-49710666D01*
X128032712Y-49561344D01*
X127908656Y-49437288D01*
X127759334Y-49345186D01*
X127592797Y-49290001D01*
X127592795Y-49290000D01*
X127490010Y-49279500D01*
X125289998Y-49279500D01*
X125289981Y-49279501D01*
X125187203Y-49290000D01*
X125187200Y-49290001D01*
X125020668Y-49345185D01*
X125020663Y-49345187D01*
X124871342Y-49437289D01*
X124747289Y-49561342D01*
X124655187Y-49710663D01*
X124655185Y-49710668D01*
X124632891Y-49777948D01*
X124600001Y-49877203D01*
X124600001Y-49877204D01*
X124600000Y-49877204D01*
X124589500Y-49979983D01*
X124589500Y-50848531D01*
X124569815Y-50915570D01*
X124553181Y-50936212D01*
X120756213Y-54733181D01*
X120694890Y-54766666D01*
X120668532Y-54769500D01*
X112945357Y-54769500D01*
X112945333Y-54769499D01*
X112940222Y-54769499D01*
X112719778Y-54769499D01*
X112647201Y-54780994D01*
X112502047Y-54803985D01*
X112292396Y-54872103D01*
X112292393Y-54872104D01*
X112095974Y-54972187D01*
X111917641Y-55101752D01*
X111917636Y-55101756D01*
X108881754Y-58137638D01*
X108823350Y-58218026D01*
X108814576Y-58230104D01*
X108786868Y-58268241D01*
X108752185Y-58315977D01*
X108652104Y-58512393D01*
X108652103Y-58512396D01*
X108583985Y-58722047D01*
X108579422Y-58750858D01*
X108549499Y-58939778D01*
X104420828Y-58939778D01*
X104513381Y-58847225D01*
X106488558Y-56872049D01*
X108863788Y-54496819D01*
X108925111Y-54463334D01*
X108951469Y-54460500D01*
X119214643Y-54460500D01*
X119214667Y-54460501D01*
X119219778Y-54460501D01*
X119440221Y-54460501D01*
X119440222Y-54460501D01*
X119657951Y-54426015D01*
X119867606Y-54357895D01*
X120064022Y-54257815D01*
X120162749Y-54186086D01*
X120242365Y-54128242D01*
X120398242Y-53972365D01*
X120398243Y-53972363D01*
X120405303Y-53965303D01*
X120405309Y-53965296D01*
X121469757Y-52900847D01*
X121531078Y-52867364D01*
X121541246Y-52865591D01*
X121662014Y-52849693D01*
X121889993Y-52788606D01*
X122108049Y-52698284D01*
X122312450Y-52580273D01*
X122499699Y-52436592D01*
X122666592Y-52269699D01*
X122810273Y-52082450D01*
X122928284Y-51878049D01*
X123018606Y-51659993D01*
X123079693Y-51432014D01*
X123110500Y-51198011D01*
X123110500Y-50961989D01*
X123079693Y-50727986D01*
X123018606Y-50500007D01*
X122928284Y-50281951D01*
X122928282Y-50281948D01*
X122928280Y-50281943D01*
X122856422Y-50157483D01*
X122810273Y-50077550D01*
X122666592Y-49890301D01*
X122666587Y-49890295D01*
X122499704Y-49723412D01*
X122499697Y-49723406D01*
X122312454Y-49579730D01*
X122312453Y-49579729D01*
X122312450Y-49579727D01*
X122222768Y-49527949D01*
X122108056Y-49461719D01*
X122108045Y-49461714D01*
X121889993Y-49371394D01*
X121792180Y-49345185D01*
X121662014Y-49310307D01*
X121662013Y-49310306D01*
X121662010Y-49310306D01*
X121428020Y-49279501D01*
X121428017Y-49279500D01*
X121428011Y-49279500D01*
X121191989Y-49279500D01*
X121191983Y-49279500D01*
X121191979Y-49279501D01*
X120957989Y-49310306D01*
X120730006Y-49371394D01*
X120511954Y-49461714D01*
X120511943Y-49461719D01*
X120307545Y-49579730D01*
X120120302Y-49723406D01*
X120120295Y-49723412D01*
X119953412Y-49890295D01*
X119953406Y-49890302D01*
X119809730Y-50077545D01*
X119691719Y-50281943D01*
X119691714Y-50281954D01*
X119601394Y-50500006D01*
X119540306Y-50727989D01*
X119524408Y-50848747D01*
X119496141Y-50912643D01*
X119489150Y-50920242D01*
X118786213Y-51623181D01*
X118724890Y-51656666D01*
X118698532Y-51659500D01*
X108430221Y-51659500D01*
X108209778Y-51659500D01*
X108165923Y-51666446D01*
X107992047Y-51693985D01*
X107782396Y-51762103D01*
X107782393Y-51762104D01*
X107585974Y-51862187D01*
X107407641Y-51991752D01*
X107407636Y-51991756D01*
X101251756Y-58147636D01*
X101251752Y-58147641D01*
X101129450Y-58315976D01*
X101129451Y-58315977D01*
X101122185Y-58325978D01*
X101022106Y-58522388D01*
X101022103Y-58522396D01*
X100953985Y-58732047D01*
X100919499Y-58949779D01*
X100919499Y-59175332D01*
X100919500Y-59175357D01*
X100919500Y-70535203D01*
X100899815Y-70602242D01*
X100847011Y-70647997D01*
X100777853Y-70657941D01*
X100752170Y-70651386D01*
X100737484Y-70645909D01*
X100737483Y-70645908D01*
X100677883Y-70639501D01*
X100677881Y-70639500D01*
X100677873Y-70639500D01*
X100677865Y-70639500D01*
X100175342Y-70639500D01*
X100137024Y-70633431D01*
X100107952Y-70623985D01*
X99999086Y-70606742D01*
X99890222Y-70589500D01*
X99669778Y-70589500D01*
X99560913Y-70606742D01*
X99452048Y-70623985D01*
X99422971Y-70633432D01*
X99384656Y-70639500D01*
X98882129Y-70639500D01*
X98882123Y-70639501D01*
X98822516Y-70645908D01*
X98687671Y-70696202D01*
X98687664Y-70696206D01*
X98572455Y-70782452D01*
X98572452Y-70782455D01*
X98486206Y-70897664D01*
X98486202Y-70897671D01*
X98435908Y-71032517D01*
X98429501Y-71092116D01*
X98429500Y-71092135D01*
X98429500Y-71594658D01*
X98423431Y-71632976D01*
X98413985Y-71662047D01*
X98379500Y-71879778D01*
X98379500Y-78323531D01*
X98359815Y-78390570D01*
X98343181Y-78411212D01*
X95621211Y-81133181D01*
X95559888Y-81166666D01*
X95533531Y-81169500D01*
X95317130Y-81169500D01*
X95317123Y-81169501D01*
X95257516Y-81175908D01*
X95122671Y-81226202D01*
X95122664Y-81226206D01*
X95007455Y-81312452D01*
X95007452Y-81312455D01*
X94921206Y-81427664D01*
X94921202Y-81427671D01*
X94870908Y-81562517D01*
X94864501Y-81622116D01*
X94864500Y-81622135D01*
X94864500Y-82124658D01*
X94858431Y-82162976D01*
X94848984Y-82192047D01*
X94814499Y-82409779D01*
X93100500Y-82409779D01*
X93100500Y-48949778D01*
X98369499Y-48949778D01*
X98369499Y-49170222D01*
X98369500Y-49170228D01*
X98369500Y-49310222D01*
X98374181Y-49339778D01*
X98403984Y-49527949D01*
X98413432Y-49557027D01*
X98419500Y-49595343D01*
X98419500Y-50097870D01*
X98419501Y-50097876D01*
X98425908Y-50157483D01*
X98476202Y-50292328D01*
X98476206Y-50292335D01*
X98562452Y-50407544D01*
X98562455Y-50407547D01*
X98677664Y-50493793D01*
X98677671Y-50493797D01*
X98722618Y-50510561D01*
X98812517Y-50544091D01*
X98872127Y-50550500D01*
X99374656Y-50550499D01*
X99412973Y-50556568D01*
X99431658Y-50562638D01*
X99442049Y-50566015D01*
X99659778Y-50600500D01*
X99659779Y-50600500D01*
X99880221Y-50600500D01*
X99880222Y-50600500D01*
X100097951Y-50566015D01*
X100127026Y-50556567D01*
X100165343Y-50550499D01*
X100667871Y-50550499D01*
X100667872Y-50550499D01*
X100727483Y-50544091D01*
X100862331Y-50493796D01*
X100977546Y-50407546D01*
X101063796Y-50292331D01*
X101114091Y-50157483D01*
X101120500Y-50097873D01*
X101120499Y-49741466D01*
X101140183Y-49674428D01*
X101156813Y-49653791D01*
X105123787Y-45686818D01*
X105185110Y-45653333D01*
X105211468Y-45650499D01*
X105427871Y-45650499D01*
X105427872Y-45650499D01*
X105487483Y-45644091D01*
X105622331Y-45593796D01*
X105737546Y-45507546D01*
X105823796Y-45392331D01*
X105834585Y-45363403D01*
X105876454Y-45307471D01*
X105876454Y-45307470D01*
X105876456Y-45307469D01*
X105917501Y-45292159D01*
X105941918Y-45283052D01*
X105941920Y-45283052D01*
X105956770Y-45286282D01*
X106010191Y-45297902D01*
X106038444Y-45319051D01*
X106157635Y-45438242D01*
X106157638Y-45438244D01*
X106161977Y-45442583D01*
X110763181Y-50043787D01*
X110796666Y-50105110D01*
X110799500Y-50131467D01*
X110799500Y-50347869D01*
X110799501Y-50347876D01*
X110805908Y-50407483D01*
X110856202Y-50542328D01*
X110856206Y-50542335D01*
X110942452Y-50657544D01*
X110942455Y-50657547D01*
X111057664Y-50743793D01*
X111057671Y-50743797D01*
X111079689Y-50752009D01*
X111192517Y-50794091D01*
X111252127Y-50800500D01*
X111754656Y-50800499D01*
X111792973Y-50806568D01*
X111812153Y-50812799D01*
X111822049Y-50816015D01*
X112039778Y-50850501D01*
X112039779Y-50850501D01*
X112260221Y-50850501D01*
X112260222Y-50850501D01*
X112477951Y-50816015D01*
X112507026Y-50806567D01*
X112545343Y-50800499D01*
X113047871Y-50800499D01*
X113047872Y-50800499D01*
X113107483Y-50794091D01*
X113242331Y-50743796D01*
X113357546Y-50657546D01*
X113443796Y-50542331D01*
X113494091Y-50407483D01*
X113500500Y-50347873D01*
X113500499Y-49845340D01*
X113506569Y-49807020D01*
X113516015Y-49777951D01*
X113550501Y-49560222D01*
X113550501Y-49339778D01*
X113516015Y-49122049D01*
X113506568Y-49092973D01*
X113500499Y-49054656D01*
X113500499Y-48552129D01*
X113500498Y-48552123D01*
X113499378Y-48541706D01*
X113494091Y-48492517D01*
X113443796Y-48357669D01*
X113443795Y-48357668D01*
X113443793Y-48357664D01*
X113357547Y-48242455D01*
X113357544Y-48242452D01*
X113242335Y-48156206D01*
X113242328Y-48156202D01*
X113107482Y-48105908D01*
X113107483Y-48105908D01*
X113047883Y-48099501D01*
X113047881Y-48099500D01*
X113047873Y-48099500D01*
X113047865Y-48099500D01*
X112831468Y-48099500D01*
X112764429Y-48079815D01*
X112743787Y-48063181D01*
X108303759Y-43623153D01*
X108280955Y-43591767D01*
X108267812Y-43565973D01*
X108138247Y-43387641D01*
X108138243Y-43387636D01*
X107982363Y-43231756D01*
X107982358Y-43231752D01*
X107804025Y-43102187D01*
X107804024Y-43102186D01*
X107804022Y-43102185D01*
X107741096Y-43070122D01*
X107607606Y-43002104D01*
X107607603Y-43002103D01*
X107397952Y-42933985D01*
X107289086Y-42916742D01*
X107180222Y-42899500D01*
X106959778Y-42899500D01*
X106887201Y-42910995D01*
X106742047Y-42933985D01*
X106532396Y-43002103D01*
X106532393Y-43002104D01*
X106335974Y-43102187D01*
X106157642Y-43231751D01*
X106057464Y-43331929D01*
X105996141Y-43365413D01*
X105926449Y-43360429D01*
X105870516Y-43318557D01*
X105853601Y-43287580D01*
X105823797Y-43207671D01*
X105823793Y-43207664D01*
X105737547Y-43092455D01*
X105737544Y-43092452D01*
X105622335Y-43006206D01*
X105622328Y-43006202D01*
X105487482Y-42955908D01*
X105487483Y-42955908D01*
X105427883Y-42949501D01*
X105427881Y-42949500D01*
X105427873Y-42949500D01*
X105427865Y-42949500D01*
X104925342Y-42949500D01*
X104887024Y-42943431D01*
X104857952Y-42933984D01*
X104666410Y-42903647D01*
X104640222Y-42899499D01*
X104419779Y-42899499D01*
X104391233Y-42904020D01*
X104202055Y-42933983D01*
X104202042Y-42933986D01*
X104172971Y-42943432D01*
X104134656Y-42949500D01*
X103632129Y-42949500D01*
X103632123Y-42949501D01*
X103572516Y-42955908D01*
X103437671Y-43006202D01*
X103437664Y-43006206D01*
X103322455Y-43092452D01*
X103322452Y-43092455D01*
X103236206Y-43207664D01*
X103236202Y-43207671D01*
X103185908Y-43342517D01*
X103179501Y-43402116D01*
X103179500Y-43402135D01*
X103179500Y-43618531D01*
X103159815Y-43685570D01*
X103143181Y-43706212D01*
X99036211Y-47813181D01*
X98974888Y-47846666D01*
X98948532Y-47849500D01*
X98872130Y-47849500D01*
X98872123Y-47849501D01*
X98812516Y-47855908D01*
X98677671Y-47906202D01*
X98677664Y-47906206D01*
X98562455Y-47992452D01*
X98562452Y-47992455D01*
X98476206Y-48107664D01*
X98476202Y-48107671D01*
X98425908Y-48242517D01*
X98419501Y-48302116D01*
X98419500Y-48302135D01*
X98419500Y-48664658D01*
X98413431Y-48702976D01*
X98403984Y-48732047D01*
X98369499Y-48949778D01*
X93100500Y-48949778D01*
X93100500Y-42524500D01*
X93120185Y-42457461D01*
X93172989Y-42411706D01*
X93224500Y-42400500D01*
X192045500Y-42400500D01*
X192112539Y-42420185D01*
G37*
%TD.AperFunction*%
%TD*%
%TA.AperFunction,NonConductor*%
G36*
X156456570Y-63700185D02*
G01*
X156502325Y-63752989D01*
X156512269Y-63822147D01*
X156483244Y-63885703D01*
X156477212Y-63892181D01*
X152581756Y-67787636D01*
X152581754Y-67787638D01*
X152530921Y-67857606D01*
X152501860Y-67897606D01*
X152477022Y-67931792D01*
X152452185Y-67965977D01*
X152352104Y-68162393D01*
X152352103Y-68162396D01*
X152283985Y-68372047D01*
X152275084Y-68428243D01*
X152254562Y-68557816D01*
X152249499Y-68589779D01*
X152249499Y-68815332D01*
X152249500Y-68815357D01*
X152249500Y-100575362D01*
X152249499Y-100575377D01*
X152249499Y-100800220D01*
X152271043Y-100936243D01*
X152272898Y-100947951D01*
X152283985Y-101017951D01*
X152311278Y-101101954D01*
X152312358Y-101106336D01*
X152311007Y-101136919D01*
X152311881Y-101167511D01*
X152309480Y-101171492D01*
X152309275Y-101176137D01*
X152291606Y-101201131D01*
X152275800Y-101227343D01*
X152271627Y-101229394D01*
X152268944Y-101233191D01*
X152240566Y-101244666D01*
X152213099Y-101258171D01*
X152208480Y-101257641D01*
X152204170Y-101259384D01*
X152174092Y-101253695D01*
X152143685Y-101250206D01*
X152139013Y-101247060D01*
X152135517Y-101246399D01*
X152129327Y-101240538D01*
X152104274Y-101223668D01*
X151466819Y-100586213D01*
X151433334Y-100524890D01*
X151430500Y-100498532D01*
X151430500Y-67301468D01*
X151450185Y-67234429D01*
X151466819Y-67213787D01*
X154963787Y-63716819D01*
X155025110Y-63683334D01*
X155051468Y-63680500D01*
X156389531Y-63680500D01*
X156456570Y-63700185D01*
G37*
%TD.AperFunction*%
%TA.AperFunction,NonConductor*%
G36*
X159406570Y-66240185D02*
G01*
X159452325Y-66292989D01*
X159462269Y-66362147D01*
X159433244Y-66425703D01*
X159427212Y-66432181D01*
X156141759Y-69717633D01*
X156141754Y-69717639D01*
X156080856Y-69801459D01*
X156012187Y-69895974D01*
X155912104Y-70092393D01*
X155912103Y-70092396D01*
X155843985Y-70302047D01*
X155809499Y-70519779D01*
X155809499Y-70745332D01*
X155809500Y-70745357D01*
X155809500Y-89555362D01*
X155809499Y-89555377D01*
X155809499Y-89780220D01*
X155834727Y-89939501D01*
X155843985Y-89997952D01*
X155912103Y-90207603D01*
X155912104Y-90207606D01*
X156012187Y-90404025D01*
X156141751Y-90582357D01*
X156141755Y-90582361D01*
X156141758Y-90582365D01*
X156270965Y-90711572D01*
X156301965Y-90742572D01*
X156301976Y-90742582D01*
X159468632Y-93909238D01*
X159468646Y-93909253D01*
X159471757Y-93912364D01*
X159471758Y-93912365D01*
X159627635Y-94068242D01*
X159627638Y-94068244D01*
X159627641Y-94068247D01*
X159684903Y-94109849D01*
X159709342Y-94127605D01*
X159805978Y-94197815D01*
X159902313Y-94246900D01*
X160002393Y-94297895D01*
X160002396Y-94297896D01*
X160107221Y-94331955D01*
X160212049Y-94366015D01*
X160429778Y-94400501D01*
X160429779Y-94400501D01*
X160655333Y-94400501D01*
X160655357Y-94400500D01*
X160740242Y-94400500D01*
X160807281Y-94420185D01*
X160853036Y-94472989D01*
X160862980Y-94542147D01*
X160833955Y-94605703D01*
X160827923Y-94612181D01*
X160779894Y-94660209D01*
X160779890Y-94660213D01*
X160654951Y-94832179D01*
X160558444Y-95021585D01*
X160492753Y-95223760D01*
X160487228Y-95258644D01*
X160459500Y-95433713D01*
X160459500Y-95646287D01*
X160467119Y-95694394D01*
X160491030Y-95845362D01*
X160492754Y-95856243D01*
X160553213Y-96042317D01*
X160558444Y-96058414D01*
X160654951Y-96247820D01*
X160779890Y-96419786D01*
X160930213Y-96570109D01*
X161102182Y-96695050D01*
X161110946Y-96699516D01*
X161161742Y-96747491D01*
X161178536Y-96815312D01*
X161155998Y-96881447D01*
X161110946Y-96920484D01*
X161102182Y-96924949D01*
X160930213Y-97049890D01*
X160779890Y-97200213D01*
X160654951Y-97372179D01*
X160558444Y-97561585D01*
X160492753Y-97763760D01*
X160459500Y-97973713D01*
X160459500Y-98186285D01*
X160488921Y-98372047D01*
X160492754Y-98396243D01*
X160555638Y-98589780D01*
X160558444Y-98598414D01*
X160654951Y-98787820D01*
X160779890Y-98959786D01*
X160930213Y-99110109D01*
X161102182Y-99235050D01*
X161110946Y-99239516D01*
X161161742Y-99287491D01*
X161178536Y-99355312D01*
X161155998Y-99421447D01*
X161110946Y-99460484D01*
X161102182Y-99464949D01*
X160930213Y-99589890D01*
X160779890Y-99740213D01*
X160654951Y-99912179D01*
X160558444Y-100101585D01*
X160492753Y-100303760D01*
X160487286Y-100338280D01*
X160459500Y-100513713D01*
X160459500Y-100726287D01*
X160492754Y-100936243D01*
X160519896Y-101019778D01*
X160558444Y-101138414D01*
X160654951Y-101327820D01*
X160779890Y-101499786D01*
X160930213Y-101650109D01*
X161102182Y-101775050D01*
X161110946Y-101779516D01*
X161161742Y-101827491D01*
X161178536Y-101895312D01*
X161155998Y-101961447D01*
X161110946Y-102000484D01*
X161102182Y-102004949D01*
X160930213Y-102129890D01*
X160779890Y-102280213D01*
X160654951Y-102452179D01*
X160558444Y-102641585D01*
X160492753Y-102843760D01*
X160459500Y-103053713D01*
X160459500Y-103266286D01*
X160492753Y-103476239D01*
X160558444Y-103678414D01*
X160654951Y-103867820D01*
X160779890Y-104039786D01*
X160827923Y-104087819D01*
X160861408Y-104149142D01*
X160856424Y-104218834D01*
X160814552Y-104274767D01*
X160749088Y-104299184D01*
X160740242Y-104299500D01*
X159291468Y-104299500D01*
X159224429Y-104279815D01*
X159203787Y-104263181D01*
X155086819Y-100146213D01*
X155053334Y-100084890D01*
X155050500Y-100058532D01*
X155050500Y-69331468D01*
X155070185Y-69264429D01*
X155086819Y-69243787D01*
X158073787Y-66256819D01*
X158135110Y-66223334D01*
X158161468Y-66220500D01*
X159339531Y-66220500D01*
X159406570Y-66240185D01*
G37*
%TD.AperFunction*%
%TA.AperFunction,NonConductor*%
G36*
X162436570Y-68780185D02*
G01*
X162482325Y-68832989D01*
X162492269Y-68902147D01*
X162463244Y-68965703D01*
X162457212Y-68972181D01*
X162441756Y-68987636D01*
X162441752Y-68987641D01*
X162312187Y-69165974D01*
X162212104Y-69362393D01*
X162212103Y-69362396D01*
X162143985Y-69572047D01*
X162109500Y-69789778D01*
X162109500Y-70010221D01*
X162143985Y-70227952D01*
X162212103Y-70437603D01*
X162212104Y-70437606D01*
X162280122Y-70571096D01*
X162311884Y-70633432D01*
X162312187Y-70634025D01*
X162441752Y-70812358D01*
X162441756Y-70812363D01*
X162597640Y-70968247D01*
X162779787Y-71100583D01*
X162822453Y-71155912D01*
X162828432Y-71225526D01*
X162795827Y-71287321D01*
X162779788Y-71301219D01*
X162630209Y-71409894D01*
X162479890Y-71560213D01*
X162354951Y-71732179D01*
X162258444Y-71921585D01*
X162192753Y-72123760D01*
X162174237Y-72240667D01*
X162159500Y-72333713D01*
X162159500Y-72546287D01*
X162164840Y-72580000D01*
X162187650Y-72724022D01*
X162192754Y-72756243D01*
X162256600Y-72952741D01*
X162258444Y-72958414D01*
X162354951Y-73147820D01*
X162479890Y-73319786D01*
X162630213Y-73470109D01*
X162802182Y-73595050D01*
X162810946Y-73599516D01*
X162861742Y-73647491D01*
X162878536Y-73715312D01*
X162855998Y-73781447D01*
X162810946Y-73820484D01*
X162802182Y-73824949D01*
X162630213Y-73949890D01*
X162479890Y-74100213D01*
X162354951Y-74272179D01*
X162258444Y-74461585D01*
X162192753Y-74663760D01*
X162159500Y-74873713D01*
X162159500Y-75086286D01*
X162192753Y-75296239D01*
X162258444Y-75498414D01*
X162354951Y-75687820D01*
X162479890Y-75859786D01*
X162630213Y-76010109D01*
X162802182Y-76135050D01*
X162810946Y-76139516D01*
X162861742Y-76187491D01*
X162878536Y-76255312D01*
X162855998Y-76321447D01*
X162810946Y-76360484D01*
X162802182Y-76364949D01*
X162630213Y-76489890D01*
X162479890Y-76640213D01*
X162354951Y-76812179D01*
X162258444Y-77001585D01*
X162192753Y-77203760D01*
X162159500Y-77413713D01*
X162159500Y-77626286D01*
X162192753Y-77836239D01*
X162258444Y-78038414D01*
X162354951Y-78227820D01*
X162479890Y-78399786D01*
X162630213Y-78550109D01*
X162802182Y-78675050D01*
X162810946Y-78679516D01*
X162861742Y-78727491D01*
X162878536Y-78795312D01*
X162855998Y-78861447D01*
X162810946Y-78900484D01*
X162802182Y-78904949D01*
X162630213Y-79029890D01*
X162479890Y-79180213D01*
X162354951Y-79352179D01*
X162258444Y-79541585D01*
X162192753Y-79743760D01*
X162159500Y-79953713D01*
X162159500Y-80166286D01*
X162192231Y-80372946D01*
X162192754Y-80376243D01*
X162252388Y-80559778D01*
X162258444Y-80578414D01*
X162354951Y-80767820D01*
X162479890Y-80939786D01*
X162630213Y-81090109D01*
X162802179Y-81215048D01*
X162802181Y-81215049D01*
X162802184Y-81215051D01*
X162991588Y-81311557D01*
X163193757Y-81377246D01*
X163403713Y-81410500D01*
X163403714Y-81410500D01*
X163616286Y-81410500D01*
X163616287Y-81410500D01*
X163826243Y-81377246D01*
X164028412Y-81311557D01*
X164217816Y-81215051D01*
X164284413Y-81166666D01*
X164389786Y-81090109D01*
X164389788Y-81090106D01*
X164389792Y-81090104D01*
X164540104Y-80939792D01*
X164540106Y-80939788D01*
X164540109Y-80939786D01*
X164665048Y-80767820D01*
X164665047Y-80767820D01*
X164665051Y-80767816D01*
X164761557Y-80578412D01*
X164827246Y-80376243D01*
X164860500Y-80166287D01*
X164860500Y-79953713D01*
X164827246Y-79743757D01*
X164761557Y-79541588D01*
X164665051Y-79352184D01*
X164665049Y-79352181D01*
X164665048Y-79352179D01*
X164540109Y-79180213D01*
X164389786Y-79029890D01*
X164217820Y-78904951D01*
X164217115Y-78904591D01*
X164209054Y-78900485D01*
X164158259Y-78852512D01*
X164141463Y-78784692D01*
X164163999Y-78718556D01*
X164209054Y-78679515D01*
X164217816Y-78675051D01*
X164239789Y-78659086D01*
X164389786Y-78550109D01*
X164389788Y-78550106D01*
X164389792Y-78550104D01*
X164540104Y-78399792D01*
X164540106Y-78399788D01*
X164540109Y-78399786D01*
X164665048Y-78227820D01*
X164665047Y-78227820D01*
X164665051Y-78227816D01*
X164761557Y-78038412D01*
X164827246Y-77836243D01*
X164860500Y-77626287D01*
X164860500Y-77413713D01*
X164827246Y-77203757D01*
X164761557Y-77001588D01*
X164665051Y-76812184D01*
X164665049Y-76812181D01*
X164665048Y-76812179D01*
X164540109Y-76640213D01*
X164389786Y-76489890D01*
X164217820Y-76364951D01*
X164217115Y-76364591D01*
X164209054Y-76360485D01*
X164158259Y-76312512D01*
X164141463Y-76244692D01*
X164163999Y-76178556D01*
X164209054Y-76139515D01*
X164217816Y-76135051D01*
X164239789Y-76119086D01*
X164389786Y-76010109D01*
X164389788Y-76010106D01*
X164389792Y-76010104D01*
X164540104Y-75859792D01*
X164540106Y-75859788D01*
X164540109Y-75859786D01*
X164665048Y-75687820D01*
X164665047Y-75687820D01*
X164665051Y-75687816D01*
X164761557Y-75498412D01*
X164827246Y-75296243D01*
X164860500Y-75086287D01*
X164860500Y-74873713D01*
X164827246Y-74663757D01*
X164761557Y-74461588D01*
X164665051Y-74272184D01*
X164665049Y-74272181D01*
X164665048Y-74272179D01*
X164540109Y-74100213D01*
X164389786Y-73949890D01*
X164217820Y-73824951D01*
X164217115Y-73824591D01*
X164209054Y-73820485D01*
X164158259Y-73772512D01*
X164141463Y-73704692D01*
X164163999Y-73638556D01*
X164209054Y-73599515D01*
X164217816Y-73595051D01*
X164296306Y-73538025D01*
X164389786Y-73470109D01*
X164389788Y-73470106D01*
X164389792Y-73470104D01*
X164540104Y-73319792D01*
X164540106Y-73319788D01*
X164540109Y-73319786D01*
X164665048Y-73147820D01*
X164665047Y-73147820D01*
X164665051Y-73147816D01*
X164761557Y-72958412D01*
X164827246Y-72756243D01*
X164860500Y-72546287D01*
X164860500Y-72333713D01*
X164860500Y-72328841D01*
X164862794Y-72328841D01*
X164875184Y-72269744D01*
X164924215Y-72219967D01*
X164992374Y-72204601D01*
X165058021Y-72228523D01*
X165072142Y-72240667D01*
X166333181Y-73501706D01*
X166366666Y-73563029D01*
X166369500Y-73589387D01*
X166369500Y-87035362D01*
X166369499Y-87035377D01*
X166369499Y-87260220D01*
X166393645Y-87412666D01*
X166393645Y-87412667D01*
X166403985Y-87477952D01*
X166472103Y-87687603D01*
X166472104Y-87687606D01*
X166572187Y-87884025D01*
X166701751Y-88062357D01*
X166701755Y-88062361D01*
X166701758Y-88062365D01*
X166857635Y-88218242D01*
X166861965Y-88222572D01*
X166861976Y-88222582D01*
X168448107Y-89808713D01*
X168481592Y-89870036D01*
X168476608Y-89939728D01*
X168434736Y-89995661D01*
X168369272Y-90020078D01*
X168322108Y-90014325D01*
X168197952Y-89973985D01*
X168089086Y-89956742D01*
X167980222Y-89939500D01*
X167759778Y-89939500D01*
X167687201Y-89950995D01*
X167542047Y-89973985D01*
X167332396Y-90042103D01*
X167332393Y-90042104D01*
X167135974Y-90142187D01*
X166957641Y-90271752D01*
X166957636Y-90271756D01*
X166801756Y-90427636D01*
X166801752Y-90427641D01*
X166672187Y-90605974D01*
X166572104Y-90802393D01*
X166572103Y-90802396D01*
X166503985Y-91012047D01*
X166469500Y-91229778D01*
X166469500Y-95845362D01*
X166469499Y-95845377D01*
X166469499Y-96070220D01*
X166491674Y-96210222D01*
X166491674Y-96210223D01*
X166503985Y-96287952D01*
X166572103Y-96497603D01*
X166572106Y-96497610D01*
X166595984Y-96544471D01*
X166599105Y-96557474D01*
X166604477Y-96565832D01*
X166609500Y-96600767D01*
X166609500Y-96765362D01*
X166609499Y-96765377D01*
X166609499Y-96769778D01*
X166609499Y-96990222D01*
X166627159Y-97101719D01*
X166635753Y-97155978D01*
X166643985Y-97207952D01*
X166712103Y-97417603D01*
X166712104Y-97417606D01*
X166812187Y-97614025D01*
X166941751Y-97792357D01*
X166941755Y-97792361D01*
X166941758Y-97792365D01*
X167071336Y-97921943D01*
X167101965Y-97952572D01*
X167101976Y-97952582D01*
X168029150Y-98879756D01*
X168062635Y-98941079D01*
X168064408Y-98951251D01*
X168065532Y-98959792D01*
X168080307Y-99072014D01*
X168110094Y-99183181D01*
X168141394Y-99299993D01*
X168231714Y-99518045D01*
X168231719Y-99518056D01*
X168302677Y-99640957D01*
X168349727Y-99722450D01*
X168349729Y-99722453D01*
X168349730Y-99722454D01*
X168493406Y-99909697D01*
X168493412Y-99909704D01*
X168660295Y-100076587D01*
X168660302Y-100076593D01*
X168692876Y-100101588D01*
X168847550Y-100220273D01*
X168971866Y-100292047D01*
X169051943Y-100338280D01*
X169051948Y-100338282D01*
X169051951Y-100338284D01*
X169270007Y-100428606D01*
X169497986Y-100489693D01*
X169731989Y-100520500D01*
X169731996Y-100520500D01*
X169968004Y-100520500D01*
X169968011Y-100520500D01*
X170202014Y-100489693D01*
X170429993Y-100428606D01*
X170648049Y-100338284D01*
X170852450Y-100220273D01*
X171039699Y-100076592D01*
X171206592Y-99909699D01*
X171350273Y-99722450D01*
X171468284Y-99518049D01*
X171558606Y-99299993D01*
X171619693Y-99072014D01*
X171650500Y-98838011D01*
X171650500Y-98601989D01*
X171619693Y-98367986D01*
X171558606Y-98140007D01*
X171468284Y-97921951D01*
X171468282Y-97921948D01*
X171468280Y-97921943D01*
X171393467Y-97792365D01*
X171350273Y-97717550D01*
X171206592Y-97530301D01*
X171206587Y-97530295D01*
X171039704Y-97363412D01*
X171039697Y-97363406D01*
X170852454Y-97219730D01*
X170852453Y-97219729D01*
X170852450Y-97219727D01*
X170710715Y-97137896D01*
X170648056Y-97101719D01*
X170648045Y-97101714D01*
X170429993Y-97011394D01*
X170202010Y-96950306D01*
X170081251Y-96934408D01*
X170017355Y-96906141D01*
X170009756Y-96899150D01*
X169446819Y-96336213D01*
X169432115Y-96309285D01*
X169415523Y-96283467D01*
X169414631Y-96277266D01*
X169413334Y-96274890D01*
X169410500Y-96248532D01*
X169410500Y-96215357D01*
X169410501Y-96215332D01*
X169410501Y-95989779D01*
X169402616Y-95939999D01*
X169394276Y-95887339D01*
X169376015Y-95772047D01*
X169340868Y-95663877D01*
X169307895Y-95562395D01*
X169307895Y-95562394D01*
X169283177Y-95513882D01*
X169282386Y-95512208D01*
X169280809Y-95502174D01*
X169270500Y-95459231D01*
X169270500Y-91229778D01*
X169263504Y-91185606D01*
X169236015Y-91012049D01*
X169195673Y-90887890D01*
X169193679Y-90818050D01*
X169229759Y-90758217D01*
X169292460Y-90727389D01*
X169361875Y-90735354D01*
X169401286Y-90761892D01*
X172773181Y-94133787D01*
X172806666Y-94195110D01*
X172809500Y-94221468D01*
X172809500Y-111518532D01*
X172789815Y-111585571D01*
X172773181Y-111606213D01*
X167416213Y-116963181D01*
X167354890Y-116996666D01*
X167328532Y-116999500D01*
X166240469Y-116999500D01*
X166219227Y-116993262D01*
X166197143Y-116991685D01*
X166186355Y-116983610D01*
X166173430Y-116979815D01*
X166158933Y-116963085D01*
X166141207Y-116949817D01*
X166136497Y-116937192D01*
X166127675Y-116927011D01*
X166124523Y-116905096D01*
X166116786Y-116884354D01*
X166119648Y-116871189D01*
X166117731Y-116857853D01*
X166126928Y-116837712D01*
X166131633Y-116816080D01*
X166144905Y-116798349D01*
X166146756Y-116794297D01*
X166152782Y-116787825D01*
X166168242Y-116772365D01*
X166168244Y-116772361D01*
X170875296Y-112065309D01*
X170875303Y-112065303D01*
X170882363Y-112058243D01*
X170882365Y-112058242D01*
X171038242Y-111902365D01*
X171167815Y-111724022D01*
X171267895Y-111527606D01*
X171336015Y-111317951D01*
X171370501Y-111100222D01*
X171370501Y-110879779D01*
X171336015Y-110662049D01*
X171267895Y-110452395D01*
X171267895Y-110452394D01*
X171264014Y-110444777D01*
X171250500Y-110388485D01*
X171250500Y-105584797D01*
X171270185Y-105517758D01*
X171309403Y-105479258D01*
X171368656Y-105442712D01*
X171492712Y-105318656D01*
X171584814Y-105169334D01*
X171639999Y-105002797D01*
X171650500Y-104900009D01*
X171650499Y-102699992D01*
X171639999Y-102597203D01*
X171584814Y-102430666D01*
X171492712Y-102281344D01*
X171368656Y-102157288D01*
X171219334Y-102065186D01*
X171052797Y-102010001D01*
X171052795Y-102010000D01*
X170950010Y-101999500D01*
X168749998Y-101999500D01*
X168749981Y-101999501D01*
X168647203Y-102010000D01*
X168647200Y-102010001D01*
X168480668Y-102065185D01*
X168480663Y-102065187D01*
X168331342Y-102157289D01*
X168207289Y-102281342D01*
X168115187Y-102430663D01*
X168115185Y-102430668D01*
X168087349Y-102514670D01*
X168060001Y-102597203D01*
X168060001Y-102597204D01*
X168060000Y-102597204D01*
X168049500Y-102699983D01*
X168049500Y-104900001D01*
X168049501Y-104900018D01*
X168060000Y-105002796D01*
X168060001Y-105002799D01*
X168112886Y-105162393D01*
X168115186Y-105169334D01*
X168207288Y-105318656D01*
X168331344Y-105442712D01*
X168390596Y-105479258D01*
X168437321Y-105531204D01*
X168449500Y-105584797D01*
X168449500Y-110478532D01*
X168429815Y-110545571D01*
X168413181Y-110566213D01*
X164556213Y-114423181D01*
X164494890Y-114456666D01*
X164468532Y-114459500D01*
X162879758Y-114459500D01*
X162812719Y-114439815D01*
X162766964Y-114387011D01*
X162757020Y-114317853D01*
X162786045Y-114254297D01*
X162792077Y-114247819D01*
X162840104Y-114199792D01*
X162840106Y-114199788D01*
X162840109Y-114199786D01*
X162965048Y-114027820D01*
X162965047Y-114027820D01*
X162965051Y-114027816D01*
X163061557Y-113838412D01*
X163127246Y-113636243D01*
X163160500Y-113426287D01*
X163160500Y-113213713D01*
X163127246Y-113003757D01*
X163061557Y-112801588D01*
X162965051Y-112612184D01*
X162965049Y-112612181D01*
X162965048Y-112612179D01*
X162840109Y-112440213D01*
X162689786Y-112289890D01*
X162517820Y-112164951D01*
X162517115Y-112164591D01*
X162509054Y-112160485D01*
X162458259Y-112112512D01*
X162441463Y-112044692D01*
X162463999Y-111978556D01*
X162509054Y-111939515D01*
X162517816Y-111935051D01*
X162562805Y-111902365D01*
X162689786Y-111810109D01*
X162689788Y-111810106D01*
X162689792Y-111810104D01*
X162840104Y-111659792D01*
X162840106Y-111659788D01*
X162840109Y-111659786D01*
X162965048Y-111487820D01*
X162965047Y-111487820D01*
X162965051Y-111487816D01*
X163061557Y-111298412D01*
X163127246Y-111096243D01*
X163160500Y-110886287D01*
X163160500Y-110673713D01*
X163127246Y-110463757D01*
X163061557Y-110261588D01*
X162965051Y-110072184D01*
X162965049Y-110072181D01*
X162965048Y-110072179D01*
X162840109Y-109900213D01*
X162689790Y-109749894D01*
X162689785Y-109749890D01*
X162540212Y-109641219D01*
X162497546Y-109585889D01*
X162491567Y-109516276D01*
X162524173Y-109454481D01*
X162540212Y-109440582D01*
X162544016Y-109437817D01*
X162544022Y-109437815D01*
X162722365Y-109308242D01*
X162878242Y-109152365D01*
X163007815Y-108974022D01*
X163107895Y-108777606D01*
X163176015Y-108567951D01*
X163210500Y-108350222D01*
X163210500Y-108129778D01*
X163176015Y-107912049D01*
X163141955Y-107807221D01*
X163107896Y-107702396D01*
X163107895Y-107702393D01*
X163073237Y-107634375D01*
X163007815Y-107505978D01*
X162991260Y-107483192D01*
X162878247Y-107327641D01*
X162878243Y-107327636D01*
X162722363Y-107171756D01*
X162722358Y-107171752D01*
X162582745Y-107070318D01*
X162540079Y-107014989D01*
X162534100Y-106945375D01*
X162566705Y-106883580D01*
X162582745Y-106869682D01*
X162722358Y-106768247D01*
X162722356Y-106768247D01*
X162722365Y-106768242D01*
X162878242Y-106612365D01*
X163007815Y-106434022D01*
X163107895Y-106237606D01*
X163176015Y-106027951D01*
X163210500Y-105810222D01*
X163210500Y-105589778D01*
X163176015Y-105372049D01*
X163116098Y-105187641D01*
X163107896Y-105162396D01*
X163107895Y-105162393D01*
X163069803Y-105087635D01*
X163007815Y-104965978D01*
X162982949Y-104931752D01*
X162878247Y-104787641D01*
X162878243Y-104787636D01*
X162722363Y-104631756D01*
X162722358Y-104631752D01*
X162540212Y-104499416D01*
X162497546Y-104444087D01*
X162491567Y-104374473D01*
X162524172Y-104312678D01*
X162540212Y-104298780D01*
X162689786Y-104190109D01*
X162689788Y-104190106D01*
X162689792Y-104190104D01*
X162840104Y-104039792D01*
X162840106Y-104039788D01*
X162840109Y-104039786D01*
X162965048Y-103867820D01*
X162965047Y-103867820D01*
X162965051Y-103867816D01*
X163061557Y-103678412D01*
X163127246Y-103476243D01*
X163160500Y-103266287D01*
X163160500Y-103053713D01*
X163127246Y-102843757D01*
X163061557Y-102641588D01*
X162965051Y-102452184D01*
X162965049Y-102452181D01*
X162965048Y-102452179D01*
X162840109Y-102280213D01*
X162689786Y-102129890D01*
X162517820Y-102004951D01*
X162517115Y-102004591D01*
X162509054Y-102000485D01*
X162458259Y-101952512D01*
X162441463Y-101884692D01*
X162463999Y-101818556D01*
X162509054Y-101779515D01*
X162517816Y-101775051D01*
X162540952Y-101758242D01*
X162689786Y-101650109D01*
X162689788Y-101650106D01*
X162689792Y-101650104D01*
X162840104Y-101499792D01*
X162840106Y-101499788D01*
X162840109Y-101499786D01*
X162965048Y-101327820D01*
X162965047Y-101327820D01*
X162965051Y-101327816D01*
X163061557Y-101138412D01*
X163127246Y-100936243D01*
X163160500Y-100726287D01*
X163160500Y-100513713D01*
X163127246Y-100303757D01*
X163061557Y-100101588D01*
X162965051Y-99912184D01*
X162965049Y-99912181D01*
X162965048Y-99912179D01*
X162840109Y-99740213D01*
X162689786Y-99589890D01*
X162517820Y-99464951D01*
X162517115Y-99464591D01*
X162509054Y-99460485D01*
X162458259Y-99412512D01*
X162441463Y-99344692D01*
X162463999Y-99278556D01*
X162509054Y-99239515D01*
X162517816Y-99235051D01*
X162566315Y-99199815D01*
X162689786Y-99110109D01*
X162689788Y-99110106D01*
X162689792Y-99110104D01*
X162840104Y-98959792D01*
X162840106Y-98959788D01*
X162840109Y-98959786D01*
X162965048Y-98787820D01*
X162965047Y-98787820D01*
X162965051Y-98787816D01*
X163061557Y-98598412D01*
X163127246Y-98396243D01*
X163160500Y-98186287D01*
X163160500Y-97973713D01*
X163127246Y-97763757D01*
X163061557Y-97561588D01*
X162965051Y-97372184D01*
X162965049Y-97372181D01*
X162965048Y-97372179D01*
X162840109Y-97200213D01*
X162689786Y-97049890D01*
X162517820Y-96924951D01*
X162517115Y-96924591D01*
X162509054Y-96920485D01*
X162458259Y-96872512D01*
X162441463Y-96804692D01*
X162463999Y-96738556D01*
X162509054Y-96699515D01*
X162517816Y-96695051D01*
X162557910Y-96665921D01*
X162689786Y-96570109D01*
X162689788Y-96570106D01*
X162689792Y-96570104D01*
X162840104Y-96419792D01*
X162840106Y-96419788D01*
X162840109Y-96419786D01*
X162965048Y-96247820D01*
X162965047Y-96247820D01*
X162965051Y-96247816D01*
X163061557Y-96058412D01*
X163127246Y-95856243D01*
X163160500Y-95646287D01*
X163160500Y-95433713D01*
X163127246Y-95223757D01*
X163061557Y-95021588D01*
X162965051Y-94832184D01*
X162965049Y-94832181D01*
X162965048Y-94832179D01*
X162840109Y-94660213D01*
X162726569Y-94546673D01*
X162693084Y-94485350D01*
X162698068Y-94415658D01*
X162739940Y-94359725D01*
X162770915Y-94342810D01*
X162902331Y-94293796D01*
X163017546Y-94207546D01*
X163103796Y-94092331D01*
X163154091Y-93957483D01*
X163160500Y-93897873D01*
X163160499Y-93395340D01*
X163166569Y-93357020D01*
X163176015Y-93327951D01*
X163210500Y-93110222D01*
X163210500Y-92889778D01*
X163176015Y-92672049D01*
X163166568Y-92642973D01*
X163160499Y-92604655D01*
X163160499Y-92102129D01*
X163160498Y-92102123D01*
X163160497Y-92102116D01*
X163154091Y-92042517D01*
X163146196Y-92021350D01*
X163103797Y-91907671D01*
X163103793Y-91907664D01*
X163017547Y-91792455D01*
X163017544Y-91792452D01*
X162902335Y-91706206D01*
X162902328Y-91706202D01*
X162767482Y-91655908D01*
X162767483Y-91655908D01*
X162707883Y-91649501D01*
X162707881Y-91649500D01*
X162707873Y-91649500D01*
X162707865Y-91649500D01*
X162205342Y-91649500D01*
X162167024Y-91643431D01*
X162137952Y-91633985D01*
X162029086Y-91616742D01*
X161920222Y-91599500D01*
X161920221Y-91599500D01*
X161171468Y-91599500D01*
X161104429Y-91579815D01*
X161083787Y-91563181D01*
X158646819Y-89126213D01*
X158613334Y-89064890D01*
X158610500Y-89038532D01*
X158610500Y-71261468D01*
X158630185Y-71194429D01*
X158646819Y-71173787D01*
X161023788Y-68796819D01*
X161085111Y-68763334D01*
X161111469Y-68760500D01*
X162369531Y-68760500D01*
X162436570Y-68780185D01*
G37*
%TD.AperFunction*%
%TA.AperFunction,NonConductor*%
G36*
X175596946Y-112824837D02*
G01*
X175640397Y-112879553D01*
X175649500Y-112926186D01*
X175649500Y-113088532D01*
X175629815Y-113155571D01*
X175613181Y-113176213D01*
X169286213Y-119503181D01*
X169274163Y-119509760D01*
X169265126Y-119520101D01*
X169243906Y-119526282D01*
X169224890Y-119536666D01*
X169210172Y-119536108D01*
X169198532Y-119539500D01*
X169100469Y-119539500D01*
X169033430Y-119519815D01*
X168987675Y-119467011D01*
X168977731Y-119397853D01*
X169006756Y-119334297D01*
X169012788Y-119327819D01*
X169028242Y-119312365D01*
X169028242Y-119312363D01*
X169035303Y-119305303D01*
X169035309Y-119305296D01*
X175115296Y-113225309D01*
X175115303Y-113225303D01*
X175122363Y-113218243D01*
X175122365Y-113218242D01*
X175278242Y-113062365D01*
X175407815Y-112884022D01*
X175415015Y-112869890D01*
X175462990Y-112819095D01*
X175530811Y-112802300D01*
X175596946Y-112824837D01*
G37*
%TD.AperFunction*%
M02*
